<svg width="300" height="284" viewBox="0 0 300 284" fill="none" xmlns="http://www.w3.org/2000/svg">
<rect width="300" height="284" rx="15" fill="#274C77"/>
<ellipse cx="149" cy="141.5" rx="140" ry="133.5" fill="#F7E8A4"/>
<path d="M141.425 32.2995C143.883 25.0637 154.117 25.0637 156.575 32.2995L178.139 95.7829C179.242 99.0274 182.288 101.21 185.714 101.21H254.716C262.551 101.21 265.716 111.308 259.281 115.779L204.079 154.142C201.149 156.178 199.922 159.907 201.069 163.285L222.298 225.778C224.78 233.087 216.495 239.326 210.157 234.921L153.565 195.592C150.821 193.685 147.179 193.685 144.435 195.592L87.8428 234.921C81.5046 239.326 73.2199 233.087 75.7025 225.778L96.9308 163.285C98.0782 159.907 96.8506 156.178 93.9214 154.142L38.7187 115.779C32.2843 111.308 35.4485 101.21 43.2842 101.21H112.286C115.712 101.21 118.758 99.0274 119.861 95.7829L141.425 32.2995Z" fill="#0E2643"/>
</svg>
