<svg width="280" height="267" viewBox="0 0 280 267" fill="none" xmlns="http://www.w3.org/2000/svg">
<ellipse cx="140" cy="133.5" rx="140" ry="133.5" fill="#F7E8A4"/>
<path d="M132.425 24.2995C134.883 17.0637 145.117 17.0637 147.575 24.2995L169.139 87.7829C170.242 91.0274 173.288 93.2098 176.714 93.2098H245.716C253.551 93.2098 256.716 103.308 250.281 107.779L195.079 146.142C192.149 148.178 190.922 151.907 192.069 155.285L213.298 217.778C215.78 225.087 207.495 231.326 201.157 226.921L144.565 187.592C141.821 185.685 138.179 185.685 135.435 187.592L78.8428 226.921C72.5046 231.326 64.2199 225.087 66.7025 217.778L87.9308 155.285C89.0782 151.907 87.8506 148.178 84.9214 146.142L29.7187 107.779C23.2843 103.308 26.4485 93.2098 34.2842 93.2098H103.286C106.712 93.2098 109.758 91.0274 110.861 87.7829L132.425 24.2995Z" fill="#0E2643"/>
</svg>
