<svg width="118" height="127" viewBox="0 0 118 127" fill="none" xmlns="http://www.w3.org/2000/svg">
<g filter="url(#filter0_d_157_14)">
<path d="M29.64 33.88C28.2533 33.08 25.56 32.68 21.56 32.68L22.04 37.64C22.4667 40.52 22.84 45.9067 23.16 53.8C23.64 53.6933 23.96 53.56 24.12 53.4C24.5467 53.08 25 52.92 25.48 52.92C26.1733 52.76 26.84 52.28 27.48 51.48C29.08 50.1467 30.3067 49.0267 31.16 48.12L33.8 45.08C33.96 45.0267 34.2267 44.44 34.6 43.32C34.9733 42.1467 35.2133 41.1867 35.32 40.44C35.32 38.8933 35.16 38.0133 34.84 37.8C34.84 37.6933 34.52 37.0267 33.88 35.8C33.6667 35.64 33.0267 35.24 31.96 34.6L29.64 33.88ZM13.08 24.68L17.56 24.04L23.32 23.64L26.36 24.04C26.5733 24.2533 27.08 24.3867 27.88 24.44C29.4267 24.3867 31.5067 25.2667 34.12 27.08C34.76 27.2933 35.2933 27.6667 35.72 28.2L38.76 31.88C38.8667 31.9867 39.0267 32.28 39.24 32.76C39.4533 33.1867 39.7467 33.6933 40.12 34.28C40.0133 34.28 40.0933 34.4933 40.36 34.92C41.0533 36.0933 41.3733 36.7867 41.32 37C41.5867 37.2133 41.8533 37.9067 42.12 39.08C42.3867 40.2533 42.4667 41.0533 42.36 41.48C42.4133 41.5333 42.36 42.1467 42.2 43.32C41.8267 45.88 41.16 47.7733 40.2 49L39.16 50.92L37.4 53.48L36.36 54.44C34.44 56.5733 32.0933 58.2267 29.32 59.4C29.2133 59.4533 29.0533 59.5067 28.84 59.56L26.92 60.2L23.8 61C23.8 62.5467 23.9867 66.12 24.36 71.72C24.5733 73.64 24.7333 74.7067 24.84 74.92C24.84 76.68 24.7333 77.8533 24.52 78.44C24.3067 79.08 23.96 79.5333 23.48 79.8C23 80.12 22.1733 80.3067 21 80.36C20.68 80.4667 20.12 80.36 19.32 80.04C18.52 79.7733 17.88 79.3467 17.4 78.76L16.92 76.2C17.0267 76.0933 16.8667 75.5867 16.44 74.68C16.0667 74.2533 15.7733 73.5067 15.56 72.44L15 64.84L14.92 62.28C11.8267 62.4933 9.96 61.64 9.32 59.72C8.78667 58.7067 8.68 58.04 9 57.72L9.4 56.68C10.04 55.6667 11.2667 55.16 13.08 55.16H14.76C14.6533 55.0533 14.6 54.68 14.6 54.04L14.28 50.68V49.24L14.2 48.2C14.2533 47.72 14.2267 47.1867 14.12 46.6V46.12L13.96 44.12V42.6L13.88 41.8C13.88 38.0133 13.6667 35.6133 13.24 34.6C11.48 35.6133 10.3067 36.1733 9.72 36.28C9.13333 36.3333 8.14667 35.9333 6.76 35.08C6.17333 34.6 5.85333 34.0667 5.8 33.48C4.84 32.1467 4.52 31.0533 4.84 30.2C4.94667 29.7733 5.37333 29.1067 6.12 28.2C6.17333 27.9867 6.81333 27.5067 8.04 26.76C9 25.8 10.68 25.1067 13.08 24.68Z" fill="#0E2643"/>
<path d="M29.64 33.88L29.1403 34.7462L29.237 34.802L29.3436 34.8351L29.64 33.88ZM21.56 32.68V31.68H20.4586L20.5647 32.7763L21.56 32.68ZM22.04 37.64L21.0447 37.7363L21.0471 37.7615L21.0508 37.7865L22.04 37.64ZM23.16 53.8L22.1608 53.8405L22.2093 55.0357L23.3769 54.7762L23.16 53.8ZM24.12 53.4L23.52 52.6L23.4631 52.6426L23.4129 52.6929L24.12 53.4ZM25.48 52.92V53.92H25.5939L25.7049 53.8944L25.48 52.92ZM27.48 51.48L26.8398 50.7118L26.7622 50.7764L26.6991 50.8553L27.48 51.48ZM31.16 48.12L31.8882 48.8054L31.9019 48.7908L31.915 48.7757L31.16 48.12ZM33.8 45.08L33.4838 44.1313L33.2243 44.2178L33.045 44.4243L33.8 45.08ZM34.6 43.32L35.5488 43.6363L35.5529 43.6232L34.6 43.32ZM35.32 40.44L36.31 40.5814L36.32 40.5111V40.44H35.32ZM34.84 37.8H33.84V38.3352L34.2853 38.6321L34.84 37.8ZM33.88 35.8L34.7666 35.3374L34.6616 35.1362L34.48 35L33.88 35.8ZM31.96 34.6L32.4745 33.7425L32.3713 33.6806L32.2564 33.6449L31.96 34.6ZM13.08 24.68L12.9386 23.69L12.9217 23.6925L12.905 23.6954L13.08 24.68ZM17.56 24.04L17.4907 23.0424L17.4545 23.0449L17.4186 23.05L17.56 24.04ZM23.32 23.64L23.4505 22.6485L23.3509 22.6354L23.2507 22.6424L23.32 23.64ZM26.36 24.04L27.0671 23.3329L26.827 23.0928L26.4905 23.0485L26.36 24.04ZM27.88 24.44L27.8135 25.4378L27.8639 25.4411L27.9145 25.4394L27.88 24.44ZM34.12 27.08L33.5499 27.9016L33.6677 27.9833L33.8038 28.0287L34.12 27.08ZM35.72 28.2L34.9391 28.8247L34.944 28.8308L34.949 28.8369L35.72 28.2ZM38.76 31.88L37.989 32.5169L38.0193 32.5535L38.0529 32.5871L38.76 31.88ZM39.24 32.76L38.3262 33.1661L38.3354 33.1869L38.3456 33.2072L39.24 32.76ZM40.12 34.28V35.28H41.9417L40.9637 33.7431L40.12 34.28ZM40.36 34.92L41.2209 34.4113L41.2146 34.4006L41.208 34.39L40.36 34.92ZM41.32 37L40.3499 36.7575L40.1942 37.38L40.6953 37.7809L41.32 37ZM42.12 39.08L43.0951 38.8584L43.0951 38.8584L42.12 39.08ZM42.36 41.48L41.3899 41.2375L41.2525 41.7867L41.6529 42.1871L42.36 41.48ZM42.2 43.32L43.1896 43.4643L43.1908 43.4551L42.2 43.32ZM40.2 49L39.4125 48.3837L39.3607 48.4498L39.3207 48.5237L40.2 49ZM39.16 50.92L39.984 51.4865L40.0141 51.4429L40.0393 51.3963L39.16 50.92ZM37.4 53.48L38.0783 54.2148L38.1606 54.1388L38.224 54.0465L37.4 53.48ZM36.36 54.44L35.6817 53.7052L35.6477 53.7366L35.6167 53.771L36.36 54.44ZM29.32 59.4L28.9304 58.479L28.9012 58.4914L28.8728 58.5056L29.32 59.4ZM28.84 59.56L28.5975 58.5899L28.5602 58.5992L28.5238 58.6113L28.84 59.56ZM26.92 60.2L27.1684 61.1687L27.2027 61.1599L27.2362 61.1487L26.92 60.2ZM23.8 61L23.5516 60.0313L22.8 60.2241V61H23.8ZM24.36 71.72L23.3622 71.7865L23.3637 71.8085L23.3661 71.8304L24.36 71.72ZM24.84 74.92H25.84V74.6839L25.7344 74.4728L24.84 74.92ZM24.52 78.44L23.5802 78.0983L23.5756 78.111L23.5713 78.1238L24.52 78.44ZM23.48 79.8L22.9944 78.9258L22.959 78.9455L22.9253 78.968L23.48 79.8ZM21 80.36L20.9546 79.361L20.8157 79.3673L20.6838 79.4113L21 80.36ZM19.32 80.04L19.6914 79.1115L19.6641 79.1006L19.6362 79.0913L19.32 80.04ZM17.4 78.76L16.4171 78.9443L16.4642 79.1955L16.626 79.3932L17.4 78.76ZM16.92 76.2L16.2129 75.4929L15.8399 75.8659L15.9371 76.3843L16.92 76.2ZM16.44 74.68L17.3448 74.2542L17.285 74.1272L17.1926 74.0215L16.44 74.68ZM15.56 72.44L14.5627 72.5135L14.5673 72.5753L14.5794 72.6361L15.56 72.44ZM15 64.84L14.0005 64.8712L14.0011 64.8924L14.0027 64.9135L15 64.84ZM14.92 62.28L15.9195 62.2488L15.8871 61.2109L14.8512 61.2824L14.92 62.28ZM9.32 59.72L10.2687 59.4038L10.2429 59.3264L10.2049 59.2543L9.32 59.72ZM9 57.72L9.70711 58.4271L9.85717 58.277L9.93335 58.079L9 57.72ZM9.4 56.68L8.55451 56.146L8.50197 56.2292L8.46665 56.321L9.4 56.68ZM14.76 55.16V56.16H17.1742L15.4671 54.4529L14.76 55.16ZM14.6 54.04H15.6V53.9925L15.5955 53.9452L14.6 54.04ZM14.28 50.68H13.28V50.7275L13.2845 50.7748L14.28 50.68ZM14.28 49.24H15.28V49.2016L15.2771 49.1633L14.28 49.24ZM14.2 48.2L13.2061 48.0896L13.1957 48.183L13.2029 48.2767L14.2 48.2ZM14.12 46.6H13.12V46.6902L13.1361 46.7789L14.12 46.6ZM14.12 46.12H15.12V46.0801L15.1168 46.0403L14.12 46.12ZM13.96 44.12H12.96V44.1599L12.9632 44.1997L13.96 44.12ZM13.96 42.6H14.96V42.5501L14.955 42.5005L13.96 42.6ZM13.88 41.8H12.88V41.8499L12.885 41.8995L13.88 41.8ZM13.24 34.6L14.1616 34.2119L13.7223 33.1684L12.741 33.7334L13.24 34.6ZM9.72 36.28L9.81053 37.2759L9.85498 37.2719L9.89889 37.2639L9.72 36.28ZM6.76 35.08L6.12676 35.854L6.17872 35.8965L6.2359 35.9317L6.76 35.08ZM5.8 33.48L6.79589 33.3895L6.77116 33.1174L6.61153 32.8957L5.8 33.48ZM4.84 30.2L5.77633 30.5511L5.79633 30.4978L5.81014 30.4425L4.84 30.2ZM6.12 28.2L6.89193 28.8357L7.0354 28.6615L7.09014 28.4425L6.12 28.2ZM8.04 26.76L8.55995 27.6142L8.66234 27.5519L8.74711 27.4671L8.04 26.76ZM30.1397 33.0138C29.2871 32.5219 28.1231 32.1982 26.7269 31.9908C25.3148 31.7811 23.5886 31.68 21.56 31.68V33.68C23.5314 33.68 25.1519 33.7789 26.4331 33.9691C27.7302 34.1618 28.6062 34.4381 29.1403 34.7462L30.1397 33.0138ZM20.5647 32.7763L21.0447 37.7363L23.0354 37.5437L22.5554 32.5837L20.5647 32.7763ZM21.0508 37.7865C21.4686 40.6064 21.8406 45.9423 22.1608 53.8405L24.1592 53.7595C23.8394 45.871 23.4648 40.4336 23.0292 37.4935L21.0508 37.7865ZM23.3769 54.7762C23.8707 54.6665 24.4469 54.4873 24.8271 54.1071L23.4129 52.6929C23.461 52.6448 23.4724 52.6565 23.3754 52.6969C23.2869 52.7338 23.1474 52.7784 22.9431 52.8238L23.3769 54.7762ZM24.72 54.2C24.9938 53.9946 25.2404 53.92 25.48 53.92V51.92C24.7596 51.92 24.0995 52.1654 23.52 52.6L24.72 54.2ZM25.7049 53.8944C26.6959 53.6657 27.5403 53.0054 28.2609 52.1047L26.6991 50.8553C26.1397 51.5546 25.6508 51.8543 25.2551 51.9456L25.7049 53.8944ZM28.1202 52.2482C29.7336 50.9037 30.995 49.7544 31.8882 48.8054L30.4318 47.4346C29.6183 48.299 28.4264 49.3896 26.8398 50.7118L28.1202 52.2482ZM31.915 48.7757L34.555 45.7357L33.045 44.4243L30.405 47.4643L31.915 48.7757ZM34.1162 46.0287C34.3436 45.9529 34.4949 45.8194 34.5721 45.7421C34.6578 45.6564 34.7238 45.5671 34.7721 45.4947C34.8685 45.3501 34.9542 45.1815 35.0304 45.0138C35.1854 44.6726 35.3584 44.207 35.5487 43.6362L33.6513 43.0038C33.4682 43.553 33.3212 43.9407 33.2096 44.1862C33.1525 44.3119 33.1182 44.3699 33.108 44.3853C33.1029 44.3929 33.1188 44.3669 33.1579 44.3279C33.1885 44.2973 33.2964 44.1938 33.4838 44.1313L34.1162 46.0287ZM35.5529 43.6232C35.934 42.4256 36.1921 41.4063 36.31 40.5814L34.3301 40.2986C34.2346 40.9671 34.0127 41.8677 33.6471 43.0168L35.5529 43.6232ZM36.32 40.44C36.32 39.6432 36.2796 38.9676 36.1839 38.4411C36.1361 38.1783 36.0684 37.917 35.9656 37.683C35.868 37.4605 35.6987 37.1706 35.3947 36.9679L34.2853 38.6321C34.1413 38.536 34.112 38.4362 34.1344 38.487C34.1516 38.5263 34.1839 38.6216 34.2161 38.7989C34.2804 39.1524 34.32 39.6901 34.32 40.44H36.32ZM35.84 37.8C35.84 37.6116 35.7854 37.4536 35.7762 37.4252C35.7548 37.3591 35.7288 37.2925 35.704 37.2326C35.6536 37.1109 35.5845 36.96 35.5015 36.7873C35.3342 36.4387 35.0881 35.9537 34.7666 35.3374L32.9934 36.2626C33.3119 36.8729 33.5458 37.3346 33.6985 37.6527C33.7755 37.8133 33.8264 37.9258 33.856 37.9974C33.8712 38.0342 33.8752 38.0467 33.8738 38.0423C33.873 38.04 33.8673 38.0224 33.8609 37.9943C33.8567 37.9756 33.84 37.9014 33.84 37.8H35.84ZM34.48 35C34.2151 34.8013 33.5201 34.3699 32.4745 33.7425L31.4455 35.4575C32.5332 36.1101 33.1183 36.4787 33.28 36.6L34.48 35ZM32.2564 33.6449L29.9364 32.9249L29.3436 34.8351L31.6636 35.5551L32.2564 33.6449ZM13.2214 25.6699L17.7014 25.0299L17.4186 23.05L12.9386 23.69L13.2214 25.6699ZM17.6293 25.0376L23.3893 24.6376L23.2507 22.6424L17.4907 23.0424L17.6293 25.0376ZM23.1895 24.6314L26.2295 25.0314L26.4905 23.0485L23.4505 22.6485L23.1895 24.6314ZM25.6529 24.7471C25.9461 25.0403 26.3309 25.1843 26.6455 25.2671C26.9836 25.356 27.3796 25.4089 27.8135 25.4378L27.9465 23.4422C27.5804 23.4178 27.323 23.3773 27.1545 23.3329C26.9624 23.2824 26.9872 23.253 27.0671 23.3329L25.6529 24.7471ZM27.9145 25.4394C29.1133 25.3981 30.9595 26.1042 33.5499 27.9016L34.6901 26.2584C32.0538 24.4291 29.74 23.3753 27.8455 23.4406L27.9145 25.4394ZM33.8038 28.0287C34.2585 28.1803 34.6313 28.4399 34.9391 28.8247L36.5009 27.5753C35.9554 26.8934 35.2615 26.4064 34.4362 26.1313L33.8038 28.0287ZM34.949 28.8369L37.989 32.5169L39.531 31.2431L36.491 27.5631L34.949 28.8369ZM38.0529 32.5871C38.014 32.5482 38.0024 32.5264 38.018 32.5497C38.03 32.5677 38.0513 32.6023 38.0821 32.6589C38.144 32.7724 38.2251 32.9386 38.3262 33.1661L40.1538 32.3539C40.0416 32.1014 39.936 31.881 39.8379 31.7011C39.7538 31.547 39.63 31.3357 39.4671 31.1729L38.0529 32.5871ZM38.3456 33.2072C38.5795 33.675 38.8921 34.213 39.2763 34.8169L40.9637 33.7431C40.6013 33.1736 40.3272 32.6983 40.1344 32.3128L38.3456 33.2072ZM40.12 33.28C39.9436 33.28 39.668 33.326 39.4244 33.5426C39.1818 33.7582 39.1042 34.0245 39.0827 34.196C39.047 34.4817 39.1369 34.7198 39.1637 34.7911C39.2415 34.9986 39.3752 35.2311 39.512 35.45L41.208 34.39C41.1485 34.2948 41.1048 34.2201 41.0743 34.1637C41.0416 34.1033 41.0336 34.0817 41.0363 34.0889C41.0379 34.093 41.0483 34.1208 41.0577 34.166C41.0656 34.2038 41.0844 34.3068 41.0673 34.444C41.0492 34.5888 40.9807 34.8351 40.7531 35.0374C40.5245 35.2407 40.2697 35.28 40.12 35.28V33.28ZM39.4991 35.4287C39.8396 36.005 40.0731 36.4379 40.212 36.7391C40.2824 36.8915 40.3168 36.9852 40.3306 37.0322C40.3374 37.0552 40.3333 37.0473 40.3296 37.0166C40.327 36.9944 40.3157 36.8942 40.3499 36.7575L42.2901 37.2425C42.3737 36.9082 42.2874 36.5973 42.2494 36.4678C42.1965 36.2881 42.1176 36.0952 42.028 35.9009C41.8469 35.5087 41.5737 35.0083 41.2209 34.4113L39.4991 35.4287ZM40.6953 37.7809C40.6298 37.7285 40.6234 37.6981 40.6581 37.757C40.6882 37.8082 40.7323 37.8978 40.7867 38.039C40.8956 38.3222 41.0165 38.7369 41.1449 39.3016L43.0951 38.8584C42.9568 38.2498 42.8111 37.7311 42.6533 37.321C42.5149 36.9612 42.3042 36.5067 41.9447 36.2191L40.6953 37.7809ZM41.1449 39.3016C41.2731 39.8657 41.3505 40.3153 41.385 40.6595C41.4214 41.0235 41.401 41.1929 41.3899 41.2375L43.3301 41.7225C43.4257 41.3404 43.4186 40.8965 43.375 40.4605C43.3295 40.0047 43.2336 39.4676 43.0951 38.8584L41.1449 39.3016ZM41.6529 42.1871C41.4911 42.0253 41.4334 41.854 41.4175 41.8051C41.3952 41.7363 41.3872 41.6831 41.3844 41.6629C41.3786 41.6211 41.38 41.6019 41.38 41.625C41.38 41.6647 41.3763 41.7491 41.3638 41.8934C41.3393 42.1752 41.2886 42.6025 41.2092 43.1849L43.1908 43.4551C43.2714 42.8641 43.3274 42.3981 43.3562 42.0666C43.3704 41.9042 43.38 41.7519 43.38 41.625C43.38 41.5647 43.378 41.4797 43.3656 41.3896C43.3595 41.3452 43.3473 41.2722 43.32 41.1881C43.2991 41.1237 43.2355 40.9413 43.0671 40.7729L41.6529 42.1871ZM41.2105 43.1757C40.8475 45.6645 40.2162 47.3567 39.4125 48.3837L40.9875 49.6163C42.1038 48.1899 42.8058 46.0955 43.1895 43.4643L41.2105 43.1757ZM39.3207 48.5237L38.2807 50.4437L40.0393 51.3963L41.0793 49.4763L39.3207 48.5237ZM38.336 50.3535L36.576 52.9135L38.224 54.0465L39.984 51.4865L38.336 50.3535ZM36.7217 52.7452L35.6817 53.7052L37.0383 55.1748L38.0783 54.2148L36.7217 52.7452ZM35.6167 53.771C33.7995 55.7901 31.5756 57.3599 28.9304 58.479L29.7096 60.321C32.6111 59.0934 35.0805 57.3565 37.1033 55.109L35.6167 53.771ZM28.8728 58.5056C28.8751 58.5044 28.8557 58.514 28.8038 58.5313C28.754 58.5479 28.6863 58.5677 28.5975 58.5899L29.0825 60.5301C29.318 60.4713 29.562 60.397 29.7672 60.2944L28.8728 58.5056ZM28.5238 58.6113L26.6038 59.2513L27.2362 61.1487L29.1562 60.5087L28.5238 58.6113ZM26.6716 59.2313L23.5516 60.0313L24.0484 61.9687L27.1684 61.1687L26.6716 59.2313ZM22.8 61C22.8 62.5869 22.9896 66.1967 23.3622 71.7865L25.3578 71.6535C24.9838 66.0433 24.8 62.5064 24.8 61H22.8ZM23.3661 71.8304C23.4733 72.7949 23.5683 73.5563 23.6511 74.1083C23.6923 74.3834 23.7322 74.6176 23.771 74.804C23.8015 74.9505 23.8525 75.1811 23.9456 75.3672L25.7344 74.4728C25.7741 74.5522 25.7651 74.5695 25.729 74.396C25.7011 74.2624 25.6677 74.07 25.6289 73.8117C25.5517 73.2971 25.4601 72.5651 25.3539 71.6096L23.3661 71.8304ZM23.84 74.92C23.84 75.783 23.8137 76.4837 23.7641 77.0295C23.713 77.5919 23.6419 77.9285 23.5802 78.0983L25.4598 78.7817C25.6114 78.3648 25.7004 77.8214 25.7559 77.2105C25.8129 76.583 25.84 75.817 25.84 74.92H23.84ZM23.5713 78.1238C23.4181 78.5833 23.2083 78.807 22.9944 78.9258L23.9656 80.6742C24.7117 80.2597 25.1952 79.5767 25.4687 78.7562L23.5713 78.1238ZM22.9253 78.968C22.687 79.1268 22.099 79.309 20.9546 79.361L21.0454 81.359C22.2477 81.3043 23.313 81.1132 24.0347 80.632L22.9253 78.968ZM20.6838 79.4113C20.762 79.3853 20.7411 79.4184 20.5271 79.3777C20.3333 79.3408 20.0587 79.2585 19.6914 79.1115L18.9486 80.9685C19.3813 81.1415 19.7867 81.2726 20.1529 81.3423C20.4989 81.4082 20.918 81.4414 21.3162 81.3087L20.6838 79.4113ZM19.6362 79.0913C18.9947 78.8775 18.5211 78.551 18.174 78.1268L16.626 79.3932C17.2389 80.1423 18.0453 80.6692 19.0038 80.9887L19.6362 79.0913ZM18.3829 78.5757L17.9029 76.0157L15.9371 76.3843L16.4171 78.9443L18.3829 78.5757ZM17.6271 76.9071C17.8272 76.707 17.9008 76.4782 17.9293 76.3313C17.958 76.1829 17.9543 76.0506 17.9462 75.9584C17.9303 75.7749 17.8822 75.5928 17.8336 75.4389C17.7331 75.1207 17.5637 74.7192 17.3448 74.2542L15.5352 75.1058C15.743 75.5474 15.8669 75.8526 15.9264 76.0411C15.9578 76.1405 15.9564 76.1617 15.9538 76.1316C15.9524 76.116 15.947 76.0479 15.9657 75.9512C15.9842 75.856 16.0395 75.6663 16.2129 75.4929L17.6271 76.9071ZM17.1926 74.0215C16.9984 73.7996 16.7458 73.2702 16.5406 72.2439L14.5794 72.6361C14.8008 73.7432 15.1349 74.707 15.6874 75.3385L17.1926 74.0215ZM16.5573 72.3665L15.9973 64.7665L14.0027 64.9135L14.5627 72.5135L16.5573 72.3665ZM15.9995 64.8088L15.9195 62.2488L13.9205 62.3112L14.0005 64.8712L15.9995 64.8088ZM14.8512 61.2824C13.3928 61.3829 12.3394 61.2213 11.6158 60.8905C10.9306 60.5773 10.4996 60.0965 10.2687 59.4038L8.37132 60.0362C8.78041 61.2635 9.60274 62.1694 10.7842 62.7095C11.9272 63.232 13.3538 63.3904 14.9888 63.2776L14.8512 61.2824ZM10.2049 59.2543C9.95882 58.7867 9.85569 58.4786 9.82744 58.302C9.79872 58.1225 9.86954 58.2647 9.70711 58.4271L8.29289 57.0129C7.81046 57.4953 7.77461 58.1308 7.85256 58.618C7.93097 59.1081 8.14785 59.64 8.43508 60.1857L10.2049 59.2543ZM9.93335 58.079L10.3333 57.039L8.46665 56.321L8.06665 57.361L9.93335 58.079ZM10.2455 57.214C10.6206 56.62 11.4222 56.16 13.08 56.16V54.16C11.1111 54.16 9.45938 54.7133 8.55451 56.146L10.2455 57.214ZM13.08 56.16H14.76V54.16H13.08V56.16ZM15.4671 54.4529C15.5399 54.5257 15.5817 54.5939 15.603 54.6334C15.6249 54.6742 15.6354 54.7038 15.6387 54.7138C15.6444 54.731 15.6385 54.7184 15.6299 54.6586C15.613 54.5399 15.6 54.3404 15.6 54.04H13.6C13.6 54.3796 13.6137 54.6868 13.6501 54.9414C13.6682 55.0683 13.6956 55.209 13.7413 55.3462C13.7813 55.4663 13.866 55.6802 14.0529 55.8671L15.4671 54.4529ZM15.5955 53.9452L15.2755 50.5852L13.2845 50.7748L13.6045 54.1348L15.5955 53.9452ZM15.28 50.68V49.24H13.28V50.68H15.28ZM15.2771 49.1633L15.1971 48.1233L13.2029 48.2767L13.2829 49.3167L15.2771 49.1633ZM15.1939 48.3104C15.2601 47.7145 15.224 47.0818 15.1039 46.4211L13.1361 46.7789C13.2293 47.2915 13.2466 47.7255 13.2061 48.0896L15.1939 48.3104ZM15.12 46.6V46.12H13.12V46.6H15.12ZM15.1168 46.0403L14.9568 44.0403L12.9632 44.1997L13.1232 46.1997L15.1168 46.0403ZM14.96 44.12V42.6H12.96V44.12H14.96ZM14.955 42.5005L14.875 41.7005L12.885 41.8995L12.965 42.6995L14.955 42.5005ZM14.88 41.8C14.88 39.8917 14.8264 38.3125 14.7161 37.0715C14.6085 35.8612 14.4399 34.8729 14.1616 34.2119L12.3184 34.9881C12.4667 35.3404 12.6182 36.0588 12.7239 37.2485C12.8269 38.4074 12.88 39.9216 12.88 41.8H14.88ZM12.741 33.7334C11.8725 34.2335 11.1637 34.6129 10.6093 34.8775C10.0314 35.1533 9.69391 35.2683 9.54111 35.2961L9.89889 37.2639C10.3328 37.185 10.8753 36.9667 11.4707 36.6825C12.0897 36.3871 12.8475 35.9799 13.739 35.4666L12.741 33.7334ZM9.62947 35.2841C9.57624 35.2889 9.36251 35.2744 8.91571 35.0933C8.49322 34.922 7.95211 34.6394 7.2841 34.2283L6.2359 35.9317C6.95455 36.3739 7.60011 36.718 8.16429 36.9467C8.70415 37.1656 9.27709 37.3244 9.81053 37.2759L9.62947 35.2841ZM7.39324 34.306C6.95178 33.9448 6.81849 33.638 6.79589 33.3895L4.80411 33.5705C4.88818 34.4953 5.39488 35.2551 6.12676 35.854L7.39324 34.306ZM6.61153 32.8957C5.69395 31.6213 5.64273 30.9074 5.77633 30.5511L3.90367 29.8489C3.39727 31.1993 3.98605 32.6721 4.98847 34.0643L6.61153 32.8957ZM5.81014 30.4425C5.82408 30.3868 5.88849 30.2218 6.08227 29.9191C6.26652 29.6312 6.53308 29.2715 6.89193 28.8357L5.34807 27.5643C4.96025 28.0352 4.64014 28.4622 4.39773 28.8409C4.16484 29.2048 3.96258 29.5866 3.86986 29.9575L5.81014 30.4425ZM7.09014 28.4425C7.05414 28.5865 6.99258 28.6729 6.98123 28.6887C6.96393 28.713 6.95781 28.7164 6.97711 28.6971C7.01613 28.6581 7.09742 28.5869 7.24 28.48C7.5216 28.2688 7.95623 27.9817 8.55995 27.6142L7.52005 25.9058C6.8971 26.285 6.3984 26.6112 6.04 26.88C5.86258 27.0131 5.69721 27.1486 5.56289 27.2829C5.47014 27.3756 5.23566 27.6143 5.14986 27.9575L7.09014 28.4425ZM8.74711 27.4671C9.48674 26.7275 10.9165 26.0803 13.255 25.6646L12.905 23.6954C10.4435 24.133 8.51326 24.8725 7.33289 26.0529L8.74711 27.4671Z" fill="#0E2643"/>
</g>
<g filter="url(#filter1_d_157_14)">
<path d="M50.2 92.4C50.3067 92.2933 50.92 92.1867 52.04 92.08C53.2133 91.92 54.5733 91.44 56.12 90.64C56.1733 90.64 56.1467 90 56.04 88.72C55.88 86.48 55.7467 84.88 55.64 83.92C55.5333 82.64 55.4267 81.7333 55.32 81.2C55.32 80.1867 54.92 78.08 54.12 74.88L50.6 86.8C49.8533 90.1067 49.56 92.1333 49.72 92.88L50.2 92.4ZM39.4 94.72L39.88 91.2C39.88 90.5067 39.9867 89.8133 40.2 89.12C40.2 88.2133 40.6533 86.8533 41.56 85.04C41.56 84.9333 41.8 84.24 42.28 82.96C42.28 82.8533 42.7867 81.28 43.8 78.24L44.76 75.92C44.76 75.7067 44.8933 75.3067 45.16 74.72C45.4267 74.08 45.6133 73.4667 45.72 72.88C45.88 72.24 46.0667 71.6267 46.28 71.04C47.0267 69.6 47.6933 68.3733 48.28 67.36C49.4 65.2267 51.48 64.2667 54.52 64.48L57.08 64.72C58.68 65.1467 59.9067 65.6 60.76 66.08C61.9867 66.56 62.8133 67.0933 63.24 67.68C63.6667 68.2133 63.8533 69.12 63.8 70.4C63.8533 71.04 64.0133 73.8133 64.28 78.72C64.5467 83.6267 64.68 86.1067 64.68 86.16L65.08 89.6C65.08 89.92 65.6667 93.76 66.84 101.12L68.6 106.72C69.6667 109.707 70.2267 111.28 70.28 111.44C70.3867 111.547 70.6267 112.107 71 113.12C71.5867 114.88 71.08 116.053 69.48 116.64C68.04 116.853 66.9733 116.72 66.28 116.24C66.0133 116.24 65.4 116 64.44 115.52C64.3333 115.253 64.0133 114.987 63.48 114.72C63 114.507 62.68 114.32 62.52 114.16C61.9333 114 61.4 113.173 60.92 111.68C60.76 111.573 60.4667 111.147 60.04 110.4C59.6667 109.653 59.56 109.04 59.72 108.56C59.3467 108.08 59.16 107.093 59.16 105.6C58.68 104.8 58.44 103.547 58.44 101.84C58.44 100.133 58.1733 98.8 57.64 97.84C54.92 99.0667 52.0133 99.7333 48.92 99.84C48.3333 99.84 48.04 99.9467 48.04 100.16C48.04 100.64 47.88 101.493 47.56 102.72L46.2 111.52C46.7333 115.467 46.2533 117.547 44.76 117.76C44.3333 117.76 43.6133 117.867 42.6 118.08C41.64 118.293 40.84 118.107 40.2 117.52C38.9733 116.827 38.0933 116.107 37.56 115.36C37.08 114.667 36.8667 113.867 36.92 112.96C36.9733 112.213 37.1067 110.613 37.32 108.16C37.4267 108.053 37.4533 107.467 37.4 106.4C37.4 105.28 37.48 104.427 37.64 103.84L38.92 98.88C39.08 98.7733 39.2933 97.9733 39.56 96.48C39.5067 96.3733 39.48 96.1067 39.48 95.68L39.4 94.72Z" fill="#FF57BB"/>
<path d="M50.2 92.4L50.9071 93.1071L50.9071 93.1071L50.2 92.4ZM52.04 92.08L52.1348 93.0755L52.155 93.0736L52.1751 93.0708L52.04 92.08ZM56.12 90.64V89.64H55.8767L55.6606 89.7518L56.12 90.64ZM56.04 88.72L55.0425 88.7913L55.0435 88.803L56.04 88.72ZM55.64 83.92L54.6435 84.003L54.6446 84.0168L54.6461 84.0304L55.64 83.92ZM55.32 81.2H54.32V81.299L54.3394 81.3961L55.32 81.2ZM54.12 74.88L55.0901 74.6375L54.2002 71.0776L53.1609 74.5968L54.12 74.88ZM50.6 86.8L49.6409 86.5168L49.6317 86.548L49.6246 86.5797L50.6 86.8ZM49.72 92.88L48.7422 93.0895L49.1273 94.8869L50.4271 93.5871L49.72 92.88ZM39.4 94.72L38.4092 94.5849L38.3943 94.6937L38.4035 94.803L39.4 94.72ZM39.88 91.2L40.8708 91.3351L40.88 91.2679V91.2H39.88ZM40.2 89.12L41.1558 89.4141L41.2 89.2704V89.12H40.2ZM41.56 85.04L42.4544 85.4872L42.56 85.2761V85.04H41.56ZM42.28 82.96L43.2163 83.3111L43.28 83.1413V82.96H42.28ZM43.8 78.24L42.876 77.8576L42.8625 77.8903L42.8513 77.9238L43.8 78.24ZM44.76 75.92L45.684 76.3024L45.76 76.1187V75.92H44.76ZM45.16 74.72L46.0704 75.1338L46.077 75.1193L46.0831 75.1046L45.16 74.72ZM45.72 72.88L44.7499 72.6375L44.742 72.6691L44.7361 72.7011L45.72 72.88ZM46.28 71.04L45.3922 70.5797L45.3624 70.6373L45.3402 70.6983L46.28 71.04ZM48.28 67.36L49.1454 67.861L49.1558 67.8431L49.1654 67.8248L48.28 67.36ZM54.52 64.48L54.6133 63.4844L54.6017 63.4833L54.59 63.4825L54.52 64.48ZM57.08 64.72L57.3377 63.7538L57.2567 63.7322L57.1733 63.7244L57.08 64.72ZM60.76 66.08L60.2697 66.9516L60.3306 66.9858L60.3956 67.0112L60.76 66.08ZM63.24 67.68L62.4313 68.2682L62.4448 68.2867L62.4591 68.3047L63.24 67.68ZM63.8 70.4L62.8009 70.3584L62.7983 70.4208L62.8035 70.483L63.8 70.4ZM64.28 78.72L63.2815 78.7743L63.2815 78.7743L64.28 78.72ZM64.68 86.16H63.68V86.2179L63.6867 86.2755L64.68 86.16ZM65.08 89.6H66.08V89.5421L66.0733 89.4845L65.08 89.6ZM66.84 101.12L65.8525 101.277L65.864 101.35L65.886 101.42L66.84 101.12ZM68.6 106.72L67.646 107.02L67.6518 107.038L67.6583 107.056L68.6 106.72ZM70.28 111.44L69.3313 111.756L69.406 111.98L69.5729 112.147L70.28 111.44ZM71 113.12L71.9487 112.804L71.9437 112.789L71.9383 112.774L71 113.12ZM69.48 116.64L69.6266 117.629L69.728 117.614L69.8243 117.579L69.48 116.64ZM66.28 116.24L66.8492 115.418L66.5924 115.24H66.28V116.24ZM64.44 115.52L63.5115 115.891L63.6527 116.244L63.9928 116.414L64.44 115.52ZM63.48 114.72L63.9272 113.826L63.9069 113.815L63.8861 113.806L63.48 114.72ZM62.52 114.16L63.2271 113.453L63.0393 113.265L62.7831 113.195L62.52 114.16ZM60.92 111.68L61.872 111.374L61.7652 111.042L61.4747 110.848L60.92 111.68ZM60.04 110.4L59.1456 110.847L59.158 110.872L59.1718 110.896L60.04 110.4ZM59.72 108.56L60.6687 108.876L60.8379 108.369L60.5094 107.946L59.72 108.56ZM59.16 105.6H60.16V105.323L60.0175 105.086L59.16 105.6ZM57.64 97.84L58.5142 97.3544L58.0674 96.5502L57.2289 96.9284L57.64 97.84ZM48.92 99.84V100.84H48.9372L48.9545 100.839L48.92 99.84ZM47.56 102.72L46.5924 102.468L46.5795 102.517L46.5717 102.567L47.56 102.72ZM46.2 111.52L45.2117 111.367L45.1896 111.51L45.209 111.654L46.2 111.52ZM44.76 117.76V118.76H44.8311L44.9014 118.75L44.76 117.76ZM42.6 118.08L42.394 117.101L42.3831 117.104L42.6 118.08ZM40.2 117.52L40.8757 116.783L40.7915 116.706L40.6921 116.649L40.2 117.52ZM37.56 115.36L36.7378 115.929L36.742 115.935L36.7463 115.941L37.56 115.36ZM36.92 112.96L35.9225 112.889L35.9217 112.901L36.92 112.96ZM37.32 108.16L36.6129 107.453L36.3553 107.71L36.3238 108.073L37.32 108.16ZM37.4 106.4H36.4V106.425L36.4012 106.45L37.4 106.4ZM37.64 103.84L38.6049 104.103L38.6083 104.09L37.64 103.84ZM38.92 98.88L38.3653 98.0479L38.0472 98.26L37.9517 98.6301L38.92 98.88ZM39.56 96.48L40.5444 96.6558L40.6027 96.3294L40.4544 96.0328L39.56 96.48ZM39.48 95.68H40.48V95.6384L40.4765 95.597L39.48 95.68ZM50.9071 93.1071C50.7972 93.217 50.6937 93.263 50.6795 93.2695C50.6514 93.2823 50.6405 93.2843 50.6591 93.2788C50.6959 93.2679 50.7748 93.2489 50.9113 93.2252C51.1801 93.1785 51.5836 93.128 52.1348 93.0755L51.9452 91.0845C51.3764 91.1387 50.9132 91.1949 50.5687 91.2548C50.3985 91.2844 50.2341 91.3188 50.0909 91.3612C50.0195 91.3824 49.9344 91.411 49.848 91.4505C49.7754 91.4837 49.6295 91.5563 49.4929 91.6929L50.9071 93.1071ZM52.1751 93.0708C53.5015 92.89 54.9745 92.3583 56.5794 91.5282L55.6606 89.7518C54.1721 90.5217 52.9252 90.95 51.9049 91.0892L52.1751 93.0708ZM56.12 91.64C56.6977 91.64 56.9591 91.1998 57.0084 91.1088C57.0803 90.976 57.1064 90.8563 57.1152 90.814C57.1366 90.7113 57.1419 90.6149 57.1441 90.5616C57.1493 90.4385 57.1461 90.2845 57.1391 90.1184C57.1249 89.7768 57.0901 89.28 57.0365 88.637L55.0435 88.803C55.0965 89.44 55.1284 89.9032 55.1409 90.2016C55.1473 90.3555 55.1474 90.4415 55.1459 90.4784C55.1448 90.5051 55.1442 90.4687 55.1573 90.406C55.1619 90.3837 55.1832 90.279 55.2498 90.1562C55.2937 90.0752 55.549 89.64 56.12 89.64V91.64ZM57.0375 88.6488C56.8774 86.4082 56.7429 84.7909 56.6339 83.8096L54.6461 84.0304C54.7504 84.9691 54.8826 86.5518 55.0425 88.7912L57.0375 88.6488ZM56.6365 83.837C56.5298 82.5561 56.4196 81.5988 56.3006 81.0039L54.3394 81.3961C54.4338 81.8679 54.5369 82.7239 54.6435 84.003L56.6365 83.837ZM56.32 81.2C56.32 80.0406 55.8831 77.8095 55.0901 74.6375L53.1499 75.1225C53.9569 78.3505 54.32 80.3327 54.32 81.2H56.32ZM53.1609 74.5968L49.6409 86.5168L51.5591 87.0832L55.0791 75.1632L53.1609 74.5968ZM49.6246 86.5797C49.2487 88.2444 48.9823 89.6064 48.8303 90.6568C48.6861 91.6531 48.6195 92.5168 48.7422 93.0895L50.6978 92.6705C50.6605 92.4966 50.6606 91.9736 50.8097 90.9432C50.951 89.967 51.2047 88.6623 51.5754 87.0203L49.6246 86.5797ZM50.4271 93.5871L50.9071 93.1071L49.4929 91.6929L49.0129 92.1729L50.4271 93.5871ZM40.3908 94.8551L40.8708 91.3351L38.8892 91.0649L38.4092 94.5849L40.3908 94.8551ZM40.88 91.2C40.88 90.6109 40.9704 90.0166 41.1558 89.4141L39.2442 88.8259C39.0029 89.6101 38.88 90.4024 38.88 91.2H40.88ZM41.2 89.12C41.2 88.4682 41.5517 87.2927 42.4544 85.4872L40.6656 84.5928C39.755 86.414 39.2 87.9585 39.2 89.12H41.2ZM42.56 85.04C42.56 85.1561 42.5364 85.2363 42.5443 85.203C42.5454 85.1982 42.5505 85.1783 42.5628 85.1373C42.5869 85.057 42.6267 84.9355 42.685 84.7671C42.8008 84.4326 42.9772 83.9487 43.2163 83.3111L41.3437 82.6089C41.1028 83.2513 40.9192 83.7541 40.795 84.1129C40.7333 84.2912 40.6831 84.443 40.6472 84.5627C40.6295 84.6217 40.6121 84.6834 40.5982 84.742C40.5911 84.7721 40.56 84.8972 40.56 85.04H42.56ZM43.28 82.96C43.28 83.037 43.2704 83.0944 43.269 83.1034C43.2659 83.1223 43.2633 83.1346 43.2629 83.1362C43.2621 83.1397 43.2636 83.1326 43.2698 83.1098C43.2816 83.0656 43.3018 82.9952 43.3324 82.8937C43.393 82.6928 43.4858 82.3981 43.6119 82.0065C43.8636 81.2248 44.2423 80.0754 44.7487 78.5562L42.8513 77.9238C42.3444 79.4446 41.9631 80.6018 41.7081 81.3935C41.5809 81.7885 41.4837 82.0972 41.4176 82.3163C41.3849 82.4248 41.3576 82.5185 41.3377 82.5927C41.328 82.629 41.3177 82.6697 41.309 82.7094C41.3077 82.7154 41.28 82.8295 41.28 82.96H43.28ZM44.724 78.6223L45.684 76.3024L43.836 75.5376L42.876 77.8576L44.724 78.6223ZM45.76 75.92C45.76 75.9629 45.7543 75.9737 45.7622 75.9374C45.7691 75.9054 45.7831 75.8529 45.8087 75.7762C45.8601 75.6218 45.9448 75.41 46.0704 75.1338L44.2496 74.3062C44.1085 74.6166 43.9932 74.8982 43.9113 75.1438C43.8371 75.3664 43.76 75.6458 43.76 75.92H45.76ZM46.0831 75.1046C46.373 74.4088 46.5825 73.7264 46.7039 73.0589L44.7361 72.7011C44.6442 73.2069 44.4804 73.7512 44.2369 74.3354L46.0831 75.1046ZM46.6901 73.1225C46.8422 72.5142 47.0189 71.9341 47.2198 71.3817L45.3402 70.6983C45.1144 71.3192 44.9178 71.9658 44.7499 72.6375L46.6901 73.1225ZM47.1678 71.5003C47.9098 70.0693 48.5688 68.857 49.1454 67.861L47.4146 66.859C46.8178 67.8897 46.1435 69.1307 45.3922 70.5797L47.1678 71.5003ZM49.1654 67.8248C49.6287 66.9424 50.2699 66.3307 51.0991 65.948C51.944 65.558 53.0445 65.3789 54.45 65.4775L54.59 63.4825C52.9555 63.3677 51.496 63.562 50.2609 64.132C49.0101 64.7093 48.0513 65.6443 47.3946 66.8952L49.1654 67.8248ZM54.4267 65.4756L56.9867 65.7156L57.1733 63.7244L54.6133 63.4844L54.4267 65.4756ZM56.8223 65.6862C58.3887 66.1039 59.5228 66.5314 60.2697 66.9516L61.2503 65.2084C60.2905 64.6686 58.9713 64.1894 57.3377 63.7538L56.8223 65.6862ZM60.3956 67.0112C61.5695 67.4706 62.1759 67.9171 62.4313 68.2682L64.0487 67.0918C63.4507 66.2696 62.4039 65.6494 61.1244 65.1488L60.3956 67.0112ZM62.4591 68.3047C62.6496 68.5427 62.8519 69.134 62.8009 70.3584L64.7991 70.4416C64.8548 69.106 64.6838 67.8839 64.0209 67.0553L62.4591 68.3047ZM62.8035 70.483C62.8552 71.1044 63.0142 73.8568 63.2815 78.7743L65.2785 78.6657C65.0125 73.7699 64.8514 70.9756 64.7965 70.317L62.8035 70.483ZM63.2815 78.7743C63.4148 81.2276 63.5148 83.074 63.5814 84.3137C63.6499 85.5865 63.68 86.1691 63.68 86.16H65.68C65.68 86.0705 65.5433 83.5378 65.2785 78.6657L63.2815 78.7743ZM63.6867 86.2755L64.0867 89.7155L66.0733 89.4845L65.6733 86.0445L63.6867 86.2755ZM64.08 89.6C64.08 89.7141 64.099 89.8766 64.1149 90.0063C64.1343 90.1653 64.1628 90.3773 64.1998 90.6396C64.2739 91.1654 64.3846 91.9098 64.5315 92.871C64.8253 94.7943 65.2657 97.5969 65.8525 101.277L67.8275 100.963C67.241 97.2831 66.8014 94.4857 66.5085 92.569C66.362 91.6102 66.2527 90.8746 66.1802 90.3604C66.1439 90.1027 66.1174 89.9047 66.1001 89.7637C66.0793 89.5934 66.08 89.5659 66.08 89.6H64.08ZM65.886 101.42L67.646 107.02L69.554 106.42L67.794 100.82L65.886 101.42ZM67.6583 107.056C68.7288 110.054 69.2824 111.61 69.3313 111.756L71.2287 111.124C71.1709 110.95 70.6046 109.36 69.5417 106.384L67.6583 107.056ZM69.5729 112.147C69.5377 112.112 69.5146 112.083 69.5035 112.068C69.4915 112.052 69.4845 112.041 69.4826 112.038C69.4793 112.033 69.4842 112.04 69.4978 112.066C69.5248 112.118 69.5655 112.205 69.6209 112.334C69.7308 112.59 69.8772 112.965 70.0617 113.466L71.9383 112.774C71.7495 112.262 71.5892 111.85 71.4591 111.546C71.3946 111.395 71.3318 111.258 71.2722 111.144C71.2314 111.065 71.1353 110.881 70.9871 110.733L69.5729 112.147ZM70.0513 113.436C70.3015 114.187 70.2618 114.646 70.1419 114.924C70.0301 115.183 69.7676 115.469 69.1357 115.701L69.8243 117.579C70.7924 117.224 71.5832 116.631 71.9781 115.716C72.3649 114.821 72.2852 113.813 71.9487 112.804L70.0513 113.436ZM69.3335 115.651C67.9764 115.852 67.2268 115.679 66.8492 115.418L65.7108 117.062C66.7199 117.761 68.1036 117.855 69.6266 117.629L69.3335 115.651ZM66.28 115.24C66.3432 115.24 66.3539 115.251 66.2781 115.23C66.2138 115.213 66.1178 115.181 65.9844 115.129C65.7178 115.024 65.3547 114.859 64.8872 114.626L63.9928 116.414C64.4853 116.661 64.9089 116.856 65.2556 116.991C65.5564 117.109 65.9367 117.24 66.28 117.24V115.24ZM65.3685 115.149C65.1132 114.51 64.4821 114.103 63.9272 113.826L63.0328 115.614C63.2574 115.727 63.3984 115.82 63.4798 115.888C63.5658 115.96 63.5414 115.966 63.5115 115.891L65.3685 115.149ZM63.8861 113.806C63.667 113.709 63.5022 113.625 63.3839 113.556C63.2574 113.482 63.2203 113.446 63.2271 113.453L61.8129 114.867C62.1163 115.171 62.5911 115.419 63.0739 115.634L63.8861 113.806ZM62.7831 113.195C62.8371 113.21 62.7312 113.205 62.5203 112.878C62.3205 112.568 62.0991 112.08 61.872 111.374L59.968 111.986C60.2209 112.773 60.5062 113.445 60.8397 113.962C61.1622 114.462 61.6162 114.95 62.2569 115.125L62.7831 113.195ZM61.4747 110.848C61.551 110.899 61.5741 110.936 61.5369 110.892C61.5101 110.861 61.4663 110.804 61.404 110.713C61.2799 110.533 61.1155 110.267 60.9082 109.904L59.1718 110.896C59.3912 111.28 59.5867 111.6 59.756 111.847C59.8404 111.969 59.9266 112.086 60.0131 112.188C60.0893 112.277 60.209 112.408 60.3653 112.512L61.4747 110.848ZM60.9344 109.953C60.6065 109.297 60.633 108.983 60.6687 108.876L58.7713 108.244C58.487 109.097 58.7268 110.01 59.1456 110.847L60.9344 109.953ZM60.5094 107.946C60.4639 107.888 60.3634 107.701 60.2826 107.274C60.205 106.864 60.16 106.311 60.16 105.6H58.16C58.16 106.382 58.2084 107.069 58.3174 107.646C58.4233 108.206 58.6027 108.752 58.9306 109.174L60.5094 107.946ZM60.0175 105.086C59.6799 104.523 59.44 103.494 59.44 101.84H57.44C57.44 103.6 57.6801 105.077 58.3025 106.114L60.0175 105.086ZM59.44 101.84C59.44 100.049 59.1635 98.5232 58.5142 97.3544L56.7658 98.3256C57.1832 99.0768 57.44 100.218 57.44 101.84H59.44ZM57.2289 96.9284C54.632 98.0996 51.8538 98.7382 48.8855 98.8406L48.9545 100.839C52.1729 100.728 55.208 100.034 58.0511 98.7516L57.2289 96.9284ZM48.92 98.84C48.594 98.84 48.2324 98.866 47.9183 98.9802C47.7556 99.0394 47.5403 99.1453 47.3578 99.3443C47.1554 99.5651 47.04 99.8517 47.04 100.16H49.04C49.04 100.362 48.9613 100.555 48.8322 100.696C48.7231 100.815 48.6178 100.854 48.6017 100.86C48.5806 100.867 48.5921 100.86 48.6553 100.853C48.715 100.845 48.8015 100.84 48.92 100.84V98.84ZM47.04 100.16C47.04 100.495 46.9149 101.231 46.5924 102.468L48.5276 102.972C48.8451 101.755 49.04 100.785 49.04 100.16H47.04ZM46.5717 102.567L45.2117 111.367L47.1883 111.673L48.5483 102.873L46.5717 102.567ZM45.209 111.654C45.471 113.593 45.4642 114.954 45.2656 115.815C45.168 116.238 45.0385 116.474 44.932 116.598C44.8427 116.702 44.7515 116.751 44.6186 116.77L44.9014 118.75C45.5151 118.662 46.044 118.372 46.448 117.902C46.8348 117.453 47.072 116.882 47.2144 116.265C47.4958 115.046 47.4623 113.394 47.191 111.386L45.209 111.654ZM44.76 116.76C44.2181 116.76 43.4064 116.888 42.394 117.101L42.806 119.059C43.8202 118.845 44.4485 118.76 44.76 118.76V116.76ZM42.3831 117.104C41.6928 117.257 41.2402 117.117 40.8757 116.783L39.5243 118.257C40.4398 119.096 41.5872 119.329 42.8169 119.056L42.3831 117.104ZM40.6921 116.649C39.531 115.993 38.789 115.36 38.3737 114.779L36.7463 115.941C37.3976 116.853 38.4157 117.66 39.7079 118.391L40.6921 116.649ZM38.3822 114.791C38.0395 114.296 37.877 113.721 37.9183 113.019L35.9217 112.901C35.8563 114.013 36.1205 115.038 36.7378 115.929L38.3822 114.791ZM37.9175 113.031C37.9701 112.294 38.1028 110.702 38.3162 108.247L36.3238 108.073C36.1106 110.525 35.9765 112.133 35.9225 112.889L37.9175 113.031ZM38.0271 108.867C38.1822 108.712 38.2563 108.544 38.2903 108.455C38.3291 108.353 38.3521 108.256 38.367 108.179C38.3968 108.024 38.4113 107.853 38.419 107.685C38.4345 107.345 38.4259 106.894 38.3988 106.35L36.4012 106.45C36.4274 106.973 36.4322 107.349 36.421 107.595C36.4153 107.72 36.4066 107.783 36.403 107.801C36.4012 107.81 36.4051 107.785 36.4222 107.74C36.4346 107.708 36.4845 107.581 36.6129 107.453L38.0271 108.867ZM38.4 106.4C38.4 105.308 38.4801 104.56 38.6048 104.103L36.6752 103.577C36.4799 104.293 36.4 105.252 36.4 106.4H38.4ZM38.6083 104.09L39.8883 99.1299L37.9517 98.6301L36.6717 103.59L38.6083 104.09ZM39.4747 99.712C39.6703 99.5817 39.782 99.4159 39.8328 99.3339C39.8934 99.2359 39.9396 99.136 39.9747 99.0507C40.0452 98.8794 40.1082 98.6753 40.1662 98.4577C40.2837 98.0171 40.4095 97.4114 40.5444 96.6558L38.5756 96.3042C38.4438 97.0419 38.3296 97.5829 38.2338 97.9423C38.1851 98.1247 38.1481 98.234 38.1253 98.2892C38.1138 98.3173 38.1149 98.3091 38.1322 98.2811C38.1397 98.2691 38.2097 98.1517 38.3653 98.0479L39.4747 99.712ZM40.4544 96.0328C40.4765 96.0769 40.4885 96.1116 40.4942 96.1293C40.5001 96.148 40.5026 96.1594 40.5028 96.1605C40.503 96.1613 40.4994 96.1437 40.495 96.1005C40.4864 96.0136 40.48 95.877 40.48 95.68H38.48C38.48 95.9096 38.487 96.1197 38.505 96.2995C38.5191 96.4405 38.5499 96.696 38.6656 96.9272L40.4544 96.0328ZM40.4765 95.597L40.3965 94.637L38.4035 94.803L38.4835 95.763L40.4765 95.597Z" fill="#FF57BB"/>
</g>
<g filter="url(#filter2_d_157_14)">
<path d="M88.36 49.28C88.4133 49.28 89 48.3733 90.12 46.56C90.28 46.56 90.5733 46.2133 91 45.52C91.48 45.04 91.72 44.56 91.72 44.08L93 42.32C93 42.1067 93.32 41.6267 93.96 40.88C94.6533 39.5467 95.5867 38.08 96.76 36.48C97.4 35.52 97.8267 34.88 98.04 34.56C98.3067 34.1867 98.4933 33.8933 98.6 33.68C98.76 33.4667 98.92 33.28 99.08 33.12H98.44L96.84 33.28C96.6267 33.28 96.3067 33.3333 95.88 33.44C91.72 34.56 89.1867 35.0933 88.28 35.04C87.3733 34.9867 86.6267 35.12 86.04 35.44C85.1333 35.44 84.0133 35.5733 82.68 35.84C80.44 35.84 78.8933 35.3333 78.04 34.32L77.24 33.28L76.12 31.12C75.96 30.5333 75.9867 29.6 76.2 28.32C76.4133 27.7867 76.8667 27.36 77.56 27.04C78.3067 26.6667 79.1867 26.48 80.2 26.48C81.8533 26.48 83.88 26.4 86.28 26.24C88.68 26.08 91.32 25.9467 94.2 25.84C97.3467 25.84 101.907 25.36 107.88 24.4C108.413 24.3467 109.08 24.56 109.88 25.04C110.68 25.52 111.293 26.0533 111.72 26.64C112.04 27.44 112.413 28.1333 112.84 28.72C113.48 30.2667 113 31.9733 111.4 33.84L109.48 35.52C109.427 35.52 109.08 36.0533 108.44 37.12C104.12 43.1467 101.773 46.3467 101.4 46.72C101.293 46.9333 101 47.4133 100.52 48.16C100.093 48.8533 99.7733 49.3867 99.56 49.76L96.84 53.04C96.84 53.3067 96.6 53.8667 96.12 54.72L95.64 55.04L93.24 58.32L91 61.6L89.56 63.44L88.6 65.04C88.6 65.36 88.28 65.9733 87.64 66.88C87.0533 67.7867 86.5467 68.6133 86.12 69.36C85.7467 70.0533 85.3733 70.6933 85 71.28L87 70.96L90.68 70C91.4267 70 92.3867 69.76 93.56 69.28C94.0933 69.28 94.5467 69.2533 94.92 69.2C95.0267 69.0933 95.5333 69.0133 96.44 68.96C96.6 68.8533 97.32 68.6933 98.6 68.48C99.88 68.2667 100.68 68.16 101 68.16C101.693 68.16 102.92 68.0267 104.68 67.76C106.173 67.6533 107.133 67.8133 107.56 68.24C108.787 69.4667 109 71.0667 108.2 73.04C108.2 73.1467 107.987 73.3067 107.56 73.52C104.467 74.5333 102.627 75.12 102.04 75.28C100.653 75.5467 99.5067 75.8933 98.6 76.32C98.3867 76.32 98.0667 76.4267 97.64 76.64C96.7333 77.0667 95.5333 77.4667 94.04 77.84C90.8933 78.7467 89.0267 79.28 88.44 79.44C87.9067 79.6533 86.8133 79.9733 85.16 80.4C83.56 80.88 82.2267 81.1733 81.16 81.28C80.0933 81.3867 78.76 80.88 77.16 79.76C76.7333 79.4933 76.4667 79.2533 76.36 79.04L75.4 77.6C74.0667 75.7333 73.9867 73.8933 75.16 72.08C75.16 71.9733 75.2933 71.7067 75.56 71.28L77.56 66.56L77.88 65.04C77.88 64.8267 78.1733 64.3733 78.76 63.68C78.9733 63.2 79.24 62.72 79.56 62.24C79.88 61.76 80.04 61.4933 80.04 61.44C80.7333 60.3733 81.4 59.5733 82.04 59.04L83.08 57.44L84.12 56.16C84.12 55.7333 84.84 54.7467 86.28 53.2C86.3867 52.9333 86.84 52.2667 87.64 51.2L88.36 49.28Z" fill="#33B1B1"/>
<path d="M88.36 49.28V48.28H87.667L87.4237 48.9289L88.36 49.28ZM90.12 46.56V45.56H89.5623L89.2692 46.0345L90.12 46.56ZM91 45.52L90.2929 44.8129L90.2099 44.8959L90.1483 44.9959L91 45.52ZM91.72 44.08L90.9113 43.4918L90.72 43.7548V44.08H91.72ZM93 42.32L93.8087 42.9082L94 42.6452V42.32H93ZM93.96 40.88L94.7193 41.5308L94.7941 41.4434L94.8472 41.3414L93.96 40.88ZM96.76 36.48L97.5664 37.0714L97.5796 37.0533L97.5921 37.0347L96.76 36.48ZM98.04 34.56L97.2263 33.9788L97.2169 33.9919L97.208 34.0053L98.04 34.56ZM98.6 33.68L97.8 33.08L97.7459 33.1521L97.7056 33.2328L98.6 33.68ZM99.08 33.12L99.7871 33.8271L101.494 32.12H99.08V33.12ZM98.44 33.12V32.12H98.3901L98.3405 32.125L98.44 33.12ZM96.84 33.28V34.28H96.8899L96.9395 34.275L96.84 33.28ZM95.88 33.44L95.6375 32.4699L95.6287 32.472L95.62 32.4744L95.88 33.44ZM88.28 35.04L88.2213 36.0383L88.2213 36.0383L88.28 35.04ZM86.04 35.44V36.44H86.295L86.5189 36.3179L86.04 35.44ZM82.68 35.84V36.84H82.779L82.8761 36.8206L82.68 35.84ZM78.04 34.32L77.2474 34.9297L77.2609 34.9472L77.2751 34.9641L78.04 34.32ZM77.24 33.28L76.3522 33.7403L76.3932 33.8192L76.4474 33.8897L77.24 33.28ZM76.12 31.12L75.1552 31.3831L75.1832 31.4858L75.2322 31.5803L76.12 31.12ZM76.2 28.32L75.2715 27.9486L75.2314 28.049L75.2136 28.1556L76.2 28.32ZM77.56 27.04L77.9791 27.948L77.9932 27.9414L78.0072 27.9344L77.56 27.04ZM86.28 26.24L86.3465 27.2378L86.3465 27.2378L86.28 26.24ZM94.2 25.84V24.84H94.1815L94.163 24.8407L94.2 25.84ZM107.88 24.4L107.78 23.405L107.751 23.4079L107.721 23.4127L107.88 24.4ZM109.88 25.04L110.394 24.1825L110.394 24.1825L109.88 25.04ZM111.72 26.64L112.648 26.2686L112.602 26.1527L112.529 26.0518L111.72 26.64ZM112.84 28.72L113.764 28.3376L113.719 28.2279L113.649 28.1318L112.84 28.72ZM111.4 33.84L112.059 34.5926L112.113 34.5453L112.159 34.4908L111.4 33.84ZM109.48 35.52V36.52H109.856L110.139 36.2726L109.48 35.52ZM108.44 37.12L109.253 37.7026L109.277 37.6695L109.297 37.6345L108.44 37.12ZM101.4 46.72L100.693 46.0129L100.578 46.1276L100.506 46.2728L101.4 46.72ZM100.52 48.16L99.6788 47.6192L99.6735 47.6275L99.6683 47.6359L100.52 48.16ZM99.56 49.76L100.33 50.3983L100.385 50.3315L100.428 50.2561L99.56 49.76ZM96.84 53.04L96.0702 52.4017L95.84 52.6793V53.04H96.84ZM96.12 54.72L96.6747 55.552L96.8741 55.4191L96.9916 55.2103L96.12 54.72ZM95.64 55.04L95.0853 54.208L94.9377 54.3063L94.833 54.4495L95.64 55.04ZM93.24 58.32L92.433 57.7295L92.4234 57.7426L92.4142 57.756L93.24 58.32ZM91 61.6L91.7875 62.2163L91.8075 62.1908L91.8258 62.164L91 61.6ZM89.56 63.44L88.7725 62.8237L88.7344 62.8724L88.7025 62.9255L89.56 63.44ZM88.6 65.04L87.7425 64.5255L87.6 64.763V65.04H88.6ZM87.64 66.88L86.823 66.3033L86.8114 66.3198L86.8004 66.3367L87.64 66.88ZM86.12 69.36L85.2518 68.8639L85.2455 68.8748L85.2395 68.8859L86.12 69.36ZM85 71.28L84.1563 70.7431L82.9628 72.6187L85.158 72.2674L85 71.28ZM87 70.96L87.158 71.9474L87.2057 71.9398L87.2524 71.9276L87 70.96ZM90.68 70V69H90.5517L90.4276 69.0324L90.68 70ZM93.56 69.28V68.28H93.3634L93.1814 68.3545L93.56 69.28ZM94.92 69.2L95.0614 70.1899L95.3914 70.1428L95.6271 69.9071L94.92 69.2ZM96.44 68.96L96.4987 69.9583L96.7692 69.9424L96.9947 69.792L96.44 68.96ZM98.6 68.48L98.7644 69.4664L98.7644 69.4664L98.6 68.48ZM104.68 67.76L104.609 66.7625L104.569 66.7654L104.53 66.7713L104.68 67.76ZM107.56 68.24L106.853 68.9471L106.853 68.9471L107.56 68.24ZM108.2 73.04L107.273 72.6643L107.2 72.845V73.04H108.2ZM107.56 73.52L107.871 74.4703L107.941 74.4474L108.007 74.4144L107.56 73.52ZM102.04 75.28L102.229 76.262L102.266 76.2548L102.303 76.2448L102.04 75.28ZM98.6 76.32V77.32H98.8235L99.0258 77.2248L98.6 76.32ZM97.64 76.64L98.0658 77.5448L98.0766 77.5398L98.0872 77.5344L97.64 76.64ZM94.04 77.84L93.7975 76.8699L93.7802 76.8742L93.7631 76.8791L94.04 77.84ZM88.44 79.44L88.1769 78.4752L88.1217 78.4903L88.0686 78.5115L88.44 79.44ZM85.16 80.4L84.9101 79.4317L84.8913 79.4366L84.8727 79.4422L85.16 80.4ZM77.16 79.76L77.7335 78.9408L77.7121 78.9258L77.69 78.912L77.16 79.76ZM76.36 79.04L77.2544 78.5928L77.2266 78.5371L77.1921 78.4853L76.36 79.04ZM75.4 77.6L76.2321 77.0453L76.2231 77.0319L76.2137 77.0188L75.4 77.6ZM75.16 72.08L75.9996 72.6233L76.16 72.3753V72.08H75.16ZM75.56 71.28L76.408 71.81L76.4499 71.7429L76.4808 71.6701L75.56 71.28ZM77.56 66.56L78.4808 66.9501L78.5186 66.8609L78.5386 66.766L77.56 66.56ZM77.88 65.04L78.8586 65.246L78.88 65.1441V65.04H77.88ZM78.76 63.68L79.5234 64.3259L79.6157 64.2168L79.6738 64.0861L78.76 63.68ZM79.56 62.24L78.7279 61.6853L78.7279 61.6853L79.56 62.24ZM80.04 61.44L79.2016 60.895L79.04 61.1436V61.44H80.04ZM82.04 59.04L82.6802 59.8082L82.7962 59.7116L82.8784 59.585L82.04 59.04ZM83.08 57.44L82.3039 56.8094L82.2705 56.8506L82.2416 56.895L83.08 57.44ZM84.12 56.16L84.8961 56.7906L85.12 56.515V56.16H84.12ZM86.28 53.2L87.0119 53.8814L87.1391 53.7448L87.2085 53.5714L86.28 53.2ZM87.64 51.2L88.44 51.8L88.526 51.6853L88.5763 51.5511L87.64 51.2ZM88.36 50.28C88.667 50.28 88.8766 50.1386 88.9138 50.1143C88.9864 50.0669 89.0381 50.0197 89.0629 49.9964C89.1153 49.9468 89.1557 49.8989 89.1769 49.8732C89.2242 49.8158 89.2728 49.7492 89.317 49.6867C89.4089 49.5564 89.531 49.3728 89.6796 49.1433C89.9788 48.6808 90.4099 47.9936 90.9708 47.0855L89.2692 46.0345C88.7101 46.9398 88.2879 47.6125 88.0004 48.0567C87.8556 48.2805 87.7511 48.4369 87.683 48.5333C87.6472 48.5841 87.6325 48.6025 87.6331 48.6018C87.6343 48.6003 87.6389 48.5947 87.6465 48.5863C87.6533 48.5788 87.6682 48.5626 87.6896 48.5424C87.7069 48.5261 87.7522 48.4843 87.8193 48.4404C87.8511 48.4196 88.0563 48.28 88.36 48.28V50.28ZM90.12 47.56C90.4943 47.56 90.7623 47.3736 90.8725 47.2894C91.0096 47.1845 91.1274 47.0594 91.2234 46.9459C91.4184 46.7155 91.6291 46.4057 91.8517 46.0441L90.1483 44.9959C89.9442 45.3276 89.795 45.5378 89.6966 45.6541C89.6459 45.714 89.6337 45.7189 89.6576 45.7006C89.6709 45.6904 89.7114 45.6607 89.7772 45.6312C89.842 45.6022 89.9612 45.56 90.12 45.56V47.56ZM91.7071 46.2271C92.2961 45.6381 92.72 44.9188 92.72 44.08H90.72C90.72 44.2012 90.6639 44.4419 90.2929 44.8129L91.7071 46.2271ZM92.5287 44.6682L93.8087 42.9082L92.1913 41.7318L90.9113 43.4918L92.5287 44.6682ZM94 42.32C94 42.4841 93.9481 42.5721 93.968 42.5291C93.9782 42.5068 94.0079 42.451 94.0721 42.3547C94.1996 42.1634 94.41 41.8916 94.7193 41.5308L93.2007 40.2292C92.87 40.615 92.6004 40.9566 92.408 41.2453C92.3121 41.389 92.2218 41.5399 92.152 41.6909C92.0919 41.8212 92 42.0492 92 42.32H94ZM94.8472 41.3414C95.5109 40.0651 96.4143 38.6424 97.5664 37.0714L95.9536 35.8886C94.759 37.5176 93.7958 39.0283 93.0728 40.4186L94.8472 41.3414ZM97.5921 37.0347C98.2321 36.0747 98.6587 35.4347 98.8721 35.1147L97.208 34.0053C96.9946 34.3253 96.568 34.9653 95.928 35.9253L97.5921 37.0347ZM98.8537 35.1412C99.1285 34.7566 99.3519 34.4122 99.4944 34.1272L97.7056 33.2328C97.6347 33.3744 97.4849 33.6167 97.2263 33.9788L98.8537 35.1412ZM99.4 34.28C99.5365 34.098 99.6658 33.9484 99.7871 33.8271L98.3729 32.4129C98.1742 32.6116 97.9835 32.8353 97.8 33.08L99.4 34.28ZM99.08 32.12H98.44V34.12H99.08V32.12ZM98.3405 32.125L96.7405 32.285L96.9395 34.275L98.5395 34.115L98.3405 32.125ZM96.84 32.28C96.4975 32.28 96.0782 32.3597 95.6375 32.4699L96.1225 34.4101C96.5351 34.307 96.7558 34.28 96.84 34.28V32.28ZM95.62 32.4744C93.5479 33.0323 91.8946 33.4403 90.654 33.7014C89.3695 33.9719 88.6378 34.0593 88.3387 34.0417L88.2213 36.0383C88.8289 36.074 89.8172 35.9215 91.066 35.6585C92.3587 35.3864 94.0521 34.9677 96.14 34.4056L95.62 32.4744ZM88.3387 34.0417C87.31 33.9812 86.3612 34.1257 85.5611 34.5621L86.5189 36.3179C86.8921 36.1143 87.4366 35.9921 88.2213 36.0383L88.3387 34.0417ZM86.04 34.44C85.0436 34.44 83.8532 34.5856 82.4839 34.8594L82.8761 36.8206C84.1735 36.5611 85.2231 36.44 86.04 36.44V34.44ZM82.68 34.84C80.5383 34.84 79.3703 34.3472 78.8049 33.6759L77.2751 34.9641C78.4164 36.3194 80.3417 36.84 82.68 36.84V34.84ZM78.8326 33.7103L78.0326 32.6703L76.4474 33.8897L77.2474 34.9297L78.8326 33.7103ZM78.1278 32.8197L77.0078 30.6597L75.2322 31.5803L76.3522 33.7403L78.1278 32.8197ZM77.0848 30.8569C76.986 30.4948 76.9759 29.7476 77.1864 28.4844L75.2136 28.1556C74.9975 29.4524 74.934 30.5719 75.1552 31.3831L77.0848 30.8569ZM77.1285 28.6914C77.219 28.4651 77.4395 28.197 77.9791 27.948L77.1409 26.132C76.2939 26.523 75.6077 27.1083 75.2715 27.9486L77.1285 28.6914ZM78.0072 27.9344C78.5884 27.6438 79.3092 27.48 80.2 27.48V25.48C79.0642 25.48 78.0249 25.6895 77.1128 26.1456L78.0072 27.9344ZM80.2 27.48C81.883 27.48 83.9333 27.3987 86.3465 27.2378L86.2135 25.2422C83.8267 25.4013 81.8237 25.48 80.2 25.48V27.48ZM86.3465 27.2378C88.735 27.0786 91.365 26.9457 94.237 26.8393L94.163 24.8407C91.275 24.9476 88.625 25.0814 86.2135 25.2422L86.3465 27.2378ZM94.2 26.84C97.4282 26.84 102.051 26.3496 108.039 25.3873L107.721 23.4127C101.762 24.3704 97.2651 24.84 94.2 24.84V26.84ZM107.98 25.395C108.191 25.3739 108.628 25.455 109.366 25.8975L110.394 24.1825C109.532 23.6649 108.636 23.3194 107.78 23.405L107.98 25.395ZM109.366 25.8975C110.082 26.3273 110.583 26.7764 110.911 27.2282L112.529 26.0518C112.004 25.3303 111.278 24.7127 110.394 24.1825L109.366 25.8975ZM110.792 27.0114C111.137 27.8744 111.548 28.6433 112.031 29.3082L113.649 28.1318C113.279 27.6233 112.943 27.0056 112.648 26.2686L110.792 27.0114ZM111.916 29.1023C112.349 30.1496 112.125 31.4579 110.641 33.1892L112.159 34.4908C113.875 32.4887 114.611 30.3838 113.764 28.3376L111.916 29.1023ZM110.741 33.0874L108.821 34.7674L110.139 36.2726L112.059 34.5926L110.741 33.0874ZM109.48 34.52C109.128 34.52 108.895 34.7053 108.871 34.7227C108.799 34.7761 108.747 34.829 108.721 34.8562C108.665 34.9149 108.618 34.9762 108.585 35.02C108.514 35.114 108.432 35.2365 108.342 35.375C108.158 35.6572 107.904 36.0696 107.583 36.6055L109.297 37.6345C109.616 37.1037 109.855 36.7162 110.018 36.465C110.102 36.3369 110.156 36.2593 110.185 36.22C110.202 36.1971 110.195 36.2084 110.171 36.2338C110.161 36.2444 110.123 36.2847 110.062 36.3298C110.031 36.3527 109.974 36.3918 109.896 36.4283C109.824 36.4616 109.677 36.52 109.48 36.52V34.52ZM107.627 36.5374C105.468 39.5498 103.804 41.853 102.634 43.4486C102.048 44.2469 101.589 44.8647 101.254 45.3043C101.087 45.5245 100.953 45.6961 100.853 45.8216C100.802 45.8844 100.762 45.9326 100.732 45.9678C100.699 46.0064 100.688 46.0174 100.693 46.0129L102.107 47.4271C102.259 47.2747 102.523 46.94 102.846 46.5157C103.191 46.062 103.658 45.4331 104.246 44.6314C105.423 43.027 107.092 40.7168 109.253 37.7026L107.627 36.5374ZM100.506 46.2728C100.428 46.4276 100.168 46.8578 99.6788 47.6192L101.361 48.7008C101.832 47.9688 102.159 47.4391 102.294 47.1672L100.506 46.2728ZM99.6683 47.6359C99.24 48.3319 98.9133 48.8762 98.6918 49.2639L100.428 50.2561C100.633 49.8971 100.947 49.3748 101.372 48.6841L99.6683 47.6359ZM98.7902 49.1217L96.0702 52.4017L97.6098 53.6783L100.33 50.3983L98.7902 49.1217ZM95.84 53.04C95.84 52.9726 95.8524 52.9552 95.8347 53.0162C95.8196 53.068 95.7908 53.1495 95.7409 53.2661C95.6408 53.4996 95.48 53.818 95.2484 54.2297L96.9916 55.2103C97.24 54.7686 97.4392 54.3804 97.5791 54.0539C97.7012 53.7691 97.84 53.3964 97.84 53.04H95.84ZM95.5653 53.888L95.0853 54.208L96.1947 55.872L96.6747 55.552L95.5653 53.888ZM94.833 54.4495L92.433 57.7295L94.047 58.9105L96.447 55.6305L94.833 54.4495ZM92.4142 57.756L90.1742 61.036L91.8258 62.164L94.0658 58.884L92.4142 57.756ZM90.2125 60.9837L88.7725 62.8237L90.3475 64.0563L91.7875 62.2163L90.2125 60.9837ZM88.7025 62.9255L87.7425 64.5255L89.4575 65.5545L90.4175 63.9545L88.7025 62.9255ZM87.6 65.04C87.6 64.9668 87.6155 64.9482 87.5941 65.0107C87.5754 65.0652 87.5387 65.1524 87.4734 65.2774C87.3425 65.5283 87.1307 65.8675 86.823 66.3033L88.457 67.4567C88.7893 66.9858 89.0575 66.5651 89.2466 66.2026C89.4137 65.8823 89.6 65.4617 89.6 65.04H87.6ZM86.8004 66.3367C86.2062 67.2552 85.6895 68.0978 85.2518 68.8639L86.9882 69.8561C87.4038 69.1289 87.9005 68.3182 88.4796 67.4233L86.8004 66.3367ZM85.2395 68.8859C84.8762 69.5606 84.5151 70.1794 84.1563 70.7431L85.8437 71.8169C86.2316 71.2073 86.6171 70.5461 87.0005 69.8341L85.2395 68.8859ZM85.158 72.2674L87.158 71.9474L86.842 69.9726L84.842 70.2926L85.158 72.2674ZM87.2524 71.9276L90.9324 70.9676L90.4276 69.0324L86.7476 69.9924L87.2524 71.9276ZM90.68 71C91.6166 71 92.7173 70.7052 93.9386 70.2055L93.1814 68.3545C92.0561 68.8148 91.2367 69 90.68 69V71ZM93.56 70.28C94.123 70.28 94.6265 70.2521 95.0614 70.1899L94.7786 68.2101C94.4668 68.2546 94.0637 68.28 93.56 68.28V70.28ZM95.6271 69.9071C95.5314 70.0028 95.4422 70.0479 95.4143 70.0614C95.3793 70.0783 95.3595 70.0837 95.3662 70.0817C95.3804 70.0773 95.4314 70.0643 95.536 70.0478C95.7416 70.0153 96.0573 69.9842 96.4987 69.9583L96.3813 67.9617C95.9161 67.9891 95.5251 68.0247 95.224 68.0722C95.0753 68.0957 94.9229 68.126 94.7838 68.1683C94.6892 68.1971 94.4271 68.2787 94.2129 68.4929L95.6271 69.9071ZM96.9947 69.792C96.8991 69.8558 96.8447 69.8604 96.955 69.827C97.031 69.804 97.1488 69.7736 97.3169 69.7362C97.6512 69.6619 98.131 69.572 98.7644 69.4664L98.4356 67.4936C97.789 67.6014 97.2688 67.6981 96.8831 67.7838C96.6912 67.8264 96.519 67.8693 96.375 67.913C96.2653 67.9462 96.0609 68.0109 95.8853 68.1279L96.9947 69.792ZM98.7644 69.4664C100.076 69.2478 100.782 69.16 101 69.16V67.16C100.578 67.16 99.6841 67.2855 98.4356 67.4936L98.7644 69.4664ZM101 69.16C101.778 69.16 103.074 69.0148 104.83 68.7487L104.53 66.7713C102.766 67.0385 101.609 67.16 101 67.16V69.16ZM104.751 68.7575C105.457 68.7071 105.983 68.7243 106.356 68.7864C106.539 68.817 106.667 68.8556 106.75 68.891C106.833 68.9261 106.857 68.951 106.853 68.9471L108.267 67.5329C107.841 67.1067 107.254 66.9086 106.684 66.8136C106.097 66.7157 105.397 66.7062 104.609 66.7625L104.751 68.7575ZM106.853 68.9471C107.323 69.4175 107.573 69.9265 107.649 70.4922C107.726 71.0738 107.628 71.7887 107.273 72.6643L109.127 73.4157C109.572 72.318 109.767 71.2462 109.631 70.2278C109.493 69.1935 109.023 68.2891 108.267 67.5329L106.853 68.9471ZM107.2 73.04C107.2 72.885 107.239 72.7604 107.276 72.6764C107.313 72.5938 107.354 72.5367 107.379 72.5053C107.426 72.4468 107.459 72.4257 107.44 72.44C107.405 72.4664 107.307 72.5283 107.113 72.6256L108.007 74.4144C108.239 74.2984 108.462 74.1736 108.64 74.04C108.728 73.9743 108.841 73.8799 108.941 73.7547C109.03 73.6434 109.2 73.3947 109.2 73.04H107.2ZM107.249 72.5697C104.142 73.5874 102.333 74.1636 101.777 74.3152L102.303 76.2448C102.921 76.0764 104.791 75.4793 107.871 74.4703L107.249 72.5697ZM101.851 74.298C100.413 74.5745 99.1801 74.9418 98.1742 75.4152L99.0258 77.2248C99.8333 76.8448 100.894 76.5188 102.229 76.262L101.851 74.298ZM98.6 75.32C98.1318 75.32 97.6273 75.5283 97.1928 75.7456L98.0872 77.5344C98.2741 77.441 98.4153 77.3823 98.5162 77.3487C98.6263 77.312 98.6446 77.32 98.6 77.32V75.32ZM97.2142 75.7352C96.3888 76.1236 95.2574 76.5049 93.7975 76.8699L94.2825 78.8101C95.8092 78.4285 97.0779 78.0097 98.0658 77.5448L97.2142 75.7352ZM93.7631 76.8791C90.6126 77.7869 88.7548 78.3176 88.1769 78.4752L88.7031 80.4048C89.2985 80.2424 91.1741 79.7065 94.3169 78.8009L93.7631 76.8791ZM88.0686 78.5115C87.6045 78.6972 86.5735 79.0025 84.9101 79.4317L85.4099 81.3683C87.0532 80.9442 88.2088 80.6095 88.8114 80.3685L88.0686 78.5115ZM84.8727 79.4422C83.3041 79.9127 82.0386 80.1872 81.0605 80.285L81.2595 82.275C82.4148 82.1595 83.8159 81.8473 85.4473 81.3578L84.8727 79.4422ZM81.0605 80.285C80.3619 80.3548 79.2807 80.0238 77.7335 78.9408L76.5865 80.5792C78.2393 81.7362 79.8248 82.4185 81.2595 82.275L81.0605 80.285ZM77.69 78.912C77.508 78.7982 77.3858 78.7058 77.309 78.6367C77.2264 78.5624 77.231 78.5459 77.2544 78.5928L75.4656 79.4872C75.7054 79.9669 76.1855 80.3302 76.63 80.608L77.69 78.912ZM77.1921 78.4853L76.2321 77.0453L74.5679 78.1547L75.5279 79.5947L77.1921 78.4853ZM76.2137 77.0188C75.632 76.2043 75.3688 75.4605 75.3391 74.7766C75.3096 74.098 75.5056 73.3866 75.9996 72.6233L74.3204 71.5367C73.641 72.5867 73.2904 73.702 73.3409 74.8634C73.3912 76.0195 73.8347 77.1291 74.5863 78.1812L76.2137 77.0188ZM76.16 72.08C76.16 72.1647 76.1476 72.2268 76.1414 72.2541C76.1345 72.2846 76.1279 72.3032 76.1267 72.3063C76.125 72.3113 76.1311 72.2939 76.1544 72.2472C76.2006 72.1548 76.2817 72.012 76.408 71.81L74.712 70.75C74.5716 70.9747 74.4527 71.1785 74.3656 71.3528C74.3222 71.4394 74.2784 71.5354 74.2433 71.6337C74.2152 71.7122 74.16 71.879 74.16 72.08H76.16ZM76.4808 71.6701L78.4808 66.9501L76.6392 66.1699L74.6392 70.8899L76.4808 71.6701ZM78.5386 66.766L78.8586 65.246L76.9015 64.834L76.5815 66.354L78.5386 66.766ZM78.88 65.04C78.88 65.1903 78.8355 65.2715 78.8503 65.2377C78.8579 65.2204 78.8828 65.171 78.9396 65.0833C79.0527 64.9084 79.2418 64.6588 79.5234 64.3259L77.9966 63.0341C77.6916 63.3946 77.4406 63.7183 77.2604 63.9967C77.1706 64.1356 77.0854 64.2829 77.0197 64.4323C76.9612 64.5652 76.88 64.783 76.88 65.04H78.88ZM79.6738 64.0861C79.862 63.6626 80.1004 63.2321 80.3921 62.7947L78.7279 61.6853C78.3796 62.2079 78.0846 62.7374 77.8462 63.2739L79.6738 64.0861ZM80.3921 62.7947C80.5548 62.5506 80.6852 62.3484 80.7775 62.1945C80.8226 62.1193 80.8676 62.0408 80.9044 61.9672C80.9223 61.9314 80.9467 61.8801 80.9688 61.8211C80.9791 61.7937 81.04 61.6393 81.04 61.44H79.04C79.04 61.3299 79.0589 61.2462 79.068 61.21C79.0787 61.1673 79.09 61.1354 79.0962 61.1189C79.1083 61.0865 79.1177 61.0686 79.1156 61.0728C79.1124 61.0792 79.0974 61.1073 79.0625 61.1655C78.9948 61.2783 78.8852 61.4494 78.7279 61.6853L80.3921 62.7947ZM80.8784 61.985C81.5428 60.9629 82.1463 60.2531 82.6802 59.8082L81.3998 58.2718C80.6537 58.8935 79.9239 59.7837 79.2016 60.895L80.8784 61.985ZM82.8784 59.585L83.9184 57.985L82.2416 56.895L81.2016 58.495L82.8784 59.585ZM83.8561 58.0706L84.8961 56.7906L83.3439 55.5294L82.3039 56.8094L83.8561 58.0706ZM85.12 56.16C85.12 56.2949 85.0762 56.3261 85.146 56.1889C85.2027 56.0776 85.3043 55.9135 85.4678 55.6895C85.7935 55.2432 86.3025 54.6433 87.0119 53.8814L85.5481 52.5186C84.8175 53.3033 84.2465 53.9701 83.8522 54.5105C83.6557 54.7798 83.4873 55.039 83.364 55.2811C83.2538 55.4973 83.12 55.8117 83.12 56.16H85.12ZM87.2085 53.5714C87.2049 53.5802 87.2203 53.5432 87.2825 53.4395C87.3393 53.3447 87.4197 53.22 87.5269 53.0623C87.7412 52.7473 88.0441 52.3278 88.44 51.8L86.84 50.6C86.4359 51.1388 86.1122 51.5861 85.8731 51.9377C85.6539 52.2601 85.4513 52.5792 85.3515 52.8286L87.2085 53.5714ZM88.5763 51.5511L89.2963 49.6311L87.4237 48.9289L86.7037 50.8489L88.5763 51.5511Z" fill="#33B1B1"/>
</g>
<defs>
<filter id="filter0_d_157_14" x="0.359985" y="23.64" width="46.16" height="64.88" filterUnits="userSpaceOnUse" color-interpolation-filters="sRGB">
<feFlood flood-opacity="0" result="BackgroundImageFix"/>
<feColorMatrix in="SourceAlpha" type="matrix" values="0 0 0 0 0 0 0 0 0 0 0 0 0 0 0 0 0 0 127 0" result="hardAlpha"/>
<feOffset dy="4"/>
<feGaussianBlur stdDeviation="2"/>
<feComposite in2="hardAlpha" operator="out"/>
<feColorMatrix type="matrix" values="0 0 0 0 0 0 0 0 0 0 0 0 0 0 0 0 0 0 0.25 0"/>
<feBlend mode="normal" in2="BackgroundImageFix" result="effect1_dropShadow_157_14"/>
<feBlend mode="normal" in="SourceGraphic" in2="effect1_dropShadow_157_14" result="shape"/>
</filter>
<filter id="filter1_d_157_14" x="32.84" y="64.16" width="43.04" height="62.2401" filterUnits="userSpaceOnUse" color-interpolation-filters="sRGB">
<feFlood flood-opacity="0" result="BackgroundImageFix"/>
<feColorMatrix in="SourceAlpha" type="matrix" values="0 0 0 0 0 0 0 0 0 0 0 0 0 0 0 0 0 0 127 0" result="hardAlpha"/>
<feOffset dy="4"/>
<feGaussianBlur stdDeviation="2"/>
<feComposite in2="hardAlpha" operator="out"/>
<feColorMatrix type="matrix" values="0 0 0 0 0 0 0 0 0 0 0 0 0 0 0 0 0 0 0.25 0"/>
<feBlend mode="normal" in2="BackgroundImageFix" result="effect1_dropShadow_157_14"/>
<feBlend mode="normal" in="SourceGraphic" in2="effect1_dropShadow_157_14" result="shape"/>
</filter>
<filter id="filter2_d_157_14" x="69.4" y="24.32" width="48.4" height="65.12" filterUnits="userSpaceOnUse" color-interpolation-filters="sRGB">
<feFlood flood-opacity="0" result="BackgroundImageFix"/>
<feColorMatrix in="SourceAlpha" type="matrix" values="0 0 0 0 0 0 0 0 0 0 0 0 0 0 0 0 0 0 127 0" result="hardAlpha"/>
<feOffset dy="4"/>
<feGaussianBlur stdDeviation="2"/>
<feComposite in2="hardAlpha" operator="out"/>
<feColorMatrix type="matrix" values="0 0 0 0 0 0 0 0 0 0 0 0 0 0 0 0 0 0 0.25 0"/>
<feBlend mode="normal" in2="BackgroundImageFix" result="effect1_dropShadow_157_14"/>
<feBlend mode="normal" in="SourceGraphic" in2="effect1_dropShadow_157_14" result="shape"/>
</filter>
</defs>
</svg>
