<svg width="100" height="56" viewBox="0 0 100 56" fill="none" xmlns="http://www.w3.org/2000/svg">
<path d="M86.9016 34.4451C87.4505 33.6402 88.7079 33.986 88.7359 34.9496L88.8543 39.0319C88.8668 39.4628 89.1582 39.8325 89.576 39.9474L93.5328 41.0357C94.4665 41.2925 94.505 42.5878 93.589 42.9266L89.7027 44.3642C89.2933 44.5157 89.0247 44.9094 89.0372 45.3397L89.1557 49.4261C89.1836 50.3894 87.95 50.8441 87.3556 50.0896L84.8392 46.895C84.5732 46.5572 84.115 46.4312 83.7047 46.5829L79.8246 48.0182C78.9082 48.3572 78.1073 47.3429 78.6559 46.5382L80.9835 43.1246C81.2286 42.7651 81.2148 42.2937 80.9493 41.9566L78.4289 38.7569C77.8348 38.0028 78.5734 36.9212 79.5071 37.178L83.4639 38.2663C83.8817 38.3812 84.3309 38.2153 84.5763 37.8553L86.9016 34.4451Z" fill="#FF57BB"/>
<path d="M20.6932 10.9292C21.5706 10.4951 22.5098 11.4003 22.0629 12.2494L20.1702 15.8459C19.9704 16.2256 20.0464 16.6864 20.3585 16.9872L23.3126 19.8343C24.0098 20.5063 23.4104 21.6479 22.4375 21.5012L18.3087 20.8783C17.8739 20.8127 17.4447 21.0248 17.2452 21.4038L15.3501 25.0049C14.9034 25.8537 13.5938 25.6541 13.4392 24.7138L12.785 20.7338C12.7158 20.3127 12.3735 19.9829 11.9376 19.9171L7.81729 19.2955C6.84377 19.1486 6.6338 17.8836 7.51093 17.4497L11.2325 15.6088C11.6242 15.4151 11.8426 14.9998 11.7736 14.5798L11.1181 10.5917C10.9636 9.6519 12.1434 9.06965 12.8406 9.74159L15.7948 12.5888C16.1069 12.8895 16.5839 12.9618 16.9763 12.7677L20.6932 10.9292Z" fill="#FF57BB"/>
<g filter="url(#filter0_d_157_14)">
<path d="M31.9363 20.362C31.2083 19.942 29.7943 19.732 27.6943 19.732L27.9463 22.336C28.1703 23.848 28.3663 26.676 28.5343 30.82C28.7863 30.764 28.9543 30.694 29.0383 30.61C29.2623 30.442 29.5003 30.358 29.7523 30.358C30.1163 30.274 30.4663 30.022 30.8023 29.602C31.6423 28.902 32.2863 28.314 32.7343 27.838L34.1203 26.242C34.2043 26.214 34.3443 25.906 34.5403 25.318C34.7363 24.702 34.8623 24.198 34.9183 23.806C34.9183 22.994 34.8343 22.532 34.6663 22.42C34.6663 22.364 34.4983 22.014 34.1623 21.37C34.0503 21.286 33.7143 21.076 33.1543 20.74L31.9363 20.362ZM23.2423 15.532L25.5943 15.196L28.6183 14.986L30.2143 15.196C30.3263 15.308 30.5923 15.378 31.0123 15.406C31.8243 15.378 32.9163 15.84 34.2883 16.792C34.6243 16.904 34.9043 17.1 35.1283 17.38L36.7243 19.312C36.7803 19.368 36.8643 19.522 36.9763 19.774C37.0883 19.998 37.2423 20.264 37.4383 20.572C37.3823 20.572 37.4243 20.684 37.5643 20.908C37.9283 21.524 38.0963 21.888 38.0683 22C38.2083 22.112 38.3483 22.476 38.4883 23.092C38.6283 23.708 38.6703 24.128 38.6143 24.352C38.6423 24.38 38.6143 24.702 38.5303 25.318C38.3343 26.662 37.9843 27.656 37.4803 28.3L36.9343 29.308L36.0103 30.652L35.4643 31.156C34.4563 32.276 33.2243 33.144 31.7683 33.76C31.7123 33.788 31.6283 33.816 31.5163 33.844L30.5083 34.18L28.8703 34.6C28.8703 35.412 28.9683 37.288 29.1643 40.228C29.2763 41.236 29.3603 41.796 29.4163 41.908C29.4163 42.832 29.3603 43.448 29.2483 43.756C29.1363 44.092 28.9543 44.33 28.7023 44.47C28.4503 44.638 28.0163 44.736 27.4003 44.764C27.2323 44.82 26.9383 44.764 26.5183 44.596C26.0983 44.456 25.7623 44.232 25.5103 43.924L25.2583 42.58C25.3143 42.524 25.2303 42.258 25.0063 41.782C24.8103 41.558 24.6563 41.166 24.5443 40.606L24.2503 36.616L24.2083 35.272C22.5843 35.384 21.6043 34.936 21.2683 33.928C20.9883 33.396 20.9323 33.046 21.1003 32.878L21.3103 32.332C21.6463 31.8 22.2903 31.534 23.2423 31.534H24.1243C24.0683 31.478 24.0403 31.282 24.0403 30.946L23.8723 29.182V28.426L23.8303 27.88C23.8583 27.628 23.8443 27.348 23.7883 27.04V26.788L23.7043 25.738V24.94L23.6623 24.52C23.6623 22.532 23.5503 21.272 23.3263 20.74C22.4023 21.272 21.7863 21.566 21.4783 21.622C21.1703 21.65 20.6523 21.44 19.9243 20.992C19.6163 20.74 19.4483 20.46 19.4203 20.152C18.9163 19.452 18.7483 18.878 18.9163 18.43C18.9723 18.206 19.1963 17.856 19.5883 17.38C19.6163 17.268 19.9523 17.016 20.5963 16.624C21.1003 16.12 21.9823 15.756 23.2423 15.532Z" fill="#274C77"/>
<path d="M31.9363 20.362L31.4366 21.2282L31.5333 21.284L31.6399 21.3171L31.9363 20.362ZM27.6943 19.732V18.732H26.5929L26.699 19.8283L27.6943 19.732ZM27.9463 22.336L26.951 22.4323L26.9534 22.4575L26.9571 22.4825L27.9463 22.336ZM28.5343 30.82L27.5351 30.8605L27.5836 32.0557L28.7512 31.7962L28.5343 30.82ZM29.0383 30.61L28.4383 29.81L28.3815 29.8526L28.3312 29.9029L29.0383 30.61ZM29.7523 30.358V31.358H29.8662L29.9772 31.3324L29.7523 30.358ZM30.8023 29.602L30.1621 28.8338L30.0845 28.8984L30.0214 28.9773L30.8023 29.602ZM32.7343 27.838L33.4625 28.5234L33.4762 28.5088L33.4893 28.4937L32.7343 27.838ZM34.1203 26.242L33.8041 25.2933L33.5446 25.3798L33.3653 25.5863L34.1203 26.242ZM34.5403 25.318L35.4891 25.6343L35.4932 25.6212L34.5403 25.318ZM34.9183 23.806L35.9083 23.9474L35.9183 23.8771V23.806H34.9183ZM34.6663 22.42H33.6663V22.9552L34.1116 23.2521L34.6663 22.42ZM34.1623 21.37L35.0489 20.9074L34.9439 20.7062L34.7623 20.57L34.1623 21.37ZM33.1543 20.74L33.6688 19.8825L33.5656 19.8206L33.4507 19.7849L33.1543 20.74ZM23.2423 15.532L23.1009 14.542L23.084 14.5445L23.0673 14.5474L23.2423 15.532ZM25.5943 15.196L25.525 14.1984L25.4888 14.2009L25.4529 14.206L25.5943 15.196ZM28.6183 14.986L28.7488 13.9945L28.6492 13.9814L28.549 13.9884L28.6183 14.986ZM30.2143 15.196L30.9214 14.4889L30.6814 14.2488L30.3448 14.2045L30.2143 15.196ZM31.0123 15.406L30.9458 16.4038L30.9962 16.4071L31.0468 16.4054L31.0123 15.406ZM34.2883 16.792L33.7182 17.6136L33.836 17.6953L33.9721 17.7407L34.2883 16.792ZM35.1283 17.38L34.3474 18.0047L34.3523 18.0108L34.3573 18.0169L35.1283 17.38ZM36.7243 19.312L35.9533 19.9489L35.9836 19.9855L36.0172 20.0191L36.7243 19.312ZM36.9763 19.774L36.0625 20.1801L36.0717 20.2009L36.0819 20.2212L36.9763 19.774ZM37.4383 20.572V21.572H39.26L38.282 20.0351L37.4383 20.572ZM37.5643 20.908L38.4252 20.3993L38.4189 20.3886L38.4123 20.378L37.5643 20.908ZM38.0683 22L37.0982 21.7575L36.9425 22.38L37.4436 22.7809L38.0683 22ZM38.4883 23.092L39.4634 22.8704L39.4634 22.8704L38.4883 23.092ZM38.6143 24.352L37.6442 24.1095L37.5068 24.6587L37.9072 25.0591L38.6143 24.352ZM38.5303 25.318L39.5199 25.4623L39.5211 25.4531L38.5303 25.318ZM37.4803 28.3L36.6928 27.6837L36.641 27.7498L36.601 27.8237L37.4803 28.3ZM36.9343 29.308L37.7583 29.8745L37.7884 29.8309L37.8136 29.7843L36.9343 29.308ZM36.0103 30.652L36.6886 31.3868L36.7709 31.3108L36.8343 31.2185L36.0103 30.652ZM35.4643 31.156L34.786 30.4212L34.752 30.4526L34.721 30.487L35.4643 31.156ZM31.7683 33.76L31.3787 32.839L31.3495 32.8514L31.3211 32.8656L31.7683 33.76ZM31.5163 33.844L31.2738 32.8739L31.2365 32.8832L31.2001 32.8953L31.5163 33.844ZM30.5083 34.18L30.7567 35.1487L30.791 35.1399L30.8245 35.1287L30.5083 34.18ZM28.8703 34.6L28.6219 33.6313L27.8703 33.8241V34.6H28.8703ZM29.1643 40.228L28.1665 40.2945L28.168 40.3165L28.1704 40.3384L29.1643 40.228ZM29.4163 41.908H30.4163V41.6719L30.3107 41.4608L29.4163 41.908ZM29.2483 43.756L28.3085 43.4143L28.3039 43.427L28.2996 43.4398L29.2483 43.756ZM28.7023 44.47L28.2167 43.5958L28.1813 43.6155L28.1476 43.638L28.7023 44.47ZM27.4003 44.764L27.3549 43.765L27.216 43.7713L27.0841 43.8153L27.4003 44.764ZM26.5183 44.596L26.8897 43.6675L26.8624 43.6566L26.8345 43.6473L26.5183 44.596ZM25.5103 43.924L24.5274 44.1083L24.5745 44.3595L24.7363 44.5572L25.5103 43.924ZM25.2583 42.58L24.5512 41.8729L24.1782 42.2459L24.2754 42.7643L25.2583 42.58ZM25.0063 41.782L25.9111 41.3562L25.8513 41.2292L25.7589 41.1235L25.0063 41.782ZM24.5443 40.606L23.547 40.6795L23.5516 40.7413L23.5637 40.8021L24.5443 40.606ZM24.2503 36.616L23.2508 36.6472L23.2515 36.6684L23.253 36.6895L24.2503 36.616ZM24.2083 35.272L25.2078 35.2408L25.1754 34.2029L24.1395 34.2744L24.2083 35.272ZM21.2683 33.928L22.217 33.6118L22.1912 33.5344L22.1532 33.4623L21.2683 33.928ZM21.1003 32.878L21.8074 33.5851L21.9575 33.435L22.0337 33.237L21.1003 32.878ZM21.3103 32.332L20.4648 31.798L20.4123 31.8812L20.377 31.973L21.3103 32.332ZM24.1243 31.534V32.534H26.5385L24.8314 30.8269L24.1243 31.534ZM24.0403 30.946H25.0403V30.8985L25.0358 30.8512L24.0403 30.946ZM23.8723 29.182H22.8723V29.2295L22.8768 29.2768L23.8723 29.182ZM23.8723 28.426H24.8723V28.3876L24.8694 28.3493L23.8723 28.426ZM23.8303 27.88L22.8364 27.7696L22.826 27.863L22.8333 27.9567L23.8303 27.88ZM23.7883 27.04H22.7883V27.1302L22.8044 27.2189L23.7883 27.04ZM23.7883 26.788H24.7883V26.7481L24.7851 26.7083L23.7883 26.788ZM23.7043 25.738H22.7043V25.7779L22.7075 25.8177L23.7043 25.738ZM23.7043 24.94H24.7043V24.8901L24.6993 24.8405L23.7043 24.94ZM23.6623 24.52H22.6623V24.5699L22.6673 24.6195L23.6623 24.52ZM23.3263 20.74L24.2479 20.3519L23.8086 19.3084L22.8273 19.8734L23.3263 20.74ZM21.4783 21.622L21.5688 22.6179L21.6133 22.6139L21.6572 22.6059L21.4783 21.622ZM19.9243 20.992L19.2911 21.766L19.343 21.8085L19.4002 21.8437L19.9243 20.992ZM19.4203 20.152L20.4162 20.0615L20.3915 19.7894L20.2318 19.5677L19.4203 20.152ZM18.9163 18.43L19.8526 18.7811L19.8726 18.7278L19.8864 18.6725L18.9163 18.43ZM19.5883 17.38L20.3602 18.0157L20.5037 17.8415L20.5584 17.6225L19.5883 17.38ZM20.5963 16.624L21.1163 17.4782L21.2186 17.4159L21.3034 17.3311L20.5963 16.624ZM32.436 19.4958C31.9128 19.1939 31.2332 19.0127 30.4767 18.9003C29.7043 18.7856 28.7729 18.732 27.6943 18.732V20.732C28.7157 20.732 29.5413 20.7834 30.1829 20.8786C30.8404 20.9763 31.2318 21.1101 31.4366 21.2282L32.436 19.4958ZM26.699 19.8283L26.951 22.4323L28.9417 22.2397L28.6897 19.6357L26.699 19.8283ZM26.9571 22.4825C27.1722 23.9344 27.3669 26.7116 27.5351 30.8605L29.5335 30.7795C29.3657 26.6404 29.1684 23.7616 28.9355 22.1895L26.9571 22.4825ZM28.7512 31.7962C29.017 31.7371 29.4412 31.6213 29.7454 31.3171L28.3312 29.9029C28.3777 29.8564 28.4177 29.8295 28.4381 29.8171C28.459 29.8043 28.4698 29.8003 28.4647 29.8024C28.4601 29.8043 28.4461 29.8098 28.4202 29.8175C28.3946 29.8252 28.3607 29.8342 28.3174 29.8438L28.7512 31.7962ZM29.6383 31.41C29.7095 31.3566 29.7407 31.358 29.7523 31.358V29.358C29.2599 29.358 28.8152 29.5274 28.4383 29.81L29.6383 31.41ZM29.9772 31.3324C30.6389 31.1797 31.1666 30.7474 31.5832 30.2267L30.0214 28.9773C29.766 29.2966 29.5937 29.3683 29.5274 29.3836L29.9772 31.3324ZM31.4425 30.3702C32.2959 29.6591 32.9747 29.0417 33.4625 28.5234L32.0061 27.1526C31.5979 27.5863 30.9887 28.1449 30.1621 28.8338L31.4425 30.3702ZM33.4893 28.4937L34.8753 26.8977L33.3653 25.5863L31.9793 27.1823L33.4893 28.4937ZM34.4365 27.1907C34.6544 27.1181 34.7954 26.9916 34.8615 26.9255C34.9362 26.8508 34.9903 26.7766 35.0259 26.7232C35.0969 26.6166 35.1541 26.5018 35.1987 26.4038C35.2904 26.202 35.3874 25.939 35.489 25.6342L33.5916 25.0018C33.4972 25.285 33.4262 25.47 33.3779 25.5762C33.3525 25.6322 33.3467 25.6364 33.3618 25.6138C33.3693 25.6024 33.3972 25.5614 33.4473 25.5113C33.4735 25.4851 33.5134 25.4487 33.5675 25.4113C33.6212 25.3741 33.7003 25.3279 33.8041 25.2933L34.4365 27.1907ZM35.4932 25.6212C35.6969 24.981 35.8411 24.4176 35.9083 23.9474L33.9284 23.6646C33.8835 23.9784 33.7757 24.423 33.5874 25.0148L35.4932 25.6212ZM35.9183 23.806C35.9183 23.3766 35.8969 22.9891 35.8392 22.6716C35.8104 22.5133 35.7664 22.3367 35.6922 22.1676C35.623 22.01 35.487 21.7653 35.221 21.5879L34.1116 23.2521C33.9296 23.1307 33.8671 22.9857 33.8609 22.9716C33.8497 22.946 33.8582 22.9567 33.8714 23.0294C33.8977 23.1739 33.9183 23.4234 33.9183 23.806H35.9183ZM35.6663 22.42C35.6663 22.2379 35.6141 22.0905 35.6097 22.0767C35.5929 22.0252 35.5741 21.9774 35.5588 21.9405C35.5274 21.8647 35.4868 21.7764 35.4418 21.6828C35.3505 21.4926 35.2184 21.2324 35.0489 20.9074L33.2757 21.8326C33.4422 22.1516 33.5621 22.3884 33.6388 22.5482C33.6779 22.6296 33.7002 22.6796 33.7108 22.7052C33.7165 22.7191 33.7134 22.7129 33.7072 22.6937C33.7041 22.6841 33.6966 22.6602 33.689 22.6269C33.6836 22.6029 33.6663 22.5246 33.6663 22.42H35.6663ZM34.7623 20.57C34.5987 20.4473 34.2077 20.2059 33.6688 19.8825L32.6398 21.5975C32.9175 21.7641 33.1357 21.8971 33.2963 21.9975C33.3767 22.0477 33.44 22.0881 33.4877 22.1194C33.5114 22.135 33.5297 22.1473 33.5433 22.1566C33.5576 22.1665 33.563 22.1705 33.5623 22.17L34.7623 20.57ZM33.4507 19.7849L32.2327 19.4069L31.6399 21.3171L32.8579 21.6951L33.4507 19.7849ZM23.3837 16.5219L25.7357 16.1859L25.4529 14.206L23.1009 14.542L23.3837 16.5219ZM25.6636 16.1936L28.6876 15.9836L28.549 13.9884L25.525 14.1984L25.6636 16.1936ZM28.4879 15.9775L30.0839 16.1875L30.3448 14.2045L28.7488 13.9945L28.4879 15.9775ZM29.5072 15.9031C29.7497 16.1457 30.0491 16.2485 30.2433 16.2996C30.4611 16.3569 30.7019 16.3875 30.9458 16.4038L31.0788 14.4082C30.9938 14.4025 30.9239 14.3952 30.8676 14.3872C30.8107 14.379 30.7735 14.371 30.7523 14.3654C30.7297 14.3595 30.7362 14.3592 30.761 14.3711C30.7842 14.3823 30.8488 14.4163 30.9214 14.4889L29.5072 15.9031ZM31.0468 16.4054C31.5109 16.3894 32.3692 16.6775 33.7182 17.6136L34.8584 15.9704C33.4634 15.0025 32.1377 14.3666 30.9778 14.4066L31.0468 16.4054ZM33.9721 17.7407C34.1228 17.7909 34.2423 17.8732 34.3474 18.0047L35.9092 16.7553C35.5663 16.3268 35.1258 16.0171 34.6045 15.8433L33.9721 17.7407ZM34.3573 18.0169L35.9533 19.9489L37.4953 18.6751L35.8993 16.7431L34.3573 18.0169ZM36.0172 20.0191C35.9888 19.9907 35.9694 19.9671 35.9591 19.9539C35.9483 19.94 35.9417 19.9304 35.9395 19.9271C35.9357 19.9214 35.9396 19.9266 35.9514 19.9484C35.9753 19.9922 36.012 20.0666 36.0625 20.1801L37.8901 19.3679C37.8286 19.2294 37.7673 19.1008 37.7072 18.9906C37.6611 18.9062 37.5689 18.7424 37.4314 18.6049L36.0172 20.0191ZM36.0819 20.2212C36.2145 20.4864 36.3877 20.7837 36.5946 21.1089L38.282 20.0351C38.0969 19.7443 37.9622 19.5096 37.8707 19.3268L36.0819 20.2212ZM37.4383 19.572C37.2682 19.572 36.9976 19.6164 36.7575 19.8298C36.5185 20.0423 36.443 20.3039 36.4224 20.469C36.3883 20.7421 36.4742 20.9611 36.4915 21.0071C36.5503 21.164 36.6428 21.3204 36.7163 21.438L38.4123 20.378C38.3458 20.2716 38.3473 20.26 38.3641 20.3049C38.3704 20.3216 38.3842 20.3605 38.3956 20.4153C38.4055 20.4625 38.4249 20.5734 38.407 20.717C38.3881 20.8681 38.3174 21.1192 38.0863 21.3247C37.854 21.5311 37.5944 21.572 37.4383 21.572V19.572ZM36.7034 21.4167C36.8793 21.7144 36.9924 21.9256 37.0553 22.0621C37.0877 22.1322 37.0952 22.1578 37.0932 22.1509C37.092 22.147 37.0828 22.1158 37.0767 22.0653C37.0717 22.0233 37.0608 21.9069 37.0982 21.7575L39.0384 22.2425C39.1157 21.9335 39.0342 21.6622 39.0119 21.5866C38.9749 21.4607 38.9229 21.3358 38.8713 21.2239C38.7662 20.9964 38.6133 20.7176 38.4252 20.3993L36.7034 21.4167ZM37.4436 22.7809C37.3912 22.739 37.3576 22.7006 37.3399 22.6785C37.3217 22.6558 37.3127 22.6406 37.3114 22.6383C37.3098 22.6356 37.3223 22.6571 37.345 22.716C37.3906 22.8345 37.4482 23.0275 37.5132 23.3136L39.4634 22.8704C39.3885 22.5405 39.3061 22.2435 39.2117 21.998C39.1366 21.8028 38.9892 21.4561 38.693 21.2191L37.4436 22.7809ZM37.5132 23.3136C37.578 23.599 37.6144 23.8143 37.6298 23.9685C37.6472 24.1425 37.63 24.1662 37.6442 24.1095L39.5844 24.5945C39.6546 24.3138 39.6444 24.0155 39.6198 23.7695C39.5933 23.5037 39.5386 23.201 39.4634 22.8704L37.5132 23.3136ZM37.9072 25.0591C37.8187 24.9706 37.7643 24.8827 37.7326 24.8226C37.6999 24.7608 37.6798 24.7067 37.6677 24.6692C37.6442 24.5968 37.6351 24.5389 37.6316 24.5129C37.6274 24.4828 37.626 24.4602 37.6254 24.4493C37.6248 24.4374 37.6248 24.4299 37.6248 24.4281C37.6248 24.4253 37.6249 24.4318 37.6238 24.4513C37.6227 24.4697 37.6209 24.4949 37.6181 24.5279C37.6062 24.664 37.5809 24.8792 37.5395 25.1829L39.5211 25.4531C39.5637 25.1408 39.5944 24.887 39.6105 24.7011C39.6183 24.6115 39.6248 24.5155 39.6248 24.4281C39.6248 24.3877 39.6236 24.3183 39.6128 24.2396C39.6075 24.201 39.5962 24.1327 39.5701 24.0522C39.5504 23.9915 39.4883 23.8117 39.3214 23.6449L37.9072 25.0591ZM37.5408 25.1737C37.3552 26.4465 37.0405 27.2394 36.6928 27.6837L38.2678 28.9163C38.9281 28.0726 39.3135 26.8775 39.5198 25.4623L37.5408 25.1737ZM36.601 27.8237L36.055 28.8317L37.8136 29.7843L38.3596 28.7763L36.601 27.8237ZM36.1103 28.7415L35.1863 30.0855L36.8343 31.2185L37.7583 29.8745L36.1103 28.7415ZM35.332 29.9172L34.786 30.4212L36.1426 31.8908L36.6886 31.3868L35.332 29.9172ZM34.721 30.487C33.8158 31.4928 32.7065 32.2772 31.3787 32.839L32.1579 34.681C33.7421 34.0108 35.0968 33.0592 36.2076 31.825L34.721 30.487ZM31.3211 32.8656C31.3363 32.858 31.3464 32.8538 31.3497 32.8525C31.3532 32.8511 31.3526 32.8515 31.3471 32.8533C31.3353 32.8572 31.3119 32.8643 31.2738 32.8739L31.7588 34.8141C31.893 34.7806 32.061 34.7317 32.2155 34.6544L31.3211 32.8656ZM31.2001 32.8953L30.1921 33.2313L30.8245 35.1287L31.8325 34.7927L31.2001 32.8953ZM30.2599 33.2113L28.6219 33.6313L29.1187 35.5687L30.7567 35.1487L30.2599 33.2113ZM27.8703 34.6C27.8703 35.4523 27.9712 37.3647 28.1665 40.2945L30.1621 40.1615C29.9654 37.2113 29.8703 35.3717 29.8703 34.6H27.8703ZM28.1704 40.3384C28.2269 40.8469 28.2776 41.2536 28.3224 41.5523C28.3446 41.7007 28.3671 41.8336 28.3901 41.944C28.4048 42.0145 28.4415 42.1944 28.5219 42.3552L30.3107 41.4608C30.3315 41.5023 30.3433 41.5344 30.3481 41.5479C30.3536 41.5634 30.3563 41.573 30.3566 41.5743C30.3571 41.576 30.3541 41.5651 30.348 41.536C30.336 41.4784 30.32 41.3873 30.3002 41.2557C30.2611 40.9944 30.2137 40.6171 30.1582 40.1176L28.1704 40.3384ZM28.4163 41.908C28.4163 42.353 28.4027 42.7053 28.3784 42.9725C28.3526 43.2562 28.3196 43.3838 28.3085 43.4143L30.1881 44.0977C30.289 43.8202 30.34 43.4858 30.3702 43.1535C30.4019 42.8047 30.4163 42.387 30.4163 41.908H28.4163ZM28.2996 43.4398C28.2724 43.5215 28.2463 43.5623 28.2334 43.579C28.2226 43.5933 28.2178 43.5952 28.2167 43.5958L29.1879 45.3442C29.706 45.0564 30.0248 44.5887 30.197 44.0722L28.2996 43.4398ZM28.1476 43.638C28.1592 43.6302 28.1161 43.6605 27.9675 43.6941C27.8252 43.7262 27.6247 43.7528 27.3549 43.765L27.4457 45.763C28.0906 45.7337 28.7633 45.6312 29.257 45.302L28.1476 43.638ZM27.0841 43.8153C27.1697 43.7868 27.2318 43.785 27.2507 43.785C27.2709 43.785 27.2698 43.7872 27.2409 43.7817C27.1801 43.7701 27.067 43.7385 26.8897 43.6675L26.1469 45.5245C26.3896 45.6215 26.6335 45.7019 26.8667 45.7463C27.0797 45.7869 27.3944 45.8201 27.7165 45.7127L27.0841 43.8153ZM26.8345 43.6473C26.573 43.5601 26.4034 43.4364 26.2843 43.2908L24.7363 44.5572C25.1212 45.0276 25.6236 45.3519 26.2021 45.5447L26.8345 43.6473ZM26.4932 43.7397L26.2412 42.3957L24.2754 42.7643L24.5274 44.1083L26.4932 43.7397ZM25.9654 43.2871C26.1592 43.0933 26.2285 42.8738 26.2545 42.7392C26.2809 42.6031 26.2767 42.486 26.2703 42.412C26.2575 42.265 26.2205 42.1311 26.1909 42.0374C26.1284 41.8396 26.0286 41.6059 25.9111 41.3562L24.1015 42.2078C24.208 42.4341 24.2622 42.5714 24.2837 42.6396C24.2961 42.6789 24.2836 42.6518 24.2778 42.5853C24.2749 42.5515 24.2699 42.4681 24.291 42.3591C24.3118 42.2516 24.3714 42.0527 24.5512 41.8729L25.9654 43.2871ZM25.7589 41.1235C25.761 41.126 25.7255 41.0841 25.6746 40.9543C25.6252 40.8287 25.5731 40.6509 25.5249 40.4099L23.5637 40.8021C23.6838 41.4025 23.8785 42.0117 24.2537 42.4405L25.7589 41.1235ZM25.5416 40.5325L25.2476 36.5425L23.253 36.6895L23.547 40.6795L25.5416 40.5325ZM25.2498 36.5848L25.2078 35.2408L23.2088 35.3032L23.2508 36.6472L25.2498 36.5848ZM24.1395 34.2744C23.4158 34.3243 22.9514 34.2387 22.6711 34.1105C22.4292 34 22.2959 33.8485 22.217 33.6118L20.3196 34.2442C20.5767 35.0155 21.1014 35.592 21.8395 35.9295C22.5392 36.2493 23.3768 36.3317 24.2771 36.2696L24.1395 34.2744ZM22.1532 33.4623C22.0971 33.3557 22.0592 33.2713 22.0348 33.2071C22.0227 33.1755 22.0149 33.1512 22.01 33.1338C22.005 33.1162 22.0037 33.1081 22.0037 33.1085C22.0038 33.1087 22.0058 33.1212 22.0058 33.1438C22.0058 33.1665 22.0038 33.203 21.9937 33.2495C21.972 33.3501 21.9166 33.4759 21.8074 33.5851L20.3932 32.1709C19.9868 32.5773 19.9763 33.0957 20.0289 33.4245C20.0819 33.7562 20.2228 34.0887 20.3834 34.3937L22.1532 33.4623ZM22.0337 33.237L22.2437 32.691L20.377 31.973L20.167 32.519L22.0337 33.237ZM22.1558 32.866C22.2269 32.7534 22.4459 32.534 23.2423 32.534V30.534C22.1347 30.534 21.0657 30.8466 20.4648 31.798L22.1558 32.866ZM23.2423 32.534H24.1243V30.534H23.2423V32.534ZM24.8314 30.8269C24.9105 30.906 24.9583 30.9826 24.9851 31.0323C25.0126 31.0834 25.0282 31.1253 25.0362 31.1495C25.0515 31.1953 25.0535 31.219 25.0513 31.2036C25.0496 31.1921 25.0466 31.1654 25.0442 31.1192C25.0418 31.074 25.0403 31.0168 25.0403 30.946H23.0403C23.0403 31.1336 23.0476 31.3204 23.0714 31.4864C23.0831 31.569 23.1026 31.6732 23.1389 31.782C23.1694 31.8735 23.243 32.0669 23.4172 32.2411L24.8314 30.8269ZM25.0358 30.8512L24.8678 29.0872L22.8768 29.2768L23.0448 31.0408L25.0358 30.8512ZM24.8723 29.182V28.426H22.8723V29.182H24.8723ZM24.8694 28.3493L24.8274 27.8033L22.8333 27.9567L22.8753 28.5027L24.8694 28.3493ZM24.8242 27.9904C24.8651 27.6225 24.8416 27.2431 24.7722 26.8611L22.8044 27.2189C22.847 27.4529 22.8515 27.6335 22.8364 27.7696L24.8242 27.9904ZM24.7883 27.04V26.788H22.7883V27.04H24.7883ZM24.7851 26.7083L24.7011 25.6583L22.7075 25.8177L22.7915 26.8677L24.7851 26.7083ZM24.7043 25.738V24.94H22.7043V25.738H24.7043ZM24.6993 24.8405L24.6573 24.4205L22.6673 24.6195L22.7093 25.0395L24.6993 24.8405ZM24.6623 24.52C24.6623 23.5111 24.634 22.6665 24.5744 21.9955C24.5175 21.3552 24.4249 20.7722 24.2479 20.3519L22.4047 21.1281C22.4517 21.2398 22.5271 21.5528 22.5822 22.1725C22.6346 22.7614 22.6623 23.5409 22.6623 24.52H24.6623ZM22.8273 19.8734C22.3768 20.1328 22.0163 20.3254 21.7406 20.457C21.6029 20.5227 21.4947 20.5692 21.4128 20.6002C21.3256 20.6332 21.2927 20.6394 21.2994 20.6381L21.6572 22.6059C21.9517 22.5523 22.2853 22.4132 22.602 22.262C22.9423 22.0996 23.3519 21.8792 23.8253 21.6066L22.8273 19.8734ZM21.3878 20.6261C21.4739 20.6183 21.447 20.6449 21.2345 20.5588C21.0464 20.4825 20.7871 20.3488 20.4484 20.1403L19.4002 21.8437C19.7895 22.0832 20.1533 22.2785 20.4831 22.4122C20.7886 22.5361 21.1747 22.6537 21.5688 22.6179L21.3878 20.6261ZM20.5575 20.218C20.4738 20.1495 20.4382 20.1008 20.4248 20.0785C20.4183 20.0677 20.4165 20.0622 20.4162 20.0615C20.4161 20.061 20.4162 20.0615 20.4162 20.0615L18.4244 20.2425C18.4832 20.8887 18.8379 21.3951 19.2911 21.766L20.5575 20.218ZM20.2318 19.5677C20.0194 19.2726 19.9175 19.0572 19.876 18.9156C19.8374 18.7836 19.8619 18.7565 19.8526 18.7811L17.98 18.0789C17.6256 19.0239 18.0624 19.9774 18.6088 20.7363L20.2318 19.5677ZM19.8864 18.6725C19.8751 18.7181 19.8761 18.683 19.9686 18.5386C20.0515 18.409 20.1787 18.2361 20.3602 18.0157L18.8164 16.7443C18.6059 16.9999 18.4251 17.24 18.284 17.4604C18.1525 17.666 18.0136 17.9179 17.9462 18.1875L19.8864 18.6725ZM20.5584 17.6225C20.5193 17.7792 20.4502 17.8802 20.427 17.9127C20.3978 17.9535 20.3754 17.9756 20.3742 17.9769C20.372 17.979 20.3947 17.9569 20.4613 17.907C20.5909 17.8098 20.8039 17.6683 21.1163 17.4782L20.0764 15.7698C19.7447 15.9717 19.4677 16.1522 19.2613 16.307C19.1599 16.3831 19.0531 16.4695 18.9599 16.5626C18.9084 16.6142 18.6976 16.8196 18.6182 17.1375L20.5584 17.6225ZM21.3034 17.3311C21.587 17.0475 22.2188 16.7296 23.4173 16.5166L23.0673 14.5474C21.7458 14.7824 20.6136 15.1925 19.8892 15.9169L21.3034 17.3311Z" fill="#0E2643"/>
</g>
<g filter="url(#filter1_d_157_14)">
<path d="M48.5502 30.85C48.6102 30.79 48.9552 30.73 49.5852 30.67C50.2452 30.58 51.0102 30.31 51.8802 29.86C51.9102 29.86 51.8952 29.5 51.8352 28.78C51.7452 27.52 51.6702 26.62 51.6102 26.08C51.5502 25.36 51.4902 24.85 51.4302 24.55C51.4302 23.98 51.2052 22.795 50.7552 20.995L48.7752 27.7C48.3552 29.56 48.1902 30.7 48.2802 31.12L48.5502 30.85ZM42.4752 32.155L42.7452 30.175C42.7452 29.785 42.8052 29.395 42.9252 29.005C42.9252 28.495 43.1802 27.73 43.6902 26.71C43.6902 26.65 43.8252 26.26 44.0952 25.54C44.0952 25.48 44.3802 24.595 44.9502 22.885L45.4902 21.58C45.4902 21.46 45.5652 21.235 45.7152 20.905C45.8652 20.545 45.9702 20.2 46.0302 19.87C46.1202 19.51 46.2252 19.165 46.3452 18.835C46.7652 18.025 47.1402 17.335 47.4702 16.765C48.1002 15.565 49.2702 15.025 50.9802 15.145L52.4202 15.28C53.3202 15.52 54.0102 15.775 54.4902 16.045C55.1802 16.315 55.6452 16.615 55.8852 16.945C56.1252 17.245 56.2302 17.755 56.2002 18.475C56.2302 18.835 56.3202 20.395 56.4702 23.155C56.6202 25.915 56.6952 27.31 56.6952 27.34L56.9202 29.275C56.9202 29.455 57.2502 31.615 57.9102 35.755L58.9002 38.905C59.5002 40.585 59.8152 41.47 59.8452 41.56C59.9052 41.62 60.0402 41.935 60.2502 42.505C60.5802 43.495 60.2952 44.155 59.3952 44.485C58.5852 44.605 57.9852 44.53 57.5952 44.26C57.4452 44.26 57.1002 44.125 56.5602 43.855C56.5002 43.705 56.3202 43.555 56.0202 43.405C55.7502 43.285 55.5702 43.18 55.4802 43.09C55.1502 43 54.8502 42.535 54.5802 41.695C54.4902 41.635 54.3252 41.395 54.0852 40.975C53.8752 40.555 53.8152 40.21 53.9052 39.94C53.6952 39.67 53.5902 39.115 53.5902 38.275C53.3202 37.825 53.1852 37.12 53.1852 36.16C53.1852 35.2 53.0352 34.45 52.7352 33.91C51.2052 34.6 49.5702 34.975 47.8302 35.035C47.5002 35.035 47.3352 35.095 47.3352 35.215C47.3352 35.485 47.2452 35.965 47.0652 36.655L46.3002 41.605C46.6002 43.825 46.3302 44.995 45.4902 45.115C45.2502 45.115 44.8452 45.175 44.2752 45.295C43.7352 45.415 43.2852 45.31 42.9252 44.98C42.2352 44.59 41.7402 44.185 41.4402 43.765C41.1702 43.375 41.0502 42.925 41.0802 42.415C41.1102 41.995 41.1852 41.095 41.3052 39.715C41.3652 39.655 41.3802 39.325 41.3502 38.725C41.3502 38.095 41.3952 37.615 41.4852 37.285L42.2052 34.495C42.2952 34.435 42.4152 33.985 42.5652 33.145C42.5352 33.085 42.5202 32.935 42.5202 32.695L42.4752 32.155Z" fill="#FF57BB"/>
<path d="M48.5502 30.85L49.2574 31.5571L49.2574 31.5571L48.5502 30.85ZM49.5852 30.67L49.6801 31.6655L49.7003 31.6636L49.7204 31.6608L49.5852 30.67ZM51.8802 29.86V28.86H51.6369L51.4208 28.9718L51.8802 29.86ZM51.8352 28.78L50.8377 28.8513L50.8387 28.863L51.8352 28.78ZM51.6102 26.08L50.6137 26.163L50.6148 26.1768L50.6164 26.1904L51.6102 26.08ZM51.4302 24.55H50.4302V24.649L50.4497 24.7461L51.4302 24.55ZM50.7552 20.995L51.7254 20.7525L50.8354 17.1926L49.7962 20.7118L50.7552 20.995ZM48.7752 27.7L47.8162 27.4168L47.807 27.448L47.7998 27.4797L48.7752 27.7ZM48.2802 31.12L47.3024 31.3295L47.6876 33.1269L48.9874 31.8271L48.2802 31.12ZM42.4752 32.155L41.4844 32.0199L41.4696 32.1287L41.4787 32.238L42.4752 32.155ZM42.7452 30.175L43.7361 30.3101L43.7452 30.2429V30.175H42.7452ZM42.9252 29.005L43.881 29.2991L43.9252 29.1554V29.005H42.9252ZM43.6902 26.71L44.5847 27.1572L44.6902 26.9461V26.71H43.6902ZM44.0952 25.54L45.0316 25.8911L45.0952 25.7213V25.54H44.0952ZM44.9502 22.885L44.0262 22.5026L44.0127 22.5353L44.0016 22.5688L44.9502 22.885ZM45.4902 21.58L46.4143 21.9624L46.4902 21.7787V21.58H45.4902ZM45.7152 20.905L46.6256 21.3188L46.6322 21.3043L46.6383 21.2896L45.7152 20.905ZM46.0302 19.87L45.0601 19.6275L45.0522 19.6591L45.0464 19.6911L46.0302 19.87ZM46.3452 18.835L45.4575 18.3747L45.4276 18.4323L45.4055 18.4933L46.3452 18.835ZM47.4702 16.765L48.3357 17.266L48.346 17.2481L48.3556 17.2298L47.4702 16.765ZM50.9802 15.145L51.0736 14.1494L51.0619 14.1483L51.0502 14.1475L50.9802 15.145ZM52.4202 15.28L52.6779 14.3138L52.597 14.2922L52.5136 14.2844L52.4202 15.28ZM54.4902 16.045L54 16.9166L54.0608 16.9508L54.1258 16.9762L54.4902 16.045ZM55.8852 16.945L55.0765 17.5332L55.09 17.5518L55.1044 17.5697L55.8852 16.945ZM56.2002 18.475L55.2011 18.4334L55.1985 18.4958L55.2037 18.558L56.2002 18.475ZM56.4702 23.155L55.4717 23.2093L55.4717 23.2093L56.4702 23.155ZM56.6952 27.34H55.6952V27.3979L55.7019 27.4555L56.6952 27.34ZM56.9202 29.275H57.9202V29.2171L57.9136 29.1595L56.9202 29.275ZM57.9102 35.755L56.9227 35.9124L56.9343 35.9849L56.9563 36.0548L57.9102 35.755ZM58.9002 38.905L57.9463 39.2048L57.952 39.2232L57.9585 39.2413L58.9002 38.905ZM59.8452 41.56L58.8966 41.8762L58.9712 42.1002L59.1381 42.2671L59.8452 41.56ZM60.2502 42.505L61.1989 42.1888L61.194 42.174L61.1886 42.1593L60.2502 42.505ZM59.3952 44.485L59.5418 45.4742L59.6432 45.4592L59.7395 45.4239L59.3952 44.485ZM57.5952 44.26L58.1645 43.4378L57.9076 43.26H57.5952V44.26ZM56.5602 43.855L55.6318 44.2264L55.773 44.5794L56.113 44.7494L56.5602 43.855ZM56.0202 43.405L56.4675 42.5106L56.4471 42.5004L56.4264 42.4912L56.0202 43.405ZM55.4802 43.09L56.1874 42.3829L55.9996 42.1951L55.7434 42.1252L55.4802 43.09ZM54.5802 41.695L55.5323 41.389L55.4254 41.0566L55.1349 40.863L54.5802 41.695ZM54.0852 40.975L53.1908 41.4222L53.2032 41.447L53.217 41.4711L54.0852 40.975ZM53.9052 39.94L54.8539 40.2562L55.0232 39.7485L54.6946 39.3261L53.9052 39.94ZM53.5902 38.275H54.5902V37.998L54.4477 37.7605L53.5902 38.275ZM52.7352 33.91L53.6094 33.4244L53.1627 32.6202L52.3241 32.9984L52.7352 33.91ZM47.8302 35.035V36.035H47.8475L47.8647 36.0344L47.8302 35.035ZM47.0652 36.655L46.0976 36.4026L46.0848 36.4519L46.077 36.5023L47.0652 36.655ZM46.3002 41.605L45.312 41.4523L45.2899 41.5954L45.3093 41.7389L46.3002 41.605ZM45.4902 45.115V46.115H45.5613L45.6317 46.1049L45.4902 45.115ZM44.2752 45.295L44.0692 44.3164L44.0583 44.3188L44.2752 45.295ZM42.9252 44.98L43.601 44.2428L43.5168 44.1657L43.4173 44.1094L42.9252 44.98ZM41.4402 43.765L40.6181 44.3342L40.6222 44.3403L40.6265 44.3462L41.4402 43.765ZM41.0802 42.415L40.0827 42.3437L40.082 42.3563L41.0802 42.415ZM41.3052 39.715L40.5981 39.0079L40.3406 39.2655L40.309 39.6284L41.3052 39.715ZM41.3502 38.725H40.3502V38.75L40.3515 38.7749L41.3502 38.725ZM41.4852 37.285L42.4501 37.5481L42.4535 37.5349L41.4852 37.285ZM42.2052 34.495L41.6505 33.6629L41.3325 33.875L41.237 34.2451L42.2052 34.495ZM42.5652 33.145L43.5497 33.3208L43.608 32.9944L43.4597 32.6978L42.5652 33.145ZM42.5202 32.695H43.5202V32.6534L43.5168 32.612L42.5202 32.695ZM49.2574 31.5571C49.1939 31.6206 49.1345 31.6619 49.0963 31.6858C49.0566 31.7107 49.0232 31.7272 49.0019 31.737C48.961 31.7557 48.9339 31.7635 48.9328 31.7638C48.9302 31.7645 48.9559 31.7573 49.0253 31.7452C49.16 31.7218 49.3738 31.6947 49.6801 31.6655L49.4904 29.6745C49.1667 29.7053 48.893 29.7382 48.6827 29.7748C48.5796 29.7927 48.4684 29.8155 48.3646 29.8462C48.3129 29.8615 48.244 29.8843 48.1703 29.918C48.1106 29.9454 47.9739 30.0122 47.8431 30.1429L49.2574 31.5571ZM49.7204 31.6608C50.5334 31.55 51.4115 31.2283 52.3397 30.7482L51.4208 28.9718C50.609 29.3917 49.9571 29.61 49.4501 29.6792L49.7204 31.6608ZM51.8802 30.86C52.4565 30.86 52.7165 30.4209 52.7646 30.3321C52.8354 30.2014 52.8605 30.085 52.8684 30.0471C52.8879 29.9532 52.892 29.8699 52.8934 29.8341C52.8971 29.746 52.8946 29.6445 52.8906 29.5484C52.8822 29.3468 52.862 29.06 52.8318 28.697L50.8387 28.863C50.8684 29.22 50.8858 29.4732 50.8924 29.6316C50.894 29.6702 50.8948 29.7 50.8951 29.722C50.8954 29.7454 50.8951 29.7535 50.8952 29.7509C50.8952 29.7493 50.8956 29.74 50.8971 29.7253C50.8983 29.7129 50.9016 29.6813 50.9104 29.6392C50.916 29.6125 50.9383 29.5045 51.0061 29.3795C51.0411 29.3147 51.1137 29.1975 51.2454 29.0885C51.3907 28.9683 51.6088 28.86 51.8802 28.86V30.86ZM52.8327 28.7088C52.7427 27.4482 52.6665 26.5309 52.6041 25.9696L50.6164 26.1904C50.674 26.7091 50.7478 27.5918 50.8378 28.8512L52.8327 28.7088ZM52.6068 25.997C52.5467 25.2761 52.4831 24.7154 52.4108 24.3539L50.4497 24.7461C50.4974 24.9846 50.5538 25.4439 50.6137 26.163L52.6068 25.997ZM52.4302 24.55C52.4302 23.8339 52.1684 22.5245 51.7254 20.7525L49.7851 21.2375C50.2421 23.0655 50.4302 24.1261 50.4302 24.55H52.4302ZM49.7962 20.7118L47.8162 27.4168L49.7343 27.9832L51.7143 21.2782L49.7962 20.7118ZM47.7998 27.4797C47.5872 28.4211 47.4347 29.1997 47.3468 29.8068C47.2668 30.3597 47.2147 30.9201 47.3024 31.3295L49.258 30.9105C49.2628 30.9325 49.2514 30.8847 49.2594 30.718C49.2667 30.566 49.2876 30.36 49.3262 30.0932C49.4033 29.5603 49.5432 28.8389 49.7507 27.9203L47.7998 27.4797ZM48.9874 31.8271L49.2574 31.5571L47.8431 30.1429L47.5731 30.4129L48.9874 31.8271ZM43.4661 32.2901L43.7361 30.3101L41.7544 30.0399L41.4844 32.0199L43.4661 32.2901ZM43.7452 30.175C43.7452 29.8892 43.789 29.5982 43.881 29.2991L41.9695 28.7109C41.8215 29.1918 41.7452 29.6808 41.7452 30.175H43.7452ZM43.9252 29.005C43.9252 28.7498 44.0786 28.1694 44.5847 27.1572L42.7958 26.2628C42.2819 27.2906 41.9252 28.2402 41.9252 29.005H43.9252ZM44.6902 26.71C44.6902 26.7866 44.6808 26.8437 44.6782 26.8593C44.6744 26.8822 44.6707 26.8979 44.6697 26.9025C44.6675 26.9116 44.6677 26.9095 44.6734 26.8905C44.6844 26.8539 44.7044 26.7922 44.7365 26.6996C44.7998 26.5168 44.8975 26.2487 45.0316 25.8911L43.1589 25.1889C43.023 25.5513 42.9182 25.8382 42.8465 26.0454C42.811 26.1478 42.7805 26.2399 42.7577 26.3158C42.7466 26.353 42.7341 26.3968 42.7235 26.4416C42.7197 26.4577 42.6902 26.573 42.6902 26.71H44.6902ZM45.0952 25.54C45.0952 25.6184 45.0854 25.678 45.0836 25.6896C45.0801 25.7113 45.0768 25.7269 45.0756 25.7324C45.0731 25.7439 45.072 25.7473 45.0746 25.7373C45.0795 25.7191 45.0893 25.6846 45.1061 25.6291C45.139 25.52 45.1902 25.3573 45.2609 25.1378C45.4018 24.7003 45.6142 24.0554 45.8989 23.2012L44.0016 22.5688C43.7163 23.4246 43.5012 24.0772 43.3571 24.5247C43.2853 24.7477 43.2296 24.9244 43.1913 25.0516C43.1724 25.1142 43.1555 25.172 43.1426 25.2203C43.1363 25.2437 43.1286 25.2739 43.1216 25.3057C43.1182 25.3215 43.1132 25.3456 43.1086 25.3743C43.1056 25.3929 43.0952 25.4578 43.0952 25.54H45.0952ZM45.8743 23.2674L46.4143 21.9624L44.5662 21.1976L44.0262 22.5026L45.8743 23.2674ZM46.4902 21.58C46.4902 21.6158 46.4875 21.6425 46.4856 21.6572C46.4837 21.6725 46.4818 21.6814 46.4815 21.6827C46.4812 21.6843 46.4842 21.6704 46.4952 21.6375C46.5175 21.5706 46.5584 21.4667 46.6256 21.3188L44.8049 20.4912C44.7221 20.6733 44.6505 20.8469 44.5978 21.005C44.5528 21.1402 44.4902 21.3525 44.4902 21.58H46.4902ZM46.6383 21.2896C46.8116 20.8738 46.9394 20.4598 47.0141 20.0489L45.0464 19.6911C45.0011 19.9402 44.9189 20.2162 44.7922 20.5204L46.6383 21.2896ZM47.0004 20.1125C47.0825 19.7842 47.1775 19.4724 47.285 19.1767L45.4055 18.4933C45.273 18.8576 45.158 19.2358 45.0601 19.6275L47.0004 20.1125ZM47.233 19.2953C47.6484 18.4943 48.0157 17.8187 48.3357 17.266L46.6048 16.264C46.2648 16.8513 45.8821 17.5557 45.4575 18.3747L47.233 19.2953ZM48.3556 17.2298C48.5739 16.8141 48.8651 16.5407 49.2393 16.368C49.6292 16.188 50.1697 16.0906 50.9102 16.1425L51.0502 14.1475C50.0807 14.0794 49.1813 14.192 48.4012 14.552C47.6054 14.9193 46.9966 15.5159 46.5848 16.3002L48.3556 17.2298ZM50.8869 16.1406L52.3269 16.2756L52.5136 14.2844L51.0736 14.1494L50.8869 16.1406ZM52.1626 16.2462C53.029 16.4773 53.6264 16.7064 54 16.9166L54.9805 15.1734C54.3941 14.8436 53.6115 14.5627 52.6779 14.3138L52.1626 16.2462ZM54.1258 16.9762C54.763 17.2256 55.0078 17.4387 55.0765 17.5332L56.694 16.3568C56.2827 15.7913 55.5975 15.4044 54.8546 15.1138L54.1258 16.9762ZM55.1044 17.5697C55.097 17.5605 55.1331 17.6015 55.1645 17.7542C55.1956 17.9052 55.2139 18.1262 55.2011 18.4334L57.1994 18.5166C57.2317 17.741 57.1423 16.9156 56.6661 16.3203L55.1044 17.5697ZM55.2037 18.558C55.2321 18.8994 55.3211 20.4384 55.4717 23.2093L57.4688 23.1007C57.3194 20.3516 57.2283 18.7706 57.1968 18.392L55.2037 18.558ZM55.4717 23.2093C55.6236 26.0039 55.6952 27.3462 55.6952 27.34H57.6952C57.6952 27.2738 57.6169 25.8261 57.4688 23.1007L55.4717 23.2093ZM55.7019 27.4555L55.9269 29.3905L57.9136 29.1595L57.6886 27.2245L55.7019 27.4555ZM55.9202 29.275C55.9202 29.3716 55.9353 29.4925 55.9431 29.5566C55.9545 29.65 55.971 29.7723 55.9919 29.9209C56.034 30.2191 56.0965 30.6398 56.1792 31.181C56.3447 32.2643 56.5926 33.8419 56.9227 35.9124L58.8978 35.5976C58.5679 33.5281 58.3208 31.9557 58.1563 30.879C58.074 30.3402 58.0128 29.9284 57.9723 29.6416C57.952 29.4977 57.9375 29.3894 57.9283 29.314C57.9155 29.2093 57.9202 29.2234 57.9202 29.275H55.9202ZM56.9563 36.0548L57.9463 39.2048L59.8542 38.6052L58.8642 35.4552L56.9563 36.0548ZM57.9585 39.2413C58.2585 40.0812 58.4871 40.7221 58.6444 41.1641C58.7231 41.3851 58.7838 41.556 58.8266 41.677C58.848 41.7376 58.8648 41.7851 58.877 41.8199C58.8831 41.8373 58.8879 41.851 58.8914 41.8612C58.8953 41.8725 58.8967 41.8765 58.8966 41.8762L60.7939 41.2438C60.7595 41.1404 60.4382 40.2379 59.842 38.5687L57.9585 39.2413ZM59.1381 42.2671C59.07 42.1989 59.033 42.1398 59.0276 42.1313C59.0167 42.1142 59.013 42.1064 59.0171 42.1142C59.0252 42.1297 59.0432 42.1671 59.0723 42.2352C59.1298 42.3691 59.2091 42.5716 59.3119 42.8507L61.1886 42.1593C61.0814 41.8684 60.9882 41.6284 60.9106 41.4473C60.8723 41.3579 60.8322 41.2696 60.7915 41.1915C60.7696 41.1493 60.6889 40.9894 60.5524 40.8529L59.1381 42.2671ZM59.3016 42.8212C59.4234 43.1867 59.3749 43.3252 59.3659 43.3461C59.3649 43.3484 59.3329 43.4428 59.051 43.5461L59.7395 45.4239C60.3576 45.1972 60.9181 44.7966 61.2021 44.1389C61.4781 43.4998 61.4071 42.8133 61.1989 42.1888L59.3016 42.8212ZM59.2487 43.4958C58.5216 43.6035 58.2387 43.4892 58.1645 43.4378L57.026 45.0822C57.7318 45.5708 58.6488 45.6065 59.5418 45.4742L59.2487 43.4958ZM57.5952 43.26C57.6876 43.26 57.7369 43.2775 57.7093 43.2699C57.6931 43.2655 57.6547 43.2534 57.5884 43.2275C57.4559 43.1757 57.2649 43.0893 57.0075 42.9606L56.113 44.7494C56.3955 44.8907 56.6471 45.0068 56.8596 45.09C57.0263 45.1552 57.3103 45.26 57.5952 45.26V43.26ZM57.4887 43.4836C57.2801 42.962 56.789 42.6713 56.4675 42.5106L55.573 44.2994C55.6247 44.3253 55.664 44.3475 55.6927 44.3655C55.7219 44.3837 55.7362 44.395 55.7401 44.3982C55.7443 44.4017 55.7318 44.3921 55.7119 44.3672C55.6917 44.342 55.6594 44.2954 55.6318 44.2264L57.4887 43.4836ZM56.4264 42.4912C56.3123 42.4405 56.235 42.4007 56.1866 42.3725C56.163 42.3587 56.152 42.351 56.1501 42.3496C56.1472 42.3475 56.1627 42.3582 56.1874 42.3829L54.7731 43.7971C55.0065 44.0305 55.3414 44.1976 55.6141 44.3188L56.4264 42.4912ZM55.7434 42.1252C55.9257 42.175 55.9422 42.2776 55.848 42.1316C55.7649 42.0028 55.6544 41.7688 55.5323 41.389L53.6282 42.001C53.7761 42.4612 53.9506 42.8797 54.1674 43.2159C54.3733 43.5349 54.7048 43.915 55.2171 44.0548L55.7434 42.1252ZM55.1349 40.863C55.1889 40.8989 55.2236 40.9312 55.2376 40.9447C55.2459 40.9527 55.2519 40.959 55.2553 40.9626C55.2587 40.9664 55.2605 40.9685 55.2606 40.9686C55.2607 40.9687 55.2596 40.9674 55.2573 40.9644C55.2549 40.9615 55.2516 40.9572 55.2474 40.9516C55.2387 40.94 55.2273 40.9243 55.213 40.9035C55.1531 40.8163 55.0674 40.6783 54.9535 40.4789L53.217 41.4711C53.3431 41.6917 53.4599 41.8837 53.565 42.0365C53.6173 42.1127 53.6751 42.1913 53.7367 42.2639C53.7882 42.3244 53.8868 42.4345 54.0255 42.527L55.1349 40.863ZM54.9797 40.5278C54.9044 40.3772 54.8767 40.2802 54.868 40.2299C54.8599 40.1834 54.872 40.202 54.8539 40.2562L52.9566 39.6238C52.7422 40.2668 52.9354 40.9114 53.1908 41.4222L54.9797 40.5278ZM54.6946 39.3261C54.7308 39.3727 54.6915 39.3465 54.6516 39.1354C54.6148 38.9409 54.5902 38.6596 54.5902 38.275H52.5902C52.5902 38.7304 52.6182 39.1466 52.6864 39.5071C52.7515 39.851 52.8697 40.2373 53.1159 40.5539L54.6946 39.3261ZM54.4477 37.7605C54.3202 37.5479 54.1852 37.0671 54.1852 36.16H52.1852C52.1852 37.1729 52.3203 38.1021 52.7328 38.7895L54.4477 37.7605ZM54.1852 36.16C54.1852 35.1157 54.0254 34.1732 53.6094 33.4244L51.8611 34.3956C52.0451 34.7268 52.1852 35.2843 52.1852 36.16H54.1852ZM52.3241 32.9984C50.9172 33.6329 49.4107 33.9799 47.7958 34.0356L47.8647 36.0344C49.7298 35.9701 51.4933 35.5671 53.1464 34.8216L52.3241 32.9984ZM47.8302 34.035C47.6325 34.035 47.3672 34.0493 47.1173 34.1402C46.9866 34.1877 46.7954 34.279 46.629 34.4605C46.4426 34.6639 46.3352 34.93 46.3352 35.215H48.3352C48.3352 35.44 48.2485 35.6536 48.1033 35.812C47.9782 35.9485 47.8488 36.0023 47.8007 36.0198C47.7158 36.0507 47.6979 36.035 47.8302 36.035V34.035ZM46.3352 35.215C46.3352 35.3397 46.2801 35.703 46.0976 36.4026L48.0329 36.9074C48.2104 36.227 48.3352 35.6303 48.3352 35.215H46.3352ZM46.077 36.5023L45.312 41.4523L47.2885 41.7577L48.0535 36.8077L46.077 36.5023ZM45.3093 41.7389C45.4546 42.8144 45.442 43.517 45.3484 43.9226C45.3032 44.1183 45.254 44.1775 45.2554 44.1759C45.274 44.1542 45.3185 44.1294 45.3488 44.1251L45.6317 46.1049C46.082 46.0406 46.4752 45.8245 46.7714 45.4804C47.0503 45.1563 47.2073 44.7617 47.2971 44.3724C47.4735 43.608 47.4459 42.6156 47.2912 41.4711L45.3093 41.7389ZM45.4902 44.115C45.135 44.115 44.6383 44.1966 44.0692 44.3165L44.4813 46.2735C45.0522 46.1534 45.3655 46.115 45.4902 46.115V44.115ZM44.0583 44.3188C43.788 44.3789 43.6855 44.3203 43.601 44.2428L42.2495 45.7172C42.885 46.2997 43.6825 46.4511 44.4922 46.2712L44.0583 44.3188ZM43.4173 44.1094C42.7929 43.7565 42.436 43.4385 42.254 43.1838L40.6265 44.3462C41.0445 44.9315 41.6776 45.4235 42.4332 45.8506L43.4173 44.1094ZM42.2624 43.1958C42.1297 43.0041 42.0606 42.779 42.0785 42.4737L40.082 42.3563C40.0399 43.071 40.2108 43.7459 40.6181 44.3342L42.2624 43.1958ZM42.0777 42.4862C42.107 42.0754 42.1813 41.1834 42.3015 39.8016L40.309 39.6284C40.1892 41.0066 40.1134 41.9146 40.0828 42.3438L42.0777 42.4862ZM42.0124 40.4221C42.1616 40.2729 42.2304 40.1136 42.2597 40.037C42.2937 39.948 42.3126 39.8666 42.3238 39.8082C42.3463 39.6914 42.3558 39.5715 42.3605 39.4679C42.3701 39.2553 42.3645 38.9857 42.349 38.6751L40.3515 38.7749C40.366 39.0643 40.3679 39.2597 40.3625 39.3771C40.3597 39.4385 40.3561 39.4498 40.3598 39.4305C40.3617 39.4209 40.3697 39.3798 40.3916 39.3227C40.403 39.2929 40.4217 39.2493 40.4509 39.1989C40.4797 39.1493 40.5264 39.0797 40.5981 39.0079L42.0124 40.4221ZM42.3502 38.725C42.3502 38.1227 42.3953 37.7485 42.45 37.5481L40.5205 37.0219C40.3951 37.4815 40.3502 38.0673 40.3502 38.725H42.3502ZM42.4535 37.5349L43.1735 34.7449L41.237 34.2451L40.517 37.0351L42.4535 37.5349ZM42.7599 35.327C42.9468 35.2025 43.0494 35.0473 43.0907 34.9806C43.1418 34.8979 43.1781 34.8181 43.203 34.7576C43.2532 34.6358 43.2943 34.5003 43.329 34.3702C43.3998 34.1046 43.4731 33.7497 43.5497 33.3208L41.5808 32.9692C41.5074 33.3803 41.4457 33.6704 41.3965 33.8548C41.3847 33.8993 41.3746 33.9335 41.3665 33.9589C41.3581 33.9852 41.3536 33.9962 41.3537 33.9961C41.3539 33.9957 41.3564 33.9896 41.3614 33.9794C41.3662 33.9697 41.3755 33.9514 41.3901 33.9279C41.4071 33.9005 41.4862 33.7725 41.6505 33.6629L42.7599 35.327ZM43.4597 32.6978C43.4847 32.7478 43.4994 32.7893 43.5076 32.8151C43.5161 32.8418 43.5209 32.8623 43.5234 32.8736C43.5259 32.8854 43.527 32.8926 43.5272 32.894C43.5274 32.8957 43.5271 32.8939 43.5265 32.888C43.5253 32.8757 43.5236 32.8536 43.5223 32.8197C43.521 32.7863 43.5202 32.745 43.5202 32.695H41.5202C41.5202 32.8313 41.5243 32.9655 41.5365 33.087C41.5447 33.1697 41.5669 33.3843 41.6708 33.5922L43.4597 32.6978ZM43.5168 32.612L43.4718 32.072L41.4787 32.238L41.5237 32.778L43.5168 32.612Z" fill="#863164"/>
</g>
<g filter="url(#filter2_d_157_14)">
<path d="M72.6803 28.3515C72.707 28.3515 73.0003 27.8982 73.5603 26.9915C73.6403 26.9915 73.787 26.8182 74.0003 26.4715C74.2403 26.2315 74.3603 25.9915 74.3603 25.7515L75.0003 24.8715C75.0003 24.7649 75.1603 24.5249 75.4803 24.1515C75.827 23.4849 76.2936 22.7515 76.8803 21.9515C77.2003 21.4715 77.4136 21.1515 77.5203 20.9915C77.6536 20.8049 77.747 20.6582 77.8003 20.5515C77.8803 20.4449 77.9603 20.3515 78.0403 20.2715H77.7203L76.9203 20.3515C76.8136 20.3515 76.6536 20.3782 76.4403 20.4315C74.3603 20.9915 73.0936 21.2582 72.6403 21.2315C72.187 21.2049 71.8136 21.2715 71.5203 21.4315C71.067 21.4315 70.507 21.4982 69.8403 21.6315C68.7203 21.6315 67.947 21.3782 67.5203 20.8715L67.1203 20.3515L66.5603 19.2715C66.4803 18.9782 66.4936 18.5115 66.6003 17.8715C66.707 17.6049 66.9336 17.3915 67.2803 17.2315C67.6536 17.0449 68.0936 16.9515 68.6003 16.9515C69.427 16.9515 70.4403 16.9115 71.6403 16.8315C72.8403 16.7515 74.1603 16.6849 75.6003 16.6315C77.1736 16.6315 79.4536 16.3915 82.4403 15.9115C82.707 15.8849 83.0403 15.9915 83.4403 16.2315C83.8403 16.4715 84.147 16.7382 84.3603 17.0315C84.5203 17.4315 84.707 17.7782 84.9203 18.0715C85.2403 18.8449 85.0003 19.6982 84.2003 20.6315L83.2403 21.4715C83.2136 21.4715 83.0403 21.7382 82.7203 22.2715C80.5603 25.2849 79.387 26.8849 79.2003 27.0715C79.147 27.1782 79.0003 27.4182 78.7603 27.7915C78.547 28.1382 78.387 28.4049 78.2803 28.5915L76.9203 30.2315C76.9203 30.3649 76.8003 30.6449 76.5603 31.0715L76.3203 31.2315L75.1203 32.8715L74.0003 34.5115L73.2803 35.4315L72.8003 36.2315C72.8003 36.3915 72.6403 36.6982 72.3203 37.1515C72.027 37.6049 71.7736 38.0182 71.5603 38.3915C71.3736 38.7382 71.187 39.0582 71.0003 39.3515L72.0003 39.1915L73.8403 38.7115C74.2136 38.7115 74.6936 38.5915 75.2803 38.3515C75.547 38.3515 75.7736 38.3382 75.9603 38.3115C76.0136 38.2582 76.267 38.2182 76.7203 38.1915C76.8003 38.1382 77.1603 38.0582 77.8003 37.9515C78.4403 37.8449 78.8403 37.7915 79.0003 37.7915C79.347 37.7915 79.9603 37.7249 80.8403 37.5915C81.587 37.5382 82.067 37.6182 82.2803 37.8315C82.8936 38.4449 83.0003 39.2449 82.6003 40.2315C82.6003 40.2849 82.4936 40.3649 82.2803 40.4715C80.7336 40.9782 79.8136 41.2715 79.5203 41.3515C78.827 41.4849 78.2536 41.6582 77.8003 41.8715C77.6936 41.8715 77.5336 41.9249 77.3203 42.0315C76.867 42.2449 76.267 42.4449 75.5203 42.6315C73.947 43.0849 73.0136 43.3515 72.7203 43.4315C72.4536 43.5382 71.907 43.6982 71.0803 43.9115C70.2803 44.1515 69.6136 44.2982 69.0803 44.3515C68.547 44.4049 67.8803 44.1515 67.0803 43.5915C66.867 43.4582 66.7336 43.3382 66.6803 43.2315L66.2003 42.5115C65.5336 41.5782 65.4936 40.6582 66.0803 39.7515C66.0803 39.6982 66.147 39.5649 66.2803 39.3515L67.2803 36.9915L67.4403 36.2315C67.4403 36.1249 67.587 35.8982 67.8803 35.5515C67.987 35.3115 68.1203 35.0715 68.2803 34.8315C68.4403 34.5915 68.5203 34.4582 68.5203 34.4315C68.867 33.8982 69.2003 33.4982 69.5203 33.2315L70.0403 32.4315L70.5603 31.7915C70.5603 31.5782 70.9203 31.0849 71.6403 30.3115C71.6936 30.1782 71.9203 29.8449 72.3203 29.3115L72.6803 28.3515Z" fill="#33B1B1"/>
<path d="M72.6803 28.3515V27.3515H71.9873L71.744 28.0004L72.6803 28.3515ZM73.5603 26.9915V25.9915H73.0026L72.7095 26.4661L73.5603 26.9915ZM74.0003 26.4715L73.2932 25.7644L73.2102 25.8475L73.1486 25.9474L74.0003 26.4715ZM74.3603 25.7515L73.5516 25.1634L73.3603 25.4264V25.7515H74.3603ZM75.0003 24.8715L75.809 25.4597L76.0003 25.1967V24.8715H75.0003ZM75.4803 24.1515L76.2396 24.8023L76.3144 24.715L76.3675 24.6129L75.4803 24.1515ZM76.8803 21.9515L77.6867 22.5429L77.6999 22.5249L77.7124 22.5062L76.8803 21.9515ZM77.5203 20.9915L76.7066 20.4103L76.6972 20.4234L76.6883 20.4368L77.5203 20.9915ZM77.8003 20.5515L77.0003 19.9515L76.9462 20.0237L76.9059 20.1043L77.8003 20.5515ZM78.0403 20.2715L78.7474 20.9786L80.4545 19.2715H78.0403V20.2715ZM77.7203 20.2715V19.2715H77.6704L77.6208 19.2765L77.7203 20.2715ZM76.9203 20.3515V21.3515H76.9702L77.0198 21.3466L76.9203 20.3515ZM76.4403 20.4315L76.1978 19.4614L76.189 19.4636L76.1803 19.4659L76.4403 20.4315ZM72.6403 21.2315L72.5816 22.2298L72.5816 22.2298L72.6403 21.2315ZM71.5203 21.4315V22.4315H71.7753L71.9992 22.3094L71.5203 21.4315ZM69.8403 21.6315V22.6315H69.9393L70.0364 22.6121L69.8403 21.6315ZM67.5203 20.8715L66.7277 21.4813L66.7412 21.4988L66.7554 21.5157L67.5203 20.8715ZM67.1203 20.3515L66.2326 20.8119L66.2735 20.8908L66.3277 20.9613L67.1203 20.3515ZM66.5603 19.2715L65.5955 19.5347L65.6236 19.6374L65.6726 19.7319L66.5603 19.2715ZM66.6003 17.8715L65.6718 17.5002L65.6317 17.6005L65.6139 17.7071L66.6003 17.8715ZM67.2803 17.2315L67.6994 18.1395L67.7135 18.133L67.7275 18.126L67.2803 17.2315ZM71.6403 16.8315L71.7068 17.8293L71.7068 17.8293L71.6403 16.8315ZM75.6003 16.6315V15.6315H75.5818L75.5633 15.6322L75.6003 16.6315ZM82.4403 15.9115L82.3408 14.9165L82.3111 14.9195L82.2816 14.9242L82.4403 15.9115ZM83.4403 16.2315L83.9548 15.3741L83.9548 15.3741L83.4403 16.2315ZM84.3603 17.0315L85.2888 16.6602L85.2424 16.5443L85.169 16.4434L84.3603 17.0315ZM84.9203 18.0715L85.8443 17.6892L85.7989 17.5794L85.729 17.4834L84.9203 18.0715ZM84.2003 20.6315L84.8588 21.3841L84.9128 21.3368L84.9596 21.2823L84.2003 20.6315ZM83.2403 21.4715V22.4715H83.616L83.8988 22.2241L83.2403 21.4715ZM82.7203 22.2715L83.5331 22.8541L83.5568 22.821L83.5778 22.786L82.7203 22.2715ZM79.2003 27.0715L78.4932 26.3644L78.3785 26.4792L78.3059 26.6243L79.2003 27.0715ZM78.7603 27.7915L77.9191 27.2508L77.9138 27.2591L77.9086 27.2675L78.7603 27.7915ZM78.2803 28.5915L79.0501 29.2299L79.1055 29.1631L79.1485 29.0877L78.2803 28.5915ZM76.9203 30.2315L76.1505 29.5932L75.9203 29.8709V30.2315H76.9203ZM76.5603 31.0715L77.115 31.9036L77.3144 31.7707L77.4319 31.5618L76.5603 31.0715ZM76.3203 31.2315L75.7656 30.3995L75.618 30.4979L75.5133 30.641L76.3203 31.2315ZM75.1203 32.8715L74.3133 32.281L74.3037 32.2942L74.2945 32.3076L75.1203 32.8715ZM74.0003 34.5115L74.7878 35.1279L74.8078 35.1023L74.8261 35.0755L74.0003 34.5115ZM73.2803 35.4315L72.4928 34.8152L72.4547 34.864L72.4228 34.9171L73.2803 35.4315ZM72.8003 36.2315L71.9428 35.7171L71.8003 35.9546V36.2315H72.8003ZM72.3203 37.1515L71.5033 36.5749L71.4917 36.5914L71.4807 36.6083L72.3203 37.1515ZM71.5603 38.3915L70.6921 37.8954L70.6858 37.9064L70.6798 37.9174L71.5603 38.3915ZM71.0003 39.3515L70.1566 38.8147L68.9631 40.6902L71.1583 40.339L71.0003 39.3515ZM72.0003 39.1915L72.1583 40.179L72.206 40.1714L72.2527 40.1592L72.0003 39.1915ZM73.8403 38.7115V37.7115H73.712L73.5879 37.7439L73.8403 38.7115ZM75.2803 38.3515V37.3515H75.0837L74.9017 37.426L75.2803 38.3515ZM75.9603 38.3115L76.1017 39.3015L76.4317 39.2544L76.6674 39.0187L75.9603 38.3115ZM76.7203 38.1915L76.779 39.1898L77.0495 39.1739L77.275 39.0236L76.7203 38.1915ZM77.8003 37.9515L77.9647 38.9379L77.9647 38.9379L77.8003 37.9515ZM80.8403 37.5915L80.7691 36.5941L80.7296 36.5969L80.6905 36.6028L80.8403 37.5915ZM82.2803 37.8315L81.5732 38.5387L81.5732 38.5387L82.2803 37.8315ZM82.6003 40.2315L81.6736 39.8558L81.6003 40.0366V40.2315H82.6003ZM82.2803 40.4715L82.5916 41.4219L82.6616 41.3989L82.7275 41.366L82.2803 40.4715ZM79.5203 41.3515L79.7092 42.3336L79.7466 42.3263L79.7834 42.3163L79.5203 41.3515ZM77.8003 41.8715V42.8715H78.0238L78.2261 42.7764L77.8003 41.8715ZM77.3203 42.0315L77.7461 42.9364L77.7569 42.9313L77.7675 42.926L77.3203 42.0315ZM75.5203 42.6315L75.2778 41.6614L75.2605 41.6657L75.2434 41.6706L75.5203 42.6315ZM72.7203 43.4315L72.4572 42.4668L72.402 42.4818L72.3489 42.5031L72.7203 43.4315ZM71.0803 43.9115L70.8304 42.9433L70.8116 42.9481L70.793 42.9537L71.0803 43.9115ZM67.0803 43.5915L67.6538 42.7723L67.6324 42.7574L67.6103 42.7435L67.0803 43.5915ZM66.6803 43.2315L67.5747 42.7843L67.5469 42.7286L67.5124 42.6768L66.6803 43.2315ZM66.2003 42.5115L67.0324 41.9568L67.0234 41.9434L67.014 41.9303L66.2003 42.5115ZM66.0803 39.7515L66.9199 40.2948L67.0803 40.0469V39.7515H66.0803ZM66.2803 39.3515L67.1283 39.8815L67.1702 39.8145L67.2011 39.7417L66.2803 39.3515ZM67.2803 36.9915L68.2011 37.3817L68.2389 37.2924L68.2589 37.1976L67.2803 36.9915ZM67.4403 36.2315L68.4189 36.4376L68.4403 36.3357V36.2315H67.4403ZM67.8803 35.5515L68.6437 36.1975L68.736 36.0883L68.7941 35.9577L67.8803 35.5515ZM68.2803 34.8315L67.4483 34.2768L67.4483 34.2768L68.2803 34.8315ZM68.5203 34.4315L67.6819 33.8866L67.5203 34.1351V34.4315H68.5203ZM69.5203 33.2315L70.1605 33.9998L70.2765 33.9031L70.3587 33.7765L69.5203 33.2315ZM70.0403 32.4315L69.2642 31.801L69.2308 31.8421L69.2019 31.8866L70.0403 32.4315ZM70.5603 31.7915L71.3364 32.4221L71.5603 32.1466V31.7915H70.5603ZM71.6403 30.3115L72.3722 30.993L72.4994 30.8563L72.5688 30.6829L71.6403 30.3115ZM72.3203 29.3115L73.1203 29.9115L73.2063 29.7969L73.2566 29.6627L72.3203 29.3115ZM72.6803 29.3515C72.9865 29.3515 73.195 29.2106 73.2308 29.1872C73.3021 29.1406 73.3522 29.0948 73.3751 29.0732C73.4238 29.0272 73.4594 28.9846 73.4747 28.966C73.5103 28.9228 73.5432 28.8774 73.5673 28.8432C73.6192 28.7696 73.6847 28.671 73.7599 28.5548C73.9124 28.319 74.1302 27.9718 74.4111 27.517L72.7095 26.4661C72.4304 26.918 72.2215 27.2507 72.0807 27.4683C72.0093 27.5788 71.9614 27.6501 71.9333 27.6899C71.9175 27.7124 71.9186 27.7095 71.9309 27.6946C71.9346 27.6901 71.9606 27.6581 72.0018 27.6192C72.0209 27.6012 72.0678 27.558 72.1363 27.5132C72.1715 27.4903 72.2295 27.4555 72.3066 27.4243C72.3794 27.3948 72.5105 27.3515 72.6803 27.3515V29.3515ZM73.5603 27.9915C73.9146 27.9915 74.1585 27.816 74.2403 27.7534C74.3491 27.6702 74.4344 27.5776 74.4937 27.5075C74.6153 27.3637 74.7361 27.1839 74.852 26.9956L73.1486 25.9474C73.0512 26.1059 72.9919 26.186 72.9669 26.2156C72.9529 26.2322 72.9732 26.2046 73.0254 26.1647C73.0529 26.1436 73.1065 26.1058 73.1844 26.0709C73.2613 26.0364 73.3915 25.9915 73.5603 25.9915V27.9915ZM74.7074 27.1787C75.0564 26.8297 75.3603 26.3503 75.3603 25.7515H73.3603C73.3603 25.7273 73.3634 25.7059 73.3677 25.689C73.3718 25.6725 73.376 25.6641 73.3759 25.6643C73.3747 25.6666 73.3564 25.7013 73.2932 25.7644L74.7074 27.1787ZM75.169 26.3397L75.809 25.4597L74.1916 24.2834L73.5516 25.1634L75.169 26.3397ZM76.0003 24.8715C76.0003 24.978 75.9812 25.0583 75.9693 25.1C75.9566 25.1444 75.9436 25.1741 75.9383 25.1856C75.9285 25.2067 75.9282 25.2025 75.9524 25.1662C75.9999 25.0949 76.0903 24.9765 76.2396 24.8023L74.7211 23.5008C74.5503 23.6999 74.4007 23.8882 74.2883 24.0568C74.2324 24.1406 74.1721 24.2397 74.1223 24.3475C74.0822 24.4344 74.0003 24.6274 74.0003 24.8715H76.0003ZM76.3675 24.6129C76.6845 24.0033 77.1213 23.3139 77.6867 22.5429L76.0739 21.3602C75.466 22.1892 74.9694 22.9665 74.5931 23.6902L76.3675 24.6129ZM77.7124 22.5062C78.0324 22.0262 78.2457 21.7062 78.3524 21.5462L76.6883 20.4368C76.5816 20.5968 76.3683 20.9168 76.0483 21.3968L77.7124 22.5062ZM78.334 21.5728C78.4754 21.3748 78.6056 21.1771 78.6947 20.9988L76.9059 20.1043C76.8884 20.1393 76.8319 20.2349 76.7066 20.4103L78.334 21.5728ZM78.6003 21.1515C78.6568 21.0763 78.7062 21.0199 78.7474 20.9786L77.3332 19.5644C77.2145 19.6832 77.1038 19.8135 77.0003 19.9515L78.6003 21.1515ZM78.0403 19.2715H77.7203V21.2715H78.0403V19.2715ZM77.6208 19.2765L76.8208 19.3565L77.0198 21.3466L77.8198 21.2666L77.6208 19.2765ZM76.9203 19.3515C76.6845 19.3515 76.4252 19.4045 76.1978 19.4614L76.6828 21.4017C76.7721 21.3794 76.8383 21.3657 76.8847 21.3579C76.9353 21.3495 76.9426 21.3515 76.9203 21.3515V19.3515ZM76.1803 19.4659C75.1482 19.7438 74.3316 19.9451 73.7243 20.073C73.4204 20.137 73.1788 20.1804 72.9946 20.2061C72.9029 20.2189 72.8313 20.2265 72.7775 20.2303C72.7213 20.2343 72.6981 20.2332 72.699 20.2333L72.5816 22.2298C72.9625 22.2522 73.5208 22.1597 74.1363 22.0301C74.7957 21.8913 75.6524 21.6793 76.7003 21.3972L76.1803 19.4659ZM72.699 20.2333C72.1237 20.1994 71.5482 20.2772 71.0415 20.5537L71.9992 22.3094C72.0791 22.2658 72.2503 22.2103 72.5816 22.2298L72.699 20.2333ZM71.5203 20.4315C70.9773 20.4315 70.3468 20.5104 69.6442 20.651L70.0364 22.6121C70.6671 22.486 71.1567 22.4315 71.5203 22.4315V20.4315ZM69.8403 20.6315C68.8186 20.6315 68.4239 20.3921 68.2852 20.2274L66.7554 21.5157C67.47 22.3643 68.6221 22.6315 69.8403 22.6315V20.6315ZM68.3129 20.2618L67.9129 19.7418L66.3277 20.9613L66.7277 21.4813L68.3129 20.2618ZM68.0081 19.8912L67.4481 18.8112L65.6726 19.7319L66.2326 20.8119L68.0081 19.8912ZM67.5251 19.0084C67.5063 18.9396 67.4828 18.6592 67.5867 18.0359L65.6139 17.7071C65.5045 18.3639 65.4543 19.0168 65.5955 19.5347L67.5251 19.0084ZM67.5288 18.2429C67.5236 18.2559 67.5194 18.2551 67.5357 18.2397C67.555 18.2215 67.6026 18.1842 67.6994 18.1395L66.8612 16.3236C66.3608 16.5545 65.9013 16.9265 65.6718 17.5002L67.5288 18.2429ZM67.7275 18.126C67.9354 18.022 68.2161 17.9515 68.6003 17.9515V15.9515C67.9711 15.9515 67.3719 16.0677 66.8331 16.3371L67.7275 18.126ZM68.6003 17.9515C69.4566 17.9515 70.4937 17.9102 71.7068 17.8293L71.5738 15.8338C70.387 15.9129 69.3973 15.9515 68.6003 15.9515V17.9515ZM71.7068 17.8293C72.8953 17.7501 74.2053 17.6839 75.6373 17.6309L75.5633 15.6322C74.1153 15.6859 72.7853 15.753 71.5738 15.8338L71.7068 17.8293ZM75.6003 17.6315C77.2552 17.6315 79.5984 17.3811 82.599 16.8989L82.2816 14.9242C79.3089 15.402 77.0921 15.6315 75.6003 15.6315V17.6315ZM82.5398 16.9066C82.5021 16.9104 82.5112 16.9002 82.5855 16.924C82.6592 16.9476 82.7714 16.9964 82.9258 17.089L83.9548 15.3741C83.4922 15.0965 82.9295 14.8576 82.3408 14.9165L82.5398 16.9066ZM82.9258 17.089C83.2422 17.2789 83.4363 17.4613 83.5516 17.6197L85.169 16.4434C84.8576 16.0152 84.4384 15.6642 83.9548 15.3741L82.9258 17.089ZM83.4318 17.4029C83.617 17.8659 83.8414 18.2882 84.1116 18.6597L85.729 17.4834C85.5726 17.2682 85.4236 16.9971 85.2888 16.6602L83.4318 17.4029ZM83.9963 18.4539C84.1096 18.7278 84.125 19.1828 83.441 19.9808L84.9596 21.2823C85.8756 20.2136 86.371 18.962 85.8443 17.6892L83.9963 18.4539ZM83.5418 19.879L82.5818 20.719L83.8988 22.2241L84.8588 21.3841L83.5418 19.879ZM83.2403 20.4715C82.8899 20.4715 82.659 20.6558 82.6384 20.6711C82.5691 20.7224 82.5204 20.7722 82.4984 20.7953C82.4506 20.8457 82.4132 20.8944 82.3928 20.9215C82.3473 20.9822 82.2986 21.0547 82.2519 21.1266C82.1551 21.2754 82.0243 21.4878 81.8628 21.7571L83.5778 22.786C83.7363 22.5219 83.8522 22.3344 83.9287 22.2165C83.9474 22.1878 83.9624 22.1653 83.9741 22.1482C83.9798 22.1398 83.9844 22.1333 83.9877 22.1286C83.9894 22.1263 83.9906 22.1245 83.9915 22.1233C83.9924 22.122 83.9929 22.1215 83.9928 22.1215C83.9928 22.1216 83.9921 22.1225 83.9908 22.1242C83.9895 22.1258 83.9874 22.1285 83.9844 22.1322C83.9794 22.1383 83.967 22.1533 83.9484 22.1728C83.9344 22.1876 83.8925 22.2311 83.8288 22.2782C83.7965 22.3022 83.7386 22.3421 83.6591 22.3791C83.5864 22.4129 83.4381 22.4715 83.2403 22.4715V20.4715ZM81.9075 21.6889C80.8282 23.1947 79.9973 24.3446 79.4139 25.1402C79.1219 25.5384 78.8943 25.8445 78.7296 26.0609C78.5426 26.3066 78.4808 26.3768 78.4932 26.3644L79.9074 27.7787C80.0131 27.673 80.168 27.4732 80.321 27.2722C80.4963 27.0419 80.7321 26.7247 81.0267 26.3229C81.6166 25.5185 82.4524 24.3617 83.5331 22.8541L81.9075 21.6889ZM78.3059 26.6243C78.3063 26.6235 78.3043 26.6275 78.2988 26.6375C78.2936 26.6471 78.2863 26.6601 78.2766 26.6768C78.2571 26.7106 78.2309 26.7547 78.197 26.8101C78.1292 26.921 78.0371 27.0673 77.9191 27.2508L79.6015 28.3323C79.832 27.9737 80.0121 27.6839 80.0947 27.5188L78.3059 26.6243ZM77.9086 27.2675C77.6937 27.6168 77.5269 27.8944 77.4121 28.0954L79.1485 29.0877C79.247 28.9153 79.4003 28.6597 79.612 28.3156L77.9086 27.2675ZM77.5105 27.9532L76.1505 29.5932L77.6901 30.8699L79.0501 29.2299L77.5105 27.9532ZM75.9203 30.2315C75.9203 30.1759 75.9263 30.135 75.9299 30.1146C75.9337 30.0931 75.9373 30.0809 75.9375 30.0802C75.9378 30.079 75.9364 30.0842 75.9318 30.0965C75.9273 30.1087 75.9206 30.1256 75.9112 30.1476C75.8711 30.2411 75.8003 30.3829 75.6887 30.5813L77.4319 31.5618C77.5603 31.3335 77.6695 31.122 77.7495 30.9355C77.8115 30.7907 77.9203 30.5213 77.9203 30.2315H75.9203ZM76.0056 30.2395L75.7656 30.3995L76.875 32.0636L77.115 31.9036L76.0056 30.2395ZM75.5133 30.641L74.3133 32.281L75.9273 33.4621L77.1273 31.8221L75.5133 30.641ZM74.2945 32.3076L73.1745 33.9476L74.8261 35.0755L75.9461 33.4355L74.2945 32.3076ZM73.2128 33.8952L72.4928 34.8152L74.0678 36.0479L74.7878 35.1279L73.2128 33.8952ZM72.4228 34.9171L71.9428 35.7171L73.6578 36.746L74.1378 35.946L72.4228 34.9171ZM71.8003 36.2315C71.8003 36.1702 71.8077 36.1244 71.8129 36.0991C71.8182 36.073 71.8234 36.0576 71.8244 36.0547C71.8257 36.0509 71.819 36.0706 71.7937 36.119C71.7428 36.2165 71.651 36.3657 71.5033 36.5749L73.1373 37.7282C73.3096 37.4841 73.4578 37.2533 73.5669 37.0441C73.654 36.8772 73.8003 36.5732 73.8003 36.2315H71.8003ZM71.4807 36.6083C71.1798 37.0734 70.9165 37.5027 70.6921 37.8954L72.4285 38.8877C72.6308 38.5337 72.8741 38.1364 73.1599 37.6948L71.4807 36.6083ZM70.6798 37.9174C70.5032 38.2455 70.3287 38.5443 70.1566 38.8147L71.844 39.8884C72.0452 39.5722 72.2441 39.2309 72.4408 38.8656L70.6798 37.9174ZM71.1583 40.339L72.1583 40.179L71.8423 38.2041L70.8423 38.3641L71.1583 40.339ZM72.2527 40.1592L74.0927 39.6792L73.5879 37.7439L71.7479 38.2239L72.2527 40.1592ZM73.8403 39.7115C74.4036 39.7115 75.0242 39.5367 75.6589 39.2771L74.9017 37.426C74.363 37.6464 74.0237 37.7115 73.8403 37.7115V39.7115ZM75.2803 39.3515C75.5766 39.3515 75.8535 39.337 76.1017 39.3015L75.8189 37.3216C75.6938 37.3395 75.5173 37.3515 75.2803 37.3515V39.3515ZM76.6674 39.0187C76.6131 39.0729 76.5617 39.1111 76.5232 39.1365C76.4842 39.1622 76.4501 39.1803 76.4252 39.1923C76.3774 39.2155 76.3415 39.2269 76.329 39.2307C76.3049 39.2381 76.305 39.2358 76.3463 39.2293C76.4253 39.2168 76.5643 39.2025 76.779 39.1898L76.6616 37.1933C76.423 37.2073 76.2087 37.2263 76.0343 37.2538C75.9489 37.2673 75.8474 37.2867 75.7466 37.3174C75.6903 37.3345 75.4541 37.4036 75.2532 37.6044L76.6674 39.0187ZM77.275 39.0236C77.2017 39.0725 77.1433 39.0954 77.1348 39.0988C77.1183 39.1054 77.1124 39.1067 77.1228 39.1036C77.1438 39.0972 77.1891 39.0851 77.2672 39.0677C77.4215 39.0334 77.6513 38.9902 77.9647 38.9379L77.6359 36.9652C77.3093 37.0196 77.0391 37.0697 76.8334 37.1154C76.7315 37.138 76.6318 37.1626 76.5428 37.1895C76.4881 37.2061 76.3212 37.2557 76.1656 37.3595L77.275 39.0236ZM77.9647 38.9379C78.2796 38.8855 78.5277 38.8474 78.7125 38.8228C78.8049 38.8105 78.8767 38.8021 78.9301 38.797C78.9883 38.7915 79.007 38.7915 79.0003 38.7915V36.7915C78.7386 36.7915 78.2444 36.8637 77.6359 36.9652L77.9647 38.9379ZM79.0003 38.7915C79.4316 38.7915 80.1139 38.713 80.9901 38.5803L80.6905 36.6028C79.8067 36.7367 79.2623 36.7915 79.0003 36.7915V38.7915ZM80.9116 38.589C81.2435 38.5653 81.4636 38.5759 81.5959 38.5979C81.746 38.623 81.6794 38.6449 81.5732 38.5387L82.9874 37.1244C82.6678 36.8049 82.2546 36.6801 81.9247 36.6252C81.5771 36.5672 81.1838 36.5645 80.7691 36.5941L80.9116 38.589ZM81.5732 38.5387C81.737 38.7024 81.807 38.8581 81.8291 39.0237C81.8533 39.2053 81.8285 39.4736 81.6736 39.8558L83.527 40.6073C83.7721 40.0028 83.894 39.3778 83.8115 38.7594C83.727 38.125 83.437 37.574 82.9874 37.1244L81.5732 38.5387ZM81.6003 40.2315C81.6003 39.9168 81.7504 39.7131 81.7994 39.6519C81.8596 39.5767 81.9127 39.5372 81.9203 39.5315C81.9384 39.518 81.9209 39.5332 81.8331 39.5771L82.7275 41.366C82.853 41.3032 82.9955 41.2251 83.1203 41.1315C83.1812 41.0859 83.2744 41.0097 83.3612 40.9012C83.4368 40.8067 83.6003 40.5729 83.6003 40.2315H81.6003ZM81.969 39.5212C80.4089 40.0323 79.5198 40.3152 79.2572 40.3868L79.7834 42.3163C80.1075 42.2279 81.0583 41.9241 82.5916 41.4219L81.969 39.5212ZM79.3315 40.3695C78.5868 40.5128 77.927 40.7067 77.3745 40.9667L78.2261 42.7764C78.5803 42.6097 79.0672 42.457 79.7092 42.3336L79.3315 40.3695ZM77.8003 40.8715C77.4388 40.8715 77.0943 41.0265 76.8731 41.1371L77.7675 42.926C77.8063 42.9066 77.8383 42.8918 77.8642 42.8807C77.8904 42.8695 77.9075 42.8632 77.9165 42.8602C77.9261 42.857 77.922 42.859 77.9064 42.8621C77.8918 42.865 77.8545 42.8715 77.8003 42.8715V40.8715ZM76.8945 41.1267C76.5224 41.3018 75.9911 41.4831 75.2778 41.6614L75.7628 43.6017C76.5429 43.4067 77.2116 43.1879 77.7461 42.9364L76.8945 41.1267ZM75.2434 41.6706C73.6662 42.1251 72.7418 42.3892 72.4572 42.4668L72.9834 44.3963C73.2855 44.3139 74.2277 44.0447 75.7972 43.5925L75.2434 41.6706ZM72.3489 42.5031C72.1515 42.582 71.6671 42.7273 70.8304 42.9433L71.3302 44.8798C72.1468 44.6691 72.7558 44.4944 73.0917 44.36L72.3489 42.5031ZM70.793 42.9537C70.0244 43.1843 69.4256 43.312 68.9808 43.3565L69.1798 45.3466C69.8017 45.2844 70.5362 45.1188 71.3677 44.8694L70.793 42.9537ZM68.9808 43.3565C68.8155 43.373 68.401 43.2954 67.6538 42.7723L66.5068 44.4108C67.3596 45.0077 68.2784 45.4367 69.1798 45.3466L68.9808 43.3565ZM67.6103 42.7435C67.5741 42.7209 67.5462 42.7019 67.5253 42.6867C67.5042 42.6712 67.4931 42.6617 67.4893 42.6583C67.4851 42.6545 67.4929 42.661 67.5072 42.6783C67.5212 42.6953 67.5478 42.7304 67.5747 42.7843L65.7859 43.6788C65.9724 44.0517 66.3191 44.2951 66.5503 44.4395L67.6103 42.7435ZM67.5124 42.6768L67.0324 41.9568L65.3683 43.0662L65.8483 43.7862L67.5124 42.6768ZM67.014 41.9303C66.7656 41.5825 66.6791 41.3021 66.6694 41.0781C66.6599 40.8595 66.7193 40.6048 66.9199 40.2948L65.2407 39.2083C64.8547 39.8049 64.6408 40.4636 64.6712 41.165C64.7015 41.861 64.9683 42.5073 65.3866 43.0928L67.014 41.9303ZM67.0803 39.7515C67.0803 39.7994 67.0766 39.8399 67.0725 39.8711C67.0684 39.9025 67.0632 39.929 67.0586 39.9494C67.0495 39.9891 67.0398 40.018 67.0345 40.0329C67.0244 40.0612 67.0181 40.0721 67.0247 40.0588C67.0301 40.048 67.0408 40.0278 67.059 39.9963C67.0768 39.9653 67.0997 39.9273 67.1283 39.8815L65.4323 38.8215C65.3586 38.9395 65.2897 39.0567 65.2359 39.1643C65.2092 39.2177 65.1778 39.2852 65.1511 39.3602C65.1314 39.4154 65.0803 39.5639 65.0803 39.7515H67.0803ZM67.2011 39.7417L68.2011 37.3817L66.3596 36.6014L65.3596 38.9614L67.2011 39.7417ZM68.2589 37.1976L68.4189 36.4376L66.4618 36.0255L66.3018 36.7855L68.2589 37.1976ZM68.4403 36.2315C68.4403 36.3288 68.4242 36.4033 68.413 36.4451C68.4013 36.4886 68.3889 36.5186 68.3831 36.5318C68.3724 36.5561 68.3698 36.5559 68.3899 36.5248C68.4081 36.4966 68.4373 36.4549 68.4811 36.3979C68.5244 36.3415 68.5782 36.2749 68.6437 36.1975L67.1169 34.9056C66.9585 35.0928 66.8176 35.2732 66.7107 35.4383C66.6575 35.5205 66.5999 35.6187 66.5525 35.7263C66.5123 35.8176 66.4403 36.0012 66.4403 36.2315H68.4403ZM68.7941 35.9577C68.8757 35.7742 68.9807 35.5837 69.1124 35.3862L67.4483 34.2768C67.2599 34.5594 67.0983 34.8489 66.9665 35.1454L68.7941 35.9577ZM69.1124 35.3862C69.1951 35.2621 69.2655 35.1532 69.3178 35.066C69.3429 35.0242 69.3729 34.9723 69.3997 34.9188C69.4126 34.8929 69.4333 34.85 69.4529 34.7977C69.4607 34.7769 69.5203 34.6275 69.5203 34.4315H67.5203C67.5203 34.3718 67.5258 34.3219 67.5311 34.286C67.5366 34.2493 67.5434 34.2185 67.5492 34.1953C67.5605 34.1501 67.5728 34.1153 67.5802 34.0954C67.5949 34.0564 67.608 34.0302 67.6109 34.0243C67.6177 34.0107 67.6177 34.0122 67.6028 34.0371C67.5751 34.0832 67.5255 34.161 67.4483 34.2768L69.1124 35.3862ZM69.3587 34.9765C69.6764 34.4878 69.9466 34.178 70.1605 33.9998L68.8801 32.4633C68.454 32.8184 68.0575 33.3086 67.6819 33.8866L69.3587 34.9765ZM70.3587 33.7765L70.8787 32.9765L69.2019 31.8866L68.6819 32.6866L70.3587 33.7765ZM70.8164 33.0621L71.3364 32.4221L69.7842 31.161L69.2642 31.801L70.8164 33.0621ZM71.5603 31.7915C71.5603 31.9798 71.494 32.0818 71.5188 32.033C71.5305 32.01 71.5646 31.9517 71.6381 31.851C71.7838 31.6514 72.0228 31.3682 72.3722 30.993L70.9084 29.6301C70.5378 30.0282 70.2369 30.3784 70.0225 30.6721C69.916 30.818 69.8151 30.9714 69.7368 31.1251C69.6716 31.253 69.5603 31.4966 69.5603 31.7915H71.5603ZM72.5688 30.6829C72.5519 30.7251 72.5431 30.7339 72.5703 30.6885C72.5922 30.6521 72.6267 30.5982 72.6772 30.5239C72.7781 30.3755 72.9244 30.1727 73.1203 29.9115L71.5203 28.7115C71.3162 28.9837 71.1491 29.2143 71.0234 29.3992C70.9175 29.5549 70.7849 29.7574 70.7118 29.9402L72.5688 30.6829ZM73.2566 29.6627L73.6166 28.7027L71.744 28.0004L71.384 28.9604L73.2566 29.6627Z" fill="#207171"/>
</g>
<defs>
<filter id="filter0_d_157_14" x="14.6643" y="14.986" width="28.034" height="37.862" filterUnits="userSpaceOnUse" color-interpolation-filters="sRGB">
<feFlood flood-opacity="0" result="BackgroundImageFix"/>
<feColorMatrix in="SourceAlpha" type="matrix" values="0 0 0 0 0 0 0 0 0 0 0 0 0 0 0 0 0 0 127 0" result="hardAlpha"/>
<feOffset dy="4"/>
<feGaussianBlur stdDeviation="2"/>
<feComposite in2="hardAlpha" operator="out"/>
<feColorMatrix type="matrix" values="0 0 0 0 0 0 0 0 0 0 0 0 0 0 0 0 0 0 0.25 0"/>
<feBlend mode="normal" in2="BackgroundImageFix" result="effect1_dropShadow_157_14"/>
<feBlend mode="normal" in="SourceGraphic" in2="effect1_dropShadow_157_14" result="shape"/>
</filter>
<filter id="filter1_d_157_14" x="37.0352" y="14.965" width="27.71" height="38.5099" filterUnits="userSpaceOnUse" color-interpolation-filters="sRGB">
<feFlood flood-opacity="0" result="BackgroundImageFix"/>
<feColorMatrix in="SourceAlpha" type="matrix" values="0 0 0 0 0 0 0 0 0 0 0 0 0 0 0 0 0 0 127 0" result="hardAlpha"/>
<feOffset dy="4"/>
<feGaussianBlur stdDeviation="2"/>
<feComposite in2="hardAlpha" operator="out"/>
<feColorMatrix type="matrix" values="0 0 0 0 0 0 0 0 0 0 0 0 0 0 0 0 0 0 0.25 0"/>
<feBlend mode="normal" in2="BackgroundImageFix" result="effect1_dropShadow_157_14"/>
<feBlend mode="normal" in="SourceGraphic" in2="effect1_dropShadow_157_14" result="shape"/>
</filter>
<filter id="filter2_d_157_14" x="61.2003" y="15.8715" width="28.2" height="36.5601" filterUnits="userSpaceOnUse" color-interpolation-filters="sRGB">
<feFlood flood-opacity="0" result="BackgroundImageFix"/>
<feColorMatrix in="SourceAlpha" type="matrix" values="0 0 0 0 0 0 0 0 0 0 0 0 0 0 0 0 0 0 127 0" result="hardAlpha"/>
<feOffset dy="4"/>
<feGaussianBlur stdDeviation="2"/>
<feComposite in2="hardAlpha" operator="out"/>
<feColorMatrix type="matrix" values="0 0 0 0 0 0 0 0 0 0 0 0 0 0 0 0 0 0 0.25 0"/>
<feBlend mode="normal" in2="BackgroundImageFix" result="effect1_dropShadow_157_14"/>
<feBlend mode="normal" in="SourceGraphic" in2="effect1_dropShadow_157_14" result="shape"/>
</filter>
</defs>
</svg>
