<svg width="271" height="162" viewBox="0 0 271 162" fill="none" xmlns="http://www.w3.org/2000/svg">
<path d="M228.781 88.6073C230.415 86.2785 234.07 87.3188 234.232 90.1589L235.122 105.701C235.194 106.976 236.067 108.065 237.295 108.415L252.765 112.818C255.607 113.627 255.691 117.624 252.886 118.552L238.357 123.357C237.069 123.784 236.227 125.022 236.304 126.377L237.159 141.328C237.324 144.212 233.717 145.64 231.864 143.424L221.428 130.953C220.639 130.009 219.353 129.643 218.185 130.03L202.746 135.137C200.004 136.044 197.689 132.931 199.348 130.566L207.948 118.306C208.728 117.195 208.664 115.699 207.793 114.658L197.973 102.922C196.076 100.656 198.253 97.3024 201.095 98.1113L216.564 102.514C217.793 102.864 219.108 102.397 219.841 101.352L228.781 88.6073Z" fill="#33B1B1"/>
<path d="M70.3386 30.9607C72.8972 29.7175 75.5879 32.4011 74.3514 34.963L67.5851 48.983C67.0299 50.1333 67.264 51.509 68.1684 52.411L79.5565 63.7691C81.6485 65.8556 79.7822 69.391 76.8792 68.8407L61.8442 65.9907C60.5107 65.7379 59.1736 66.4119 58.5837 67.6343L52.0748 81.1209C50.8191 83.7226 46.9725 83.2204 46.4269 80.3834L43.3562 64.4146C43.1239 63.2065 42.1776 62.2627 40.9689 62.0336L24.992 59.005C22.1536 58.467 21.6412 54.6217 24.2397 53.3592L37.709 46.8147C38.9298 46.2215 39.6003 44.8827 39.344 43.5498L36.4543 28.5224C35.8963 25.6208 39.4268 23.7452 41.5188 25.8317L52.9069 37.1898C53.8113 38.0918 55.1876 38.3222 56.3365 37.764L70.3386 30.9607Z" fill="#33B1B1"/>
<g filter="url(#filter0_d_82_6)">
<path d="M90.42 63.015C88.4267 61.865 84.555 61.29 78.805 61.29L79.495 68.42C80.1083 72.56 80.645 80.3033 81.105 91.65C81.795 91.4967 82.255 91.305 82.485 91.075C83.0983 90.615 83.75 90.385 84.44 90.385C85.4367 90.155 86.395 89.465 87.315 88.315C89.615 86.3983 91.3783 84.7883 92.605 83.485L96.4 79.115C96.63 79.0383 97.0133 78.195 97.55 76.585C98.0867 74.8983 98.4317 73.5183 98.585 72.445C98.585 70.2217 98.355 68.9567 97.895 68.65C97.895 68.4967 97.435 67.5383 96.515 65.775C96.2083 65.545 95.2883 64.97 93.755 64.05L90.42 63.015ZM66.615 49.79L73.055 48.87L81.335 48.295L85.705 48.87C86.0117 49.1767 86.74 49.3683 87.89 49.445C90.1133 49.3683 93.1033 50.6333 96.86 53.24C97.78 53.5467 98.5467 54.0833 99.16 54.85L103.53 60.14C103.683 60.2933 103.913 60.715 104.22 61.405C104.527 62.0183 104.948 62.7467 105.485 63.59C105.332 63.59 105.447 63.8967 105.83 64.51C106.827 66.1967 107.287 67.1933 107.21 67.5C107.593 67.8067 107.977 68.8033 108.36 70.49C108.743 72.1767 108.858 73.3267 108.705 73.94C108.782 74.0167 108.705 74.8983 108.475 76.585C107.938 80.265 106.98 82.9867 105.6 84.75L104.105 87.51L101.575 91.19L100.08 92.57C97.32 95.6367 93.9467 98.0133 89.96 99.7C89.8067 99.7767 89.5767 99.8533 89.27 99.93L86.51 100.85L82.025 102C82.025 104.223 82.2933 109.36 82.83 117.41C83.1367 120.17 83.3667 121.703 83.52 122.01C83.52 124.54 83.3667 126.227 83.06 127.07C82.7533 127.99 82.255 128.642 81.565 129.025C80.875 129.485 79.6867 129.753 78 129.83C77.54 129.983 76.735 129.83 75.585 129.37C74.435 128.987 73.515 128.373 72.825 127.53L72.135 123.85C72.2883 123.697 72.0583 122.968 71.445 121.665C70.9083 121.052 70.4867 119.978 70.18 118.445L69.375 107.52L69.26 103.84C64.8133 104.147 62.13 102.92 61.21 100.16C60.4433 98.7033 60.29 97.745 60.75 97.285L61.325 95.79C62.245 94.3333 64.0083 93.605 66.615 93.605H69.03C68.8767 93.4517 68.8 92.915 68.8 91.995L68.34 87.165V85.095L68.225 83.6C68.3017 82.91 68.2633 82.1433 68.11 81.3V80.61L67.88 77.735V75.55L67.765 74.4C67.765 68.9567 67.4583 65.5067 66.845 64.05C64.315 65.5067 62.6283 66.3117 61.785 66.465C60.9417 66.5417 59.5233 65.9667 57.53 64.74C56.6867 64.05 56.2267 63.2833 56.15 62.44C54.77 60.5233 54.31 58.9517 54.77 57.725C54.9233 57.1117 55.5367 56.1533 56.61 54.85C56.6867 54.5433 57.6067 53.8533 59.37 52.78C60.75 51.4 63.165 50.4033 66.615 49.79ZM130.419 93.95C130.573 93.7967 131.454 93.6433 133.064 93.49C134.751 93.26 136.706 92.57 138.929 91.42C139.006 91.42 138.968 90.5 138.814 88.66C138.584 85.44 138.393 83.14 138.239 81.76C138.086 79.92 137.933 78.6167 137.779 77.85C137.779 76.3933 137.204 73.365 136.054 68.765L130.994 85.9C129.921 90.6533 129.499 93.5667 129.729 94.64L130.419 93.95ZM114.894 97.285L115.584 92.225C115.584 91.2283 115.738 90.2317 116.044 89.235C116.044 87.9317 116.696 85.9767 117.999 83.37C117.999 83.2167 118.344 82.22 119.034 80.38C119.034 80.2267 119.763 77.965 121.219 73.595L122.599 70.26C122.599 69.9533 122.791 69.3783 123.174 68.535C123.558 67.615 123.826 66.7333 123.979 65.89C124.209 64.97 124.478 64.0883 124.784 63.245C125.858 61.175 126.816 59.4117 127.659 57.955C129.269 54.8883 132.259 53.5083 136.629 53.815L140.309 54.16C142.609 54.7733 144.373 55.425 145.599 56.115C147.363 56.805 148.551 57.5717 149.164 58.415C149.778 59.1817 150.046 60.485 149.969 62.325C150.046 63.245 150.276 67.2317 150.659 74.285C151.043 81.3383 151.234 84.9033 151.234 84.98L151.809 89.925C151.809 90.385 152.653 95.905 154.339 106.485L156.869 114.535C158.403 118.828 159.208 121.09 159.284 121.32C159.438 121.473 159.783 122.278 160.319 123.735C161.163 126.265 160.434 127.952 158.134 128.795C156.064 129.102 154.531 128.91 153.534 128.22C153.151 128.22 152.269 127.875 150.889 127.185C150.736 126.802 150.276 126.418 149.509 126.035C148.819 125.728 148.359 125.46 148.129 125.23C147.286 125 146.519 123.812 145.829 121.665C145.599 121.512 145.178 120.898 144.564 119.825C144.028 118.752 143.874 117.87 144.104 117.18C143.568 116.49 143.299 115.072 143.299 112.925C142.609 111.775 142.264 109.973 142.264 107.52C142.264 105.067 141.881 103.15 141.114 101.77C137.204 103.533 133.026 104.492 128.579 104.645C127.736 104.645 127.314 104.798 127.314 105.105C127.314 105.795 127.084 107.022 126.624 108.785L124.669 121.435C125.436 127.108 124.746 130.098 122.599 130.405C121.986 130.405 120.951 130.558 119.494 130.865C118.114 131.172 116.964 130.903 116.044 130.06C114.281 129.063 113.016 128.028 112.249 126.955C111.559 125.958 111.253 124.808 111.329 123.505C111.406 122.432 111.598 120.132 111.904 116.605C112.058 116.452 112.096 115.608 112.019 114.075C112.019 112.465 112.134 111.238 112.364 110.395L114.204 103.265C114.434 103.112 114.741 101.962 115.124 99.815C115.048 99.6617 115.009 99.2783 115.009 98.665L114.894 97.285ZM203.881 65.89C202.348 66.2733 201.121 66.5033 200.201 66.58C199.358 66.6567 198.706 66.695 198.246 66.695C197.863 66.695 196.483 66.81 194.106 67.04C192.726 67.5 191.806 67.7683 191.346 67.845C190.963 67.845 190.158 67.96 188.931 68.19C185.864 68.88 184.293 69.2633 184.216 69.34C183.986 69.1867 181.379 69.57 176.396 70.49C175.246 71.0267 174.479 71.2183 174.096 71.065C173.789 70.9117 173.521 70.4133 173.291 69.57C172.984 69.0333 172.486 68.535 171.796 68.075C171.106 67.385 170.646 66.6567 170.416 65.89C169.726 64.8167 169.611 63.6667 170.071 62.44C170.914 60.2933 171.336 59.1433 171.336 58.99C171.336 57.9167 172.179 57.38 173.866 57.38C177.086 56.3067 179.003 55.77 179.616 55.77C180.306 55.77 181.034 55.5783 181.801 55.195C182.644 55.195 183.564 55.0417 184.561 54.735C185.558 54.4283 186.171 54.275 186.401 54.275C186.708 54.275 187.321 54.1983 188.241 54.045C195.601 52.895 200.009 52.3583 201.466 52.435C202.923 52.5117 204.264 52.2817 205.491 51.745C205.874 52.0517 206.564 52.1667 207.561 52.09C210.321 52.0133 212.008 52.5883 212.621 53.815C212.851 54.275 213.119 55.4633 213.426 57.38C213.809 59.22 214.001 60.6383 214.001 61.635C214.001 62.6317 214.116 63.5133 214.346 64.28C214.576 64.97 214.806 65.3533 215.036 65.43C215.343 65.43 215.918 66.1967 216.761 67.73C217.681 69.1867 218.103 70.26 218.026 70.95C218.103 71.18 218.294 71.985 218.601 73.365L219.061 74.4C219.598 75.2433 219.444 75.7417 218.601 75.895C218.064 76.125 217.643 76.5083 217.336 77.045C217.259 77.045 217.068 77.1217 216.761 77.275C215.994 77.735 215.381 78.08 214.921 78.31C210.858 82.22 208.404 84.3667 207.561 84.75C205.261 87.6633 203.344 89.695 201.811 90.845C200.278 91.9183 199.473 92.455 199.396 92.455C199.396 92.9917 197.978 94.6017 195.141 97.285C190.388 101.655 187.359 104.645 186.056 106.255C184.829 107.788 183.718 108.9 182.721 109.59C181.801 110.203 180.843 111.392 179.846 113.155C178.849 113.845 178.313 114.305 178.236 114.535C178.159 114.765 178.428 115.148 179.041 115.685C179.501 115.762 182.606 114.842 188.356 112.925C189.353 113.232 190.809 112.887 192.726 111.89C192.803 111.89 193.186 111.775 193.876 111.545C194.566 111.238 199.779 110.548 209.516 109.475C210.359 109.628 210.973 109.973 211.356 110.51C211.816 111.047 212.276 112.35 212.736 114.42C213.349 115.263 213.579 116.413 213.426 117.87C213.273 118.407 212.851 119.25 212.161 120.4C211.548 121.55 211.126 122.163 210.896 122.24C210.896 122.547 210.589 122.815 209.976 123.045C209.823 123.505 209.593 123.773 209.286 123.85C208.979 123.927 208.136 123.888 206.756 123.735C205.453 123.505 202.233 123.735 197.096 124.425C195.409 124.425 193.761 124.693 192.151 125.23C190.618 125.767 189.621 126.073 189.161 126.15C185.098 126.917 182.529 127.645 181.456 128.335C178.006 128.335 176.128 128.488 175.821 128.795C175.514 128.642 175.054 128.565 174.441 128.565C173.828 128.565 173.291 128.68 172.831 128.91C172.371 129.523 171.566 128.603 170.416 126.15C170.263 125.92 169.688 125.345 168.691 124.425C167.694 123.428 167.004 122.7 166.621 122.24C164.781 120.553 163.708 119.557 163.401 119.25C163.171 118.943 163.171 118.483 163.401 117.87C163.631 117.257 163.439 116.797 162.826 116.49C162.596 116.107 162.558 115.685 162.711 115.225C162.941 114.688 162.979 113.883 162.826 112.81C162.749 111.737 162.941 110.817 163.401 110.05C163.631 108.67 164.781 107.137 166.851 105.45C167.388 104.913 167.771 104.53 168.001 104.3C168.231 103.993 168.883 103.303 169.956 102.23C170.186 101.693 170.608 100.888 171.221 99.815C171.604 99.5083 171.988 99.125 172.371 98.665C174.211 97.5917 175.323 96.71 175.706 96.02C179.309 91.8033 181.226 89.5417 181.456 89.235C181.916 88.9283 182.299 88.6983 182.606 88.545C182.913 88.3917 183.143 88.1617 183.296 87.855C183.526 87.165 183.718 86.82 183.871 86.82C185.098 86.2067 186.094 85.5167 186.861 84.75C187.474 83.5233 187.858 82.91 188.011 82.91C188.318 82.68 188.586 82.4883 188.816 82.335C189.123 82.1817 189.391 82.0283 189.621 81.875C190.541 80.8017 191.959 79.575 193.876 78.195C194.029 77.965 194.528 77.3517 195.371 76.355C196.291 75.2817 196.828 74.63 196.981 74.4C197.364 74.2467 197.786 73.9783 198.246 73.595C198.783 73.135 199.089 72.905 199.166 72.905C199.243 72.7517 199.588 72.4833 200.201 72.1C200.738 71.7167 201.274 71.1417 201.811 70.375C202.884 68.9183 203.843 67.9983 204.686 67.615C205.606 67.155 206.028 66.8483 205.951 66.695C205.951 66.465 205.644 66.3883 205.031 66.465L203.881 65.89Z" fill="#F7E8A4"/>
<path d="M90.42 63.015L88.9208 65.6136L89.2109 65.7809L89.5308 65.8802L90.42 63.015ZM78.805 61.29V58.29H75.5007L75.8189 61.579L78.805 61.29ZM79.495 68.42L76.5089 68.709L76.5163 68.7845L76.5274 68.8596L79.495 68.42ZM81.105 91.65L78.1075 91.7715L78.2528 95.357L81.7558 94.5786L81.105 91.65ZM82.485 91.075L80.685 88.675L80.5144 88.8029L80.3637 88.9537L82.485 91.075ZM84.44 90.385V93.385H84.7817L85.1146 93.3082L84.44 90.385ZM87.315 88.315L85.3944 86.0103L85.1617 86.2043L84.9724 86.4409L87.315 88.315ZM92.605 83.485L94.7896 85.5411L94.8307 85.4974L94.8701 85.4521L92.605 83.485ZM96.4 79.115L95.4513 76.2689L94.6729 76.5284L94.1349 77.1479L96.4 79.115ZM97.55 76.585L100.396 77.5337L100.403 77.5142L100.409 77.4946L97.55 76.585ZM98.585 72.445L101.555 72.8693L101.585 72.6582V72.445H98.585ZM97.895 68.65H94.895V70.2556L96.2309 71.1462L97.895 68.65ZM96.515 65.775L99.1748 64.3873L98.8598 63.7836L98.315 63.375L96.515 65.775ZM93.755 64.05L95.2985 61.4775L94.9889 61.2918L94.6442 61.1848L93.755 64.05ZM66.615 49.79L66.1907 46.8201L66.1402 46.8274L66.0899 46.8363L66.615 49.79ZM73.055 48.87L72.8472 45.8772L72.7385 45.8847L72.6307 45.9001L73.055 48.87ZM81.335 48.295L81.7264 45.3206L81.4277 45.2813L81.1272 45.3022L81.335 48.295ZM85.705 48.87L87.8263 46.7487L87.1061 46.0285L86.0964 45.8956L85.705 48.87ZM87.89 49.445L87.6904 52.4384L87.8418 52.4484L87.9934 52.4432L87.89 49.445ZM96.86 53.24L95.1497 55.7048L95.5032 55.95L95.9113 56.086L96.86 53.24ZM99.16 54.85L96.8174 56.7241L96.8321 56.7425L96.8471 56.7606L99.16 54.85ZM103.53 60.14L101.217 62.0506L101.308 62.1605L101.409 62.2613L103.53 60.14ZM104.22 61.405L101.479 62.6234L101.506 62.6857L101.537 62.7466L104.22 61.405ZM105.485 63.59V66.59H110.95L108.016 61.9794L105.485 63.59ZM105.83 64.51L108.413 62.9838L108.394 62.9517L108.374 62.92L105.83 64.51ZM107.21 67.5L104.3 66.7724L103.833 68.64L105.336 69.8426L107.21 67.5ZM108.36 70.49L111.285 69.8251L108.36 70.49ZM108.705 73.94L105.795 73.2124L105.383 74.8602L106.584 76.0613L108.705 73.94ZM108.475 76.585L111.444 77.0179L111.446 77.0041L111.447 76.9903L108.475 76.585ZM105.6 84.75L103.237 82.9011L103.082 83.0995L102.962 83.3211L105.6 84.75ZM104.105 87.51L106.577 89.2096L106.667 89.0786L106.743 88.9389L104.105 87.51ZM101.575 91.19L103.61 93.3944L103.857 93.1665L104.047 92.8896L101.575 91.19ZM100.08 92.57L98.0452 90.3656L97.9431 90.4598L97.8501 90.5631L100.08 92.57ZM89.96 99.7L88.7911 96.9371L88.7035 96.9742L88.6184 97.0167L89.96 99.7ZM89.27 99.93L88.5424 97.0196L88.4306 97.0475L88.3213 97.0839L89.27 99.93ZM86.51 100.85L87.2551 103.756L87.358 103.73L87.4587 103.696L86.51 100.85ZM82.025 102L81.2799 99.094L79.025 99.6722V102H82.025ZM82.83 117.41L79.8366 117.61L79.841 117.676L79.8483 117.741L82.83 117.41ZM83.52 122.01H86.52V121.302L86.2033 120.668L83.52 122.01ZM83.06 127.07L80.2406 126.045L80.2268 126.083L80.2139 126.121L83.06 127.07ZM81.565 129.025L80.1081 126.403L80.0019 126.461L79.9009 126.529L81.565 129.025ZM78 129.83L77.8638 126.833L77.4471 126.852L77.0513 126.984L78 129.83ZM75.585 129.37L76.6992 126.585L76.6173 126.552L76.5337 126.524L75.585 129.37ZM72.825 127.53L69.8764 128.083L70.0177 128.836L70.5031 129.43L72.825 127.53ZM72.135 123.85L70.0137 121.729L68.8948 122.848L69.1864 124.403L72.135 123.85ZM71.445 121.665L74.1594 120.388L73.9801 120.006L73.7027 119.689L71.445 121.665ZM70.18 118.445L67.1881 118.665L67.2018 118.851L67.2383 119.033L70.18 118.445ZM69.375 107.52L66.3765 107.614L66.3784 107.677L66.3831 107.74L69.375 107.52ZM69.26 103.84L72.2585 103.746L72.1612 100.633L69.0536 100.847L69.26 103.84ZM61.21 100.16L64.056 99.2113L63.9787 98.9792L63.8647 98.7628L61.21 100.16ZM60.75 97.285L62.8713 99.4063L63.3215 98.9561L63.55 98.3619L60.75 97.285ZM61.325 95.79L58.7885 94.188L58.6309 94.4376L58.525 94.7131L61.325 95.79ZM69.03 93.605V96.605H76.2726L71.1513 91.4837L69.03 93.605ZM68.8 91.995H71.8V91.8525L71.7865 91.7106L68.8 91.995ZM68.34 87.165H65.34V87.3075L65.3535 87.4494L68.34 87.165ZM68.34 85.095H71.34V84.9798L71.3312 84.8649L68.34 85.095ZM68.225 83.6L65.2433 83.2687L65.2122 83.549L65.2338 83.8301L68.225 83.6ZM68.11 81.3H65.11V81.5705L65.1584 81.8367L68.11 81.3ZM68.11 80.61H71.11V80.4902L71.1004 80.3708L68.11 80.61ZM67.88 77.735H64.88V77.8548L64.8895 77.9742L67.88 77.735ZM67.88 75.55H70.88V75.4004L70.8651 75.2515L67.88 75.55ZM67.765 74.4H64.765V74.5496L64.7799 74.6985L67.765 74.4ZM66.845 64.05L69.6099 62.8858L68.2918 59.7553L65.3481 61.4501L66.845 64.05ZM61.785 66.465L62.0566 69.4527L62.1899 69.4406L62.3217 69.4166L61.785 66.465ZM57.53 64.74L55.6303 67.0619L55.7862 67.1894L55.9577 67.295L57.53 64.74ZM56.15 62.44L59.1377 62.1684L59.0635 61.3522L58.5846 60.6871L56.15 62.44ZM54.77 57.725L57.579 58.7784L57.639 58.6184L57.6804 58.4526L54.77 57.725ZM56.61 54.85L58.9258 56.7571L59.3562 56.2345L59.5204 55.5776L56.61 54.85ZM59.37 52.78L60.9298 55.3426L61.237 55.1556L61.4913 54.9013L59.37 52.78ZM91.9192 60.4164C90.4447 59.5658 88.5464 59.0634 86.462 58.7538C84.3298 58.4371 81.7659 58.29 78.805 58.29V64.29C81.5941 64.29 83.841 64.4304 85.5805 64.6887C87.3677 64.9541 88.402 65.3142 88.9208 65.6136L91.9192 60.4164ZM75.8189 61.579L76.5089 68.709L82.481 68.131L81.791 61.001L75.8189 61.579ZM76.5274 68.8596C77.114 72.8192 77.6469 80.4102 78.1075 91.7715L84.1025 91.5285C83.6431 80.1965 83.1027 72.3008 82.4626 67.9804L76.5274 68.8596ZM81.7558 94.5786C82.4872 94.416 83.7157 94.087 84.6063 93.1963L80.3637 88.9537C80.5086 88.8088 80.6356 88.7229 80.705 88.6805C80.7761 88.637 80.8179 88.6202 80.8136 88.622C80.811 88.6231 80.7813 88.6351 80.7173 88.6543C80.6542 88.6733 80.5677 88.6962 80.4542 88.7214L81.7558 94.5786ZM84.285 93.475C84.3742 93.4081 84.4233 93.3896 84.4322 93.3865C84.4376 93.3846 84.4386 93.3846 84.4366 93.385C84.4345 93.3853 84.435 93.385 84.44 93.385V87.385C83.0289 87.385 81.7569 87.8711 80.685 88.675L84.285 93.475ZM85.1146 93.3082C87.0044 92.8721 88.496 91.6411 89.6576 90.1891L84.9724 86.4409C84.294 87.2889 83.8689 87.4379 83.7654 87.4618L85.1146 93.3082ZM89.2355 90.6197C91.5757 88.6696 93.4434 86.9714 94.7896 85.5411L90.4204 81.4289C89.3132 82.6053 87.6543 84.1271 85.3944 86.0103L89.2355 90.6197ZM94.8701 85.4521L98.6651 81.0821L94.1349 77.1479L90.3399 81.5179L94.8701 85.4521ZM97.3487 81.9611C97.9995 81.7441 98.4195 81.3669 98.6147 81.1716C98.8354 80.9509 98.9943 80.7324 99.0974 80.5779C99.3033 80.2689 99.4666 79.9402 99.5911 79.6664C99.848 79.1013 100.117 78.371 100.396 77.5337L94.7039 75.6363C94.4464 76.409 94.2554 76.9054 94.1289 77.1836C94.0617 77.3314 94.0525 77.3286 94.1051 77.2496C94.1315 77.2101 94.2185 77.0826 94.3721 76.929C94.4523 76.8488 94.5734 76.7385 94.7373 76.6251C94.8998 76.5126 95.1385 76.3732 95.4513 76.2689L97.3487 81.9611ZM100.409 77.4946C100.969 75.7352 101.368 74.1771 101.555 72.8693L95.6151 72.0207C95.4953 72.8596 95.2047 74.0614 94.6912 75.6754L100.409 77.4946ZM101.585 72.445C101.585 71.263 101.526 70.1841 101.364 69.2921C101.283 68.8475 101.158 68.3423 100.944 67.8537C100.744 67.3997 100.346 66.6786 99.5591 66.1538L96.2309 71.1462C95.6738 70.7747 95.4767 70.3267 95.4499 70.2657C95.408 70.17 95.4267 70.1775 95.4609 70.3654C95.5287 70.7384 95.585 71.4037 95.585 72.445H101.585ZM100.895 68.65C100.895 68.1056 100.739 67.6662 100.727 67.6293C100.678 67.479 100.624 67.341 100.581 67.237C100.492 67.0227 100.378 66.776 100.255 66.5181C100.003 65.9933 99.6394 65.2779 99.1748 64.3873L93.8552 67.1627C94.3106 68.0355 94.6373 68.6808 94.8454 69.1144C94.9516 69.3357 95.0104 69.4675 95.0367 69.5311C95.0512 69.5661 95.0398 69.5419 95.0198 69.4803C95.0098 69.4494 94.9867 69.3759 94.9637 69.2743C94.9471 69.201 94.895 68.9646 94.895 68.65H100.895ZM98.315 63.375C97.8535 63.0289 96.7686 62.3596 95.2985 61.4775L92.2115 66.6225C92.9711 67.0783 93.567 67.4415 94.005 67.7152C94.2242 67.8522 94.3957 67.9617 94.524 68.046C94.663 68.1371 94.7151 68.1751 94.715 68.175L98.315 63.375ZM94.6442 61.1848L91.3092 60.1498L89.5308 65.8802L92.8658 66.9152L94.6442 61.1848ZM67.0393 52.7598L73.4793 51.8398L72.6307 45.9001L66.1907 46.8201L67.0393 52.7598ZM73.2628 51.8628L81.5428 51.2878L81.1272 45.3022L72.8472 45.8772L73.2628 51.8628ZM80.9436 51.2694L85.3136 51.8444L86.0964 45.8956L81.7264 45.3206L80.9436 51.2694ZM83.5837 50.9913C84.2967 51.7043 85.1698 52.0008 85.7178 52.145C86.3363 52.3077 87.0138 52.3932 87.6904 52.4384L88.0896 46.4516C87.8619 46.4365 87.6773 46.417 87.5308 46.3961C87.3825 46.3749 87.2909 46.3547 87.2447 46.3425C87.1943 46.3292 87.2287 46.3336 87.3155 46.3754C87.3975 46.4149 87.6011 46.5234 87.8263 46.7487L83.5837 50.9913ZM87.9934 52.4432C89.1732 52.4025 91.4619 53.1459 95.1497 55.7048L98.5702 50.7752C94.7447 48.1208 91.0534 46.3341 87.7866 46.4468L87.9934 52.4432ZM95.9113 56.086C96.2755 56.2074 96.5605 56.403 96.8174 56.7241L101.503 52.9759C100.533 51.7636 99.2845 50.8859 97.8087 50.3939L95.9113 56.086ZM96.8471 56.7606L101.217 62.0506L105.843 58.2294L101.473 52.9394L96.8471 56.7606ZM101.409 62.2613C101.322 62.1742 101.262 62.1012 101.229 62.059C101.194 62.0147 101.172 61.9828 101.163 61.9694C101.147 61.9454 101.154 61.9527 101.184 62.0078C101.245 62.1192 101.342 62.3159 101.479 62.6234L106.961 60.1866C106.791 59.8041 106.62 59.4449 106.451 59.1347C106.324 58.9015 106.057 58.4239 105.651 58.0187L101.409 62.2613ZM101.537 62.7466C101.905 63.4834 102.385 64.3058 102.954 65.2006L108.016 61.9794C107.512 61.1875 107.148 60.5533 106.903 60.0634L101.537 62.7466ZM105.485 60.59C104.977 60.59 104.166 60.7228 103.447 61.3621C102.731 61.9986 102.505 62.7819 102.443 63.2754C102.342 64.091 102.598 64.7427 102.647 64.8734C102.818 65.3292 103.084 65.7766 103.286 66.1L108.374 62.92C108.193 62.6301 108.209 62.6174 108.265 62.7666C108.285 62.8206 108.328 62.9404 108.363 63.1075C108.393 63.2519 108.451 63.5869 108.397 64.0196C108.34 64.4748 108.128 65.2293 107.433 65.8466C106.735 66.4668 105.955 66.59 105.485 66.59V60.59ZM103.247 66.0362C103.727 66.8485 104.032 67.418 104.199 67.7797C104.285 67.9661 104.299 68.0233 104.289 67.9871C104.283 67.9677 104.254 67.8673 104.235 67.7101C104.219 67.5783 104.187 67.2242 104.3 66.7724L110.12 68.2276C110.35 67.3079 110.107 66.5054 110.045 66.2941C109.938 65.9321 109.79 65.5772 109.646 65.2653C109.353 64.6304 108.929 63.8582 108.413 62.9838L103.247 66.0362ZM105.336 69.8426C105.035 69.6022 104.912 69.3806 104.912 69.3804C104.898 69.3568 104.926 69.4016 104.985 69.5544C105.103 69.8624 105.258 70.3773 105.435 71.1549L111.285 69.8251C111.079 68.9161 110.85 68.0893 110.585 67.4006C110.378 66.8626 109.954 65.8536 109.084 65.1574L105.336 69.8426ZM105.435 71.1549C105.611 71.9304 105.708 72.5085 105.749 72.916C105.769 73.1174 105.772 73.2457 105.77 73.3142C105.769 73.3917 105.762 73.3421 105.795 73.2124L111.615 74.6676C111.819 73.8546 111.787 73.0021 111.719 72.319C111.645 71.5765 111.492 70.7363 111.285 69.8251L105.435 71.1549ZM106.584 76.0613C106.318 75.7956 106.155 75.5316 106.059 75.3509C105.961 75.1652 105.901 75.0023 105.864 74.8893C105.793 74.6711 105.766 74.4959 105.755 74.4164C105.742 74.3244 105.738 74.2547 105.736 74.2197C105.734 74.1818 105.734 74.1566 105.734 74.1484C105.734 74.1375 105.733 74.2057 105.716 74.3989C105.684 74.7652 105.616 75.3493 105.503 76.1797L111.447 76.9903C111.564 76.134 111.649 75.4339 111.694 74.9186C111.715 74.6709 111.734 74.399 111.734 74.1484C111.734 74.0328 111.73 73.8291 111.698 73.5966C111.683 73.4823 111.649 73.2787 111.571 73.0383C111.513 72.8574 111.326 72.3188 110.826 71.8187L106.584 76.0613ZM105.506 76.1521C105.001 79.6184 104.149 81.7369 103.237 82.9011L107.963 86.5989C109.811 84.2365 110.876 80.9116 111.444 77.0179L105.506 76.1521ZM102.962 83.3211L101.467 86.0811L106.743 88.9389L108.238 86.1788L102.962 83.3211ZM101.633 85.8104L99.1029 89.4904L104.047 92.8896L106.577 89.2096L101.633 85.8104ZM99.5402 88.9856L98.0452 90.3656L102.115 94.7744L103.61 93.3944L99.5402 88.9856ZM97.8501 90.5631C95.3986 93.287 92.3934 95.413 88.7911 96.9371L91.1289 102.463C95.4999 100.614 99.2414 97.9863 102.31 94.5769L97.8501 90.5631ZM88.6184 97.0167C88.6676 96.9921 88.7021 96.9778 88.7164 96.9721C88.7315 96.966 88.7349 96.9653 88.7238 96.9689C88.7131 96.9725 88.6928 96.979 88.6615 96.9879C88.6303 96.9968 88.5909 97.0074 88.5424 97.0196L89.9976 102.84C90.3707 102.747 90.8527 102.608 91.3016 102.383L88.6184 97.0167ZM88.3213 97.0839L85.5613 98.004L87.4587 103.696L90.2187 102.776L88.3213 97.0839ZM85.7649 97.944L81.2799 99.094L82.7701 104.906L87.2551 103.756L85.7649 97.944ZM79.025 102C79.025 104.344 79.302 109.59 79.8366 117.61L85.8233 117.21C85.2846 109.13 85.025 104.103 85.025 102H79.025ZM79.8483 117.741C80.0032 119.135 80.1423 120.252 80.2657 121.075C80.3269 121.483 80.3893 121.853 80.4537 122.162C80.4932 122.351 80.5992 122.877 80.8367 123.352L86.2033 120.668C86.2665 120.795 86.3029 120.893 86.3182 120.937C86.3356 120.986 86.3448 121.018 86.3469 121.025C86.3504 121.038 86.3434 121.014 86.3276 120.938C86.2961 120.787 86.253 120.543 86.1993 120.185C86.0927 119.475 85.9635 118.445 85.8116 117.079L79.8483 117.741ZM80.52 122.01C80.52 123.224 80.4828 124.18 80.4173 124.901C80.3847 125.26 80.3471 125.537 80.3096 125.743C80.2911 125.844 80.2742 125.92 80.2605 125.974C80.2466 126.029 80.2387 126.05 80.2406 126.045L85.8794 128.095C86.1675 127.303 86.3094 126.36 86.3927 125.444C86.4805 124.478 86.52 123.326 86.52 122.01H80.52ZM80.2139 126.121C80.1469 126.322 80.0878 126.407 80.0732 126.426C80.066 126.436 80.0666 126.433 80.0762 126.425C80.086 126.416 80.0976 126.408 80.1081 126.403L83.0219 131.647C84.5099 130.821 85.4189 129.48 85.906 128.019L80.2139 126.121ZM79.9009 126.529C79.9688 126.484 79.8843 126.557 79.4955 126.645C79.1253 126.729 78.5926 126.8 77.8638 126.833L78.1362 132.827C79.9096 132.746 81.814 132.465 83.2291 131.521L79.9009 126.529ZM77.0513 126.984C77.3192 126.895 77.5186 126.887 77.5903 126.887C77.6662 126.887 77.6799 126.896 77.6126 126.883C77.549 126.871 77.4407 126.845 77.2808 126.795C77.1226 126.745 76.9297 126.677 76.6992 126.585L74.4708 132.155C75.1438 132.425 75.8288 132.651 76.4899 132.777C77.0905 132.891 78.0041 132.991 78.9487 132.676L77.0513 126.984ZM76.5337 126.524C75.8592 126.299 75.4382 125.986 75.1469 125.63L70.5031 129.43C71.5918 130.76 73.0108 131.674 74.6363 132.216L76.5337 126.524ZM75.7736 126.977L75.0836 123.297L69.1864 124.403L69.8764 128.083L75.7736 126.977ZM74.2563 125.971C74.8358 125.392 75.0424 124.736 75.1199 124.336C75.1982 123.931 75.1857 123.584 75.1668 123.367C75.1294 122.937 75.0216 122.549 74.9382 122.285C74.7618 121.727 74.4826 121.074 74.1594 120.388L68.7305 122.942C69.0207 123.559 69.1631 123.922 69.2167 124.092C69.2484 124.192 69.2077 124.097 69.1894 123.887C69.1801 123.78 69.1652 123.526 69.2292 123.195C69.2923 122.869 69.4726 122.27 70.0137 121.729L74.2563 125.971ZM73.7027 119.689C73.7348 119.726 73.6512 119.641 73.5185 119.303C73.3906 118.977 73.2517 118.506 73.1217 117.857L67.2383 119.033C67.5691 120.688 68.113 122.413 69.1873 123.641L73.7027 119.689ZM73.1719 118.225L72.3669 107.3L66.3831 107.74L67.1881 118.665L73.1719 118.225ZM72.3735 107.426L72.2585 103.746L66.2615 103.934L66.3765 107.614L72.3735 107.426ZM69.0536 100.847C67.0952 100.982 65.8725 100.747 65.1598 100.422C64.5626 100.149 64.2488 99.7895 64.056 99.2113L58.3639 101.109C59.0912 103.291 60.579 104.925 62.6652 105.878C64.6359 106.779 66.9781 107.004 69.4664 106.833L69.0536 100.847ZM63.8647 98.7628C63.7148 98.4779 63.6158 98.2566 63.5535 98.0929C63.4892 97.9242 63.4795 97.8574 63.4823 97.8748C63.4841 97.8862 63.5143 98.0703 63.4522 98.3574C63.3833 98.6764 63.2099 99.0677 62.8713 99.4063L58.6287 95.1637C57.4314 96.361 57.4072 97.8821 57.5577 98.8227C57.7096 99.7721 58.1102 100.712 58.5552 101.557L63.8647 98.7628ZM63.55 98.3619L64.125 96.8669L58.525 94.7131L57.95 96.2081L63.55 98.3619ZM63.8615 97.392C63.9869 97.1934 64.4751 96.605 66.615 96.605V90.605C63.5416 90.605 60.5031 91.4732 58.7885 94.188L63.8615 97.392ZM66.615 96.605H69.03V90.605H66.615V96.605ZM71.1513 91.4837C71.3904 91.7228 71.5355 91.955 71.6175 92.1072C71.7016 92.2635 71.7498 92.3927 71.7754 92.4694C71.8239 92.6149 71.8321 92.6968 71.8273 92.6632C71.8182 92.5989 71.8 92.3962 71.8 91.995H65.8C65.8 92.5138 65.8202 93.0394 65.8876 93.5118C65.9212 93.7465 65.9773 94.0488 66.0833 94.3668C66.1721 94.6332 66.3897 95.2073 66.9087 95.7263L71.1513 91.4837ZM71.7865 91.7106L71.3265 86.8806L65.3535 87.4494L65.8135 92.2794L71.7865 91.7106ZM71.34 87.165V85.095H65.34V87.165H71.34ZM71.3312 84.8649L71.2162 83.3699L65.2338 83.8301L65.3488 85.3251L71.3312 84.8649ZM71.2066 83.9313C71.3219 82.8936 71.2553 81.8287 71.0616 80.7633L65.1584 81.8367C65.2713 82.458 65.2814 82.9264 65.2433 83.2687L71.2066 83.9313ZM71.11 81.3V80.61H65.11V81.3H71.11ZM71.1004 80.3708L70.8704 77.4958L64.8895 77.9742L65.1195 80.8492L71.1004 80.3708ZM70.88 77.735V75.55H64.88V77.735H70.88ZM70.8651 75.2515L70.7501 74.1015L64.7799 74.6985L64.8949 75.8485L70.8651 75.2515ZM70.765 74.4C70.765 71.6335 70.6875 69.3126 70.5232 67.4644C70.3671 65.7086 70.1114 64.077 69.6099 62.8858L64.0801 65.2142C64.1919 65.4797 64.3962 66.3014 64.5468 67.9956C64.6892 69.5973 64.765 71.7231 64.765 74.4H70.765ZM65.3481 61.4501C64.1174 62.1587 63.1368 62.6825 62.3903 63.0388C62.0177 63.2166 61.7284 63.3407 61.5129 63.4223C61.2816 63.5099 61.2079 63.5207 61.2483 63.5134L62.3217 69.4166C63.1649 69.2633 64.1051 68.8687 64.9747 68.4537C65.9148 68.005 67.0426 67.3979 68.3419 66.6499L65.3481 61.4501ZM61.5134 63.4773C61.812 63.4502 61.7854 63.5419 61.2159 63.311C60.7192 63.1097 60.023 62.7516 59.1023 62.185L55.9577 67.295C57.0303 67.955 58.0399 68.4978 58.9616 68.8715C59.8104 69.2155 60.9146 69.5565 62.0566 69.4527L61.5134 63.4773ZM59.4297 62.4181C59.2189 62.2456 59.1431 62.1343 59.125 62.104C59.1166 62.09 59.1197 62.0922 59.1254 62.1094C59.1313 62.1272 59.1358 62.1483 59.1377 62.1684L53.1623 62.7116C53.3312 64.5694 54.3513 66.0154 55.6303 67.0619L59.4297 62.4181ZM58.5846 60.6871C58.0132 59.8934 57.7515 59.3307 57.6492 58.9811C57.5553 58.6601 57.6286 58.6459 57.579 58.7784L51.961 56.6716C50.9418 59.3895 52.2081 62.0995 53.7154 64.1929L58.5846 60.6871ZM57.6804 58.4526C57.6389 58.6186 57.6238 58.5509 57.8718 58.1634C58.0912 57.8206 58.4326 57.356 58.9258 56.7571L54.2942 52.9429C53.7141 53.6473 53.2121 54.3136 52.8182 54.9291C52.4528 55.4999 52.0544 56.218 51.8596 56.9974L57.6804 58.4526ZM59.5204 55.5776C59.402 56.0513 59.1926 56.3584 59.1195 56.4607C59.0285 56.5881 58.9567 56.6596 58.9469 56.6694C58.9286 56.6878 58.9798 56.6358 59.1575 56.5025C59.5023 56.2439 60.077 55.8617 60.9298 55.3426L57.8102 50.2174C56.8996 50.7716 56.1327 51.2711 55.5575 51.7025C55.2752 51.9142 54.9718 52.1593 54.7043 52.4268C54.5614 52.5697 53.9361 53.1761 53.6996 54.1224L59.5204 55.5776ZM61.4913 54.9013C62.2102 54.1824 63.8745 53.3242 67.1401 52.7437L66.0899 46.8363C62.4554 47.4824 59.2898 48.6176 57.2487 50.6587L61.4913 54.9013ZM130.419 93.95L132.541 96.0713L132.541 96.0713L130.419 93.95ZM133.064 93.49L133.349 96.4765L133.409 96.4707L133.47 96.4625L133.064 93.49ZM138.929 91.42V88.42H138.199L137.551 88.7553L138.929 91.42ZM138.814 88.66L135.822 88.8737L135.823 88.8914L135.825 88.9091L138.814 88.66ZM138.239 81.76L135.25 82.0091L135.253 82.0503L135.258 82.0913L138.239 81.76ZM137.779 77.85H134.779V78.1471L134.838 78.4383L137.779 77.85ZM136.054 68.765L138.965 68.0374L136.295 57.3577L133.177 67.9154L136.054 68.765ZM130.994 85.9L128.117 85.0504L128.09 85.144L128.068 85.2392L130.994 85.9ZM129.729 94.64L126.796 95.2686L127.951 100.661L131.851 96.7613L129.729 94.64ZM114.894 97.285L111.922 96.8797L111.877 97.206L111.905 97.5341L114.894 97.285ZM115.584 92.225L118.557 92.6303L118.584 92.4286V92.225H115.584ZM116.044 89.235L118.912 90.1173L119.044 89.6861V89.235H116.044ZM117.999 83.37L120.683 84.7116L120.999 84.0782V83.37H117.999ZM119.034 80.38L121.843 81.4334L122.034 80.924V80.38H119.034ZM121.219 73.595L118.447 72.4479L118.407 72.5458L118.373 72.6463L121.219 73.595ZM122.599 70.26L125.371 71.4071L125.599 70.8562V70.26H122.599ZM123.174 68.535L125.905 69.7764L125.925 69.7329L125.944 69.6888L123.174 68.535ZM123.979 65.89L121.069 65.1624L121.045 65.2572L121.028 65.3533L123.979 65.89ZM124.784 63.245L122.121 61.864L122.031 62.0368L121.965 62.2198L124.784 63.245ZM127.659 57.955L130.256 59.4581L130.287 59.4044L130.316 59.3495L127.659 57.955ZM136.629 53.815L136.909 50.8281L136.874 50.8248L136.839 50.8224L136.629 53.815ZM140.309 54.16L141.082 51.2613L140.84 51.1965L140.589 51.1731L140.309 54.16ZM145.599 56.115L144.129 58.7297L144.311 58.8324L144.506 58.9087L145.599 56.115ZM149.164 58.415L146.738 60.1795L146.779 60.2353L146.822 60.2891L149.164 58.415ZM149.969 62.325L146.972 62.2001L146.964 62.3874L146.98 62.5741L149.969 62.325ZM150.659 74.285L147.664 74.4478L150.659 74.285ZM151.234 84.98H148.234V85.1538L148.254 85.3265L151.234 84.98ZM151.809 89.925H154.809V89.7512L154.789 89.5785L151.809 89.925ZM154.339 106.485L151.377 106.957L151.411 107.175L151.477 107.384L154.339 106.485ZM156.869 114.535L154.007 115.434L154.025 115.49L154.044 115.544L156.869 114.535ZM159.284 121.32L156.438 122.269L156.662 122.941L157.163 123.441L159.284 121.32ZM160.319 123.735L163.165 122.786L163.151 122.742L163.134 122.698L160.319 123.735ZM158.134 128.795L158.574 131.763L158.878 131.718L159.167 131.612L158.134 128.795ZM153.534 128.22L155.242 125.753L154.471 125.22H153.534V128.22ZM150.889 127.185L148.104 128.299L148.528 129.358L149.548 129.868L150.889 127.185ZM149.509 126.035L150.851 123.352L150.79 123.321L150.728 123.294L149.509 126.035ZM148.129 125.23L150.251 123.109L149.687 122.545L148.919 122.336L148.129 125.23ZM145.829 121.665L148.685 120.747L148.365 119.75L147.493 119.169L145.829 121.665ZM144.564 119.825L141.881 121.167L141.918 121.241L141.96 121.313L144.564 119.825ZM144.104 117.18L146.95 118.129L147.458 116.606L146.472 115.338L144.104 117.18ZM143.299 112.925H146.299V112.094L145.872 111.382L143.299 112.925ZM141.114 101.77L143.737 100.313L142.397 97.9007L139.881 99.0352L141.114 101.77ZM128.579 104.645V107.645H128.631L128.683 107.643L128.579 104.645ZM126.624 108.785L123.721 108.028L123.683 108.176L123.66 108.327L126.624 108.785ZM124.669 121.435L121.705 120.977L121.638 121.406L121.696 121.837L124.669 121.435ZM122.599 130.405V133.405H122.813L123.024 133.375L122.599 130.405ZM119.494 130.865L118.876 127.929L118.86 127.933L118.844 127.936L119.494 130.865ZM116.044 130.06L118.072 127.849L117.819 127.617L117.521 127.448L116.044 130.06ZM112.249 126.955L109.783 128.663L109.795 128.681L109.808 128.699L112.249 126.955ZM111.329 123.505L108.337 123.291L108.336 123.31L108.335 123.329L111.329 123.505ZM111.904 116.605L109.783 114.484L109.01 115.256L108.916 116.345L111.904 116.605ZM112.019 114.075H109.019V114.15L109.023 114.225L112.019 114.075ZM112.364 110.395L115.259 111.184L115.264 111.165L115.269 111.145L112.364 110.395ZM114.204 103.265L112.54 100.769L111.586 101.405L111.299 102.515L114.204 103.265ZM115.124 99.815L118.078 100.342L118.252 99.3631L117.808 98.4734L115.124 99.815ZM115.009 98.665H118.009V98.5402L117.999 98.4159L115.009 98.665ZM132.541 96.0713C132.349 96.2634 132.168 96.389 132.051 96.4624C131.929 96.5389 131.826 96.59 131.758 96.6209C131.628 96.6803 131.538 96.7071 131.523 96.7114C131.493 96.7203 131.54 96.7052 131.71 96.6756C132.037 96.6187 132.57 96.5507 133.349 96.4765L132.78 90.5035C131.949 90.5827 131.236 90.6679 130.682 90.7644C130.411 90.8115 130.107 90.873 129.819 90.9586C129.675 91.0012 129.477 91.0664 129.264 91.1641C129.092 91.2427 128.687 91.4398 128.298 91.8287L132.541 96.0713ZM133.47 96.4625C135.615 96.1699 137.91 95.325 140.308 94.0846L137.551 88.7553C135.502 89.815 133.887 90.3501 132.659 90.5175L133.47 96.4625ZM138.929 94.42C140.657 94.42 141.437 93.1033 141.58 92.8381C141.792 92.4474 141.866 92.1 141.89 91.9887C141.947 91.712 141.959 91.4697 141.963 91.3724C141.973 91.1279 141.966 90.8535 141.955 90.6051C141.934 90.0805 141.881 89.3399 141.804 88.4109L135.825 88.9091C135.901 89.8201 135.944 90.4595 135.961 90.8549C135.969 91.0665 135.967 91.1371 135.968 91.1226C135.968 91.1128 135.97 91.0805 135.974 91.0327C135.978 90.9918 135.989 90.8938 136.016 90.765C136.033 90.6825 136.101 90.3566 136.304 89.9803C136.41 89.7854 136.628 89.4333 137.023 89.1061C137.46 88.745 138.114 88.42 138.929 88.42V94.42ZM141.807 88.4463C141.577 85.2245 141.381 82.8728 141.221 81.4287L135.258 82.0913C135.404 83.4072 135.592 85.6555 135.822 88.8737L141.807 88.4463ZM141.229 81.5109C141.075 79.6682 140.911 78.2129 140.721 77.2617L134.838 78.4383C134.954 79.0204 135.097 80.1718 135.25 82.0091L141.229 81.5109ZM140.779 77.85C140.779 75.9551 140.094 72.5534 138.965 68.0374L133.144 69.4926C134.315 74.1766 134.779 76.8315 134.779 77.85H140.779ZM133.177 67.9154L128.117 85.0504L133.871 86.7496L138.932 69.6146L133.177 67.9154ZM128.068 85.2392C127.524 87.6499 127.131 89.6525 126.904 91.2203C126.701 92.6259 126.553 94.1337 126.796 95.2686L132.663 94.0114C132.676 94.073 132.624 93.5874 132.842 92.0797C133.037 90.7342 133.392 88.9035 133.921 86.5608L128.068 85.2392ZM131.851 96.7613L132.541 96.0713L128.298 91.8287L127.608 92.5187L131.851 96.7613ZM117.867 97.6903L118.557 92.6303L112.612 91.8197L111.922 96.8797L117.867 97.6903ZM118.584 92.225C118.584 91.541 118.689 90.8414 118.912 90.1173L113.177 88.3527C112.786 89.6219 112.584 90.9157 112.584 92.225H118.584ZM119.044 89.235C119.044 88.6962 119.391 87.2948 120.683 84.7116L115.316 82.0284C114.001 84.6585 113.044 87.1672 113.044 89.235H119.044ZM120.999 83.37C120.999 83.6013 120.971 83.7749 120.963 83.8246C120.951 83.8962 120.939 83.9466 120.935 83.9644C120.926 83.9997 120.924 84.0036 120.937 83.9589C120.963 83.8742 121.012 83.7232 121.093 83.4888C121.253 83.027 121.501 82.3461 121.843 81.4334L116.225 79.3266C115.878 80.2539 115.608 80.9914 115.423 81.5262C115.332 81.7902 115.251 82.0321 115.191 82.2348C115.161 82.3339 115.126 82.4552 115.096 82.5816C115.087 82.6221 114.999 82.9624 114.999 83.37H120.999ZM122.034 80.38C122.034 80.6162 122.005 80.7959 121.999 80.8324C121.988 80.899 121.978 80.9477 121.974 80.9666C121.965 81.0055 121.961 81.0216 121.966 80.9992C121.977 80.9593 122.001 80.8762 122.043 80.7359C122.126 80.4611 122.256 80.0486 122.436 79.4883C122.796 78.3724 123.338 76.7262 124.065 74.5437L118.373 72.6463C117.644 74.8338 117.094 76.5034 116.725 77.6492C116.541 78.2198 116.398 78.6745 116.299 79.0035C116.25 79.165 116.205 79.318 116.17 79.4481C116.154 79.5108 116.132 79.5954 116.112 79.6865C116.102 79.7314 116.087 79.802 116.074 79.8864C116.065 79.9408 116.034 80.1343 116.034 80.38H122.034ZM123.991 74.7421L125.371 71.4071L119.827 69.1129L118.447 72.4479L123.991 74.7421ZM125.599 70.26C125.599 70.4721 125.569 70.606 125.567 70.617C125.562 70.6407 125.565 70.6212 125.589 70.5474C125.639 70.3968 125.737 70.1467 125.905 69.7764L120.443 67.2936C120.228 67.7666 120.038 68.2257 119.897 68.6501C119.779 69.0056 119.599 69.6041 119.599 70.26H125.599ZM125.944 69.6888C126.397 68.6015 126.733 67.5126 126.931 66.4267L121.028 65.3533C120.918 65.9541 120.719 66.6285 120.405 67.3812L125.944 69.6888ZM126.89 66.6176C127.096 65.7927 127.334 65.0107 127.604 64.2702L121.965 62.2198C121.621 63.166 121.323 64.1473 121.069 65.1624L126.89 66.6176ZM127.448 64.6259C128.507 62.5828 129.442 60.8626 130.256 59.4581L125.063 56.4519C124.19 57.9607 123.208 59.7672 122.121 61.864L127.448 64.6259ZM130.316 59.3495C130.83 58.3688 131.504 57.742 132.367 57.3439C133.276 56.924 134.578 56.6784 136.419 56.8076L136.839 50.8224C134.311 50.6449 131.932 50.936 129.852 51.8961C127.725 52.878 126.098 54.4745 125.003 56.5605L130.316 59.3495ZM136.349 56.8019L140.029 57.1469L140.589 51.1731L136.909 50.8281L136.349 56.8019ZM139.536 57.0587C141.736 57.6452 143.221 58.2193 144.129 58.7297L147.07 53.5003C145.524 52.6307 143.483 51.9015 141.082 51.2613L139.536 57.0587ZM144.506 58.9087C146.111 59.5367 146.639 60.0429 146.738 60.1795L151.591 56.6505C150.463 55.1004 148.614 54.0733 146.693 53.3213L144.506 58.9087ZM146.822 60.2891C146.746 60.1948 146.816 60.228 146.887 60.5725C146.957 60.9123 147.004 61.4387 146.972 62.2001L152.967 62.4499C153.05 60.4431 152.829 58.1935 151.507 56.5409L146.822 60.2891ZM146.98 62.5741C147.052 63.4382 147.279 67.3619 147.664 74.4478L153.655 74.1222C153.273 67.1014 153.04 63.0518 152.959 62.0759L146.98 62.5741ZM147.664 74.4478C148.053 81.605 148.234 85.0119 148.234 84.98H154.234C154.234 84.7947 154.033 81.0717 153.655 74.1222L147.664 74.4478ZM148.254 85.3265L148.829 90.2715L154.789 89.5785L154.214 84.6335L148.254 85.3265ZM148.809 89.925C148.809 90.2047 148.852 90.5439 148.871 90.6986C148.901 90.9412 148.943 91.2568 148.997 91.6377C149.105 92.4024 149.265 93.4795 149.476 94.8631C149.899 97.6329 150.533 101.666 151.377 106.957L157.302 106.013C156.459 100.724 155.828 96.7071 155.407 93.9569C155.197 92.5805 155.041 91.5301 154.938 90.7998C154.886 90.4332 154.85 90.1595 154.827 89.9707C154.793 89.6942 154.809 89.7603 154.809 89.925H148.809ZM151.477 107.384L154.007 115.434L159.731 113.636L157.201 105.586L151.477 107.384ZM154.044 115.544C154.811 117.69 155.395 119.328 155.797 120.457C155.998 121.022 156.153 121.458 156.262 121.767C156.317 121.922 156.359 122.043 156.39 122.131C156.406 122.175 156.418 122.21 156.427 122.235C156.437 122.264 156.439 122.272 156.438 122.269L162.13 120.371C162.04 120.101 161.216 117.787 159.695 113.526L154.044 115.544ZM157.163 123.441C156.955 123.233 156.84 123.051 156.82 123.019C156.783 122.96 156.767 122.928 156.774 122.941C156.787 122.967 156.828 123.051 156.901 123.221C157.043 123.552 157.243 124.062 157.504 124.772L163.134 122.698C162.859 121.952 162.618 121.33 162.416 120.857C162.315 120.624 162.208 120.387 162.097 120.173C162.042 120.068 161.809 119.602 161.406 119.199L157.163 123.441ZM157.473 124.684C157.765 125.56 157.615 125.792 157.651 125.708C157.669 125.668 157.687 125.664 157.641 125.702C157.583 125.751 157.428 125.859 157.102 125.978L159.167 131.612C160.821 131.005 162.371 129.913 163.16 128.087C163.924 126.316 163.717 124.44 163.165 122.786L157.473 124.684ZM157.695 125.827C155.874 126.097 155.291 125.788 155.242 125.753L151.827 130.687C153.771 132.032 156.255 132.106 158.574 131.763L157.695 125.827ZM153.534 125.22C153.828 125.22 153.998 125.276 153.943 125.261C153.922 125.255 153.839 125.23 153.679 125.168C153.358 125.042 152.883 124.828 152.231 124.502L149.548 129.868C150.275 130.232 150.931 130.535 151.492 130.755C151.916 130.921 152.713 131.22 153.534 131.22V125.22ZM153.675 126.071C153.076 124.573 151.682 123.767 150.851 123.352L148.168 128.718C148.289 128.779 148.377 128.829 148.437 128.866C148.498 128.904 148.517 128.922 148.509 128.915C148.501 128.909 148.447 128.863 148.374 128.772C148.3 128.679 148.193 128.523 148.104 128.299L153.675 126.071ZM150.728 123.294C150.445 123.168 150.263 123.074 150.158 123.012C150.108 122.983 150.092 122.971 150.101 122.978C150.108 122.982 150.167 123.025 150.251 123.109L146.008 127.351C146.668 128.012 147.593 128.466 148.291 128.776L150.728 123.294ZM148.919 122.336C149.239 122.423 149.429 122.569 149.494 122.627C149.554 122.679 149.529 122.674 149.443 122.54C149.26 122.257 148.992 121.7 148.685 120.747L142.973 122.583C143.357 123.777 143.817 124.887 144.401 125.793C144.952 126.646 145.876 127.725 147.34 128.124L148.919 122.336ZM147.493 119.169C147.66 119.28 147.77 119.381 147.818 119.428C147.871 119.479 147.902 119.515 147.907 119.521C147.915 119.53 147.885 119.495 147.813 119.39C147.67 119.182 147.458 118.841 147.169 118.337L141.96 121.313C142.284 121.882 142.59 122.385 142.868 122.79C143.007 122.991 143.164 123.206 143.335 123.407C143.475 123.571 143.759 123.89 144.165 124.161L147.493 119.169ZM147.248 118.483C147.068 118.125 147.015 117.919 147.002 117.845C146.992 117.782 147.025 117.906 146.95 118.129L141.258 116.231C140.655 118.04 141.208 119.821 141.881 121.167L147.248 118.483ZM146.472 115.338C146.628 115.538 146.545 115.551 146.448 115.041C146.361 114.581 146.299 113.892 146.299 112.925H140.299C140.299 114.104 140.372 115.198 140.553 116.156C140.725 117.065 141.044 118.132 141.736 119.022L146.472 115.338ZM145.872 111.382C145.609 110.944 145.264 109.815 145.264 107.52H139.264C139.264 110.132 139.61 112.606 140.727 114.468L145.872 111.382ZM145.264 107.52C145.264 104.814 144.851 102.319 143.737 100.313L138.492 103.227C138.911 103.98 139.264 105.319 139.264 107.52H145.264ZM139.881 99.0352C136.34 100.632 132.547 101.506 128.476 101.647L128.683 107.643C133.505 107.477 138.068 106.435 142.348 104.505L139.881 99.0352ZM128.579 101.645C128.06 101.645 127.319 101.681 126.605 101.941C126.232 102.076 125.672 102.342 125.182 102.877C124.632 103.477 124.314 104.263 124.314 105.105H130.314C130.314 105.793 130.05 106.446 129.605 106.931C129.22 107.35 128.818 107.52 128.656 107.579C128.364 107.685 128.256 107.645 128.579 107.645V101.645ZM124.314 105.105C124.314 105.359 124.189 106.236 123.721 108.028L129.527 109.542C129.98 107.808 130.314 106.231 130.314 105.105H124.314ZM123.66 108.327L121.705 120.977L127.634 121.893L129.589 109.243L123.66 108.327ZM121.696 121.837C122.066 124.57 122.024 126.301 121.804 127.258C121.698 127.715 121.596 127.792 121.662 127.715C121.78 127.578 121.991 127.462 122.175 127.435L123.024 133.375C124.281 133.195 125.383 132.589 126.21 131.629C126.985 130.728 127.41 129.645 127.65 128.607C128.119 126.574 128.04 123.973 127.642 121.033L121.696 121.837ZM122.599 127.405C121.64 127.405 120.33 127.623 118.876 127.929L120.112 133.801C121.572 133.493 122.332 133.405 122.599 133.405V127.405ZM118.844 127.936C118.507 128.011 118.338 127.986 118.279 127.972C118.234 127.962 118.174 127.942 118.072 127.849L114.017 132.271C115.764 133.872 117.956 134.28 120.145 133.794L118.844 127.936ZM117.521 127.448C115.954 126.563 115.103 125.789 114.691 125.211L109.808 128.699C110.929 130.268 112.608 131.564 114.568 132.672L117.521 127.448ZM114.716 125.247C114.438 124.846 114.284 124.37 114.324 123.681L108.335 123.329C108.222 125.246 108.681 127.071 109.783 128.663L114.716 125.247ZM114.322 123.719C114.396 122.673 114.586 120.397 114.893 116.865L108.916 116.345C108.609 119.866 108.416 122.19 108.337 123.291L114.322 123.719ZM114.026 118.726C114.47 118.282 114.673 117.809 114.759 117.587C114.858 117.327 114.912 117.092 114.944 116.927C115.007 116.598 115.033 116.268 115.045 115.994C115.071 115.429 115.056 114.724 115.016 113.925L109.023 114.225C109.06 114.96 109.064 115.442 109.051 115.721C109.044 115.869 109.036 115.874 109.052 115.794C109.059 115.754 109.086 115.622 109.154 115.444C109.19 115.351 109.247 115.217 109.337 115.063C109.424 114.912 109.566 114.701 109.783 114.484L114.026 118.726ZM115.019 114.075C115.019 112.548 115.135 111.639 115.259 111.184L109.47 109.606C109.134 110.838 109.019 112.382 109.019 114.075H115.019ZM115.269 111.145L117.109 104.015L111.299 102.515L109.459 109.645L115.269 111.145ZM115.868 105.761C116.424 105.391 116.727 104.931 116.845 104.74C116.993 104.501 117.096 104.273 117.165 104.105C117.304 103.768 117.415 103.401 117.506 103.06C117.691 102.364 117.881 101.443 118.078 100.342L112.171 99.2876C111.984 100.334 111.829 101.061 111.708 101.515C111.646 101.749 111.613 101.832 111.617 101.821C111.619 101.817 111.658 101.72 111.743 101.582C111.788 101.509 111.864 101.396 111.976 101.266C112.084 101.14 112.269 100.95 112.54 100.769L115.868 105.761ZM117.808 98.4734C117.884 98.6267 117.93 98.7553 117.956 98.8371C117.983 98.922 117.999 98.9885 118.007 99.0283C118.024 99.1038 118.026 99.1394 118.023 99.114C118.021 99.0937 118.017 99.0467 118.014 98.9666C118.011 98.8879 118.009 98.7882 118.009 98.665H112.009C112.009 99.0205 112.02 99.3799 112.053 99.711C112.074 99.9258 112.136 100.546 112.441 101.157L117.808 98.4734ZM117.999 98.4159L117.884 97.0359L111.905 97.5341L112.02 98.9141L117.999 98.4159ZM203.881 65.89L205.223 63.2067L204.23 62.7104L203.153 62.9796L203.881 65.89ZM200.201 66.58L199.952 63.5904L199.941 63.5913L199.929 63.5923L200.201 66.58ZM194.106 67.04L193.817 64.0539L193.479 64.0866L193.157 64.1939L194.106 67.04ZM191.346 67.845V70.845H191.594L191.839 70.8042L191.346 67.845ZM188.931 68.19L188.378 65.2414L188.325 65.2513L188.272 65.2632L188.931 68.19ZM184.216 69.34L182.552 71.8361L184.598 73.2004L186.337 71.4613L184.216 69.34ZM176.396 70.49L175.851 67.5398L175.475 67.6094L175.127 67.7715L176.396 70.49ZM174.096 71.065L172.754 73.7483L172.866 73.8041L172.982 73.8504L174.096 71.065ZM173.291 69.57L176.185 68.7806L176.085 68.4127L175.896 68.0816L173.291 69.57ZM171.796 68.075L169.675 70.1963L169.885 70.4064L170.132 70.5711L171.796 68.075ZM170.416 65.89L173.289 65.028L173.168 64.6232L172.94 64.2677L170.416 65.89ZM170.071 62.44L167.279 61.343L167.27 61.3648L167.262 61.3866L170.071 62.44ZM173.866 57.38V60.38H174.353L174.815 60.226L173.866 57.38ZM181.801 55.195V52.195H181.093L180.459 52.5117L181.801 55.195ZM184.561 54.735L185.443 57.6023L185.443 57.6023L184.561 54.735ZM188.241 54.045L187.778 51.081L187.763 51.0833L187.748 51.0858L188.241 54.045ZM205.491 51.745L207.365 49.4024L205.949 48.2699L204.289 48.9965L205.491 51.745ZM207.561 52.09L207.478 49.0912L207.404 49.0932L207.331 49.0988L207.561 52.09ZM213.426 57.38L210.464 57.854L210.475 57.9232L210.489 57.9919L213.426 57.38ZM214.346 64.28L211.472 65.142L211.486 65.1856L211.5 65.2287L214.346 64.28ZM215.036 65.43L214.087 68.276L214.549 68.43H215.036V65.43ZM216.761 67.73L214.132 69.1758L214.176 69.2553L214.225 69.332L216.761 67.73ZM218.026 70.95L215.044 70.6187L214.972 71.2736L215.18 71.8987L218.026 70.95ZM218.601 73.365L215.672 74.0158L215.738 74.309L215.86 74.5834L218.601 73.365ZM219.061 74.4L216.32 75.6184L216.41 75.8223L216.53 76.0106L219.061 74.4ZM218.601 75.895L218.064 72.9434L217.731 73.004L217.419 73.1376L218.601 75.895ZM217.336 77.045V80.045H219.077L219.941 78.5334L217.336 77.045ZM216.761 77.275L215.419 74.5917L215.316 74.6432L215.217 74.7025L216.761 77.275ZM214.921 78.31L213.579 75.6267L213.17 75.8312L212.841 76.1483L214.921 78.31ZM207.561 84.75L206.32 82.0189L205.657 82.32L205.206 82.8911L207.561 84.75ZM201.811 90.845L203.531 93.3027L203.572 93.2745L203.611 93.245L201.811 90.845ZM199.396 92.455V89.455H196.396V92.455H199.396ZM195.141 97.285L197.171 99.4935L197.187 99.4791L197.203 99.4644L195.141 97.285ZM186.056 106.255L183.724 104.367L183.719 104.374L183.713 104.381L186.056 106.255ZM182.721 109.59L184.385 112.086L184.407 112.072L184.429 112.057L182.721 109.59ZM179.846 113.155L181.554 115.622L182.119 115.23L182.458 114.631L179.846 113.155ZM178.236 114.535L181.082 115.484L181.082 115.484L178.236 114.535ZM179.041 115.685L177.065 117.943L177.707 118.504L178.548 118.644L179.041 115.685ZM188.356 112.925L189.238 110.058L188.319 109.775L187.407 110.079L188.356 112.925ZM192.726 111.89V108.89H191.993L191.342 109.228L192.726 111.89ZM193.876 111.545L194.825 114.391L194.962 114.345L195.094 114.286L193.876 111.545ZM209.516 109.475L210.053 106.523L209.622 106.445L209.187 106.493L209.516 109.475ZM211.356 110.51L208.915 112.254L208.992 112.362L209.078 112.462L211.356 110.51ZM212.736 114.42L209.807 115.071L209.943 115.68L210.31 116.185L212.736 114.42ZM213.426 117.87L216.311 118.694L216.382 118.443L216.409 118.184L213.426 117.87ZM212.161 120.4L209.588 118.857L209.55 118.921L209.514 118.988L212.161 120.4ZM210.896 122.24L209.947 119.394L207.896 120.078V122.24H210.896ZM209.976 123.045L208.923 120.236L207.583 120.739L207.13 122.096L209.976 123.045ZM209.286 123.85L208.558 120.94L209.286 123.85ZM206.756 123.735L206.235 126.689L206.329 126.706L206.425 126.717L206.756 123.735ZM197.096 124.425V127.425H197.297L197.495 127.398L197.096 124.425ZM192.151 125.23L191.202 122.384L191.181 122.391L191.16 122.398L192.151 125.23ZM189.161 126.15L188.668 123.191L188.636 123.196L188.605 123.202L189.161 126.15ZM181.456 128.335V131.335H182.337L183.078 130.859L181.456 128.335ZM175.821 128.795L174.479 131.478L176.413 132.445L177.942 130.916L175.821 128.795ZM172.831 128.91L171.489 126.227L170.856 126.543L170.431 127.11L172.831 128.91ZM170.416 126.15L173.132 124.877L173.037 124.673L172.912 124.486L170.416 126.15ZM168.691 124.425L166.57 126.546L166.612 126.589L166.656 126.629L168.691 124.425ZM166.621 122.24L168.926 120.319L168.797 120.165L168.648 120.029L166.621 122.24ZM163.401 119.25L161.001 121.05L161.129 121.221L161.28 121.371L163.401 119.25ZM163.401 117.87L160.592 116.817L163.401 117.87ZM162.826 116.49L160.253 118.033L160.703 118.783L161.484 119.173L162.826 116.49ZM162.711 115.225L159.954 114.043L159.904 114.158L159.865 114.276L162.711 115.225ZM162.826 112.81L159.834 113.024L159.841 113.129L159.856 113.234L162.826 112.81ZM163.401 110.05L165.973 111.593L166.267 111.105L166.36 110.543L163.401 110.05ZM166.851 105.45L168.746 107.776L168.864 107.679L168.972 107.571L166.851 105.45ZM168.001 104.3L170.122 106.421L170.273 106.271L170.401 106.1L168.001 104.3ZM169.956 102.23L172.077 104.351L172.486 103.943L172.713 103.412L169.956 102.23ZM171.221 99.815L169.347 97.4724L168.9 97.8298L168.616 98.3266L171.221 99.815ZM172.371 98.665L170.859 96.0737L170.404 96.3394L170.066 96.7444L172.371 98.665ZM175.706 96.02L173.425 94.071L173.23 94.2999L173.083 94.5631L175.706 96.02ZM181.456 89.235L179.792 86.7388L179.364 87.0239L179.056 87.435L181.456 89.235ZM182.606 88.545L183.948 91.2283L183.948 91.2283L182.606 88.545ZM183.296 87.855L185.979 89.1966L186.075 89.0059L186.142 88.8037L183.296 87.855ZM183.871 86.82V89.82H184.579L185.213 89.5033L183.871 86.82ZM186.861 84.75L188.982 86.8713L189.327 86.5271L189.544 86.0916L186.861 84.75ZM188.011 82.91V85.91H189.011L189.811 85.31L188.011 82.91ZM188.816 82.335L187.474 79.6517L187.307 79.7352L187.152 79.8389L188.816 82.335ZM189.621 81.875L191.285 84.3711L191.629 84.1416L191.899 83.8274L189.621 81.875ZM193.876 78.195L195.629 80.6296L196.07 80.3117L196.372 79.8591L193.876 78.195ZM195.371 76.355L193.093 74.4026L193.087 74.4099L193.081 74.4172L195.371 76.355ZM196.981 74.4L195.867 71.6146L195.002 71.9606L194.485 72.7359L196.981 74.4ZM198.246 73.595L200.167 75.8997L200.183 75.8863L200.198 75.8728L198.246 73.595ZM199.166 72.905V75.905H201.02L201.849 74.2467L199.166 72.905ZM200.201 72.1L201.791 74.644L201.869 74.595L201.945 74.5412L200.201 72.1ZM201.811 70.375L199.396 68.5954L199.374 68.6247L199.353 68.6546L201.811 70.375ZM204.686 67.615L205.927 70.3461L205.978 70.3231L206.028 70.2983L204.686 67.615ZM205.951 66.695H202.951V67.4032L203.268 68.0366L205.951 66.695ZM205.031 66.465L203.689 69.1483L204.502 69.5545L205.403 69.4418L205.031 66.465ZM203.153 62.9796C201.683 63.3471 200.637 63.5333 199.952 63.5904L200.45 69.5696C201.605 69.4734 203.012 69.1996 204.609 68.8004L203.153 62.9796ZM199.929 63.5923C199.115 63.6664 198.569 63.695 198.246 63.695V69.695C198.842 69.695 199.6 69.647 200.473 69.5677L199.929 63.5923ZM198.246 63.695C197.677 63.695 196.1 63.833 193.817 64.0539L194.395 70.0261C195.578 69.9116 196.502 69.8268 197.173 69.7709C197.508 69.7429 197.771 69.7229 197.967 69.7102C198.184 69.6961 198.257 69.695 198.246 69.695V63.695ZM193.157 64.1939C192.487 64.4174 191.951 64.5866 191.541 64.7062C191.336 64.7659 191.174 64.81 191.05 64.8411C190.988 64.8565 190.94 64.8676 190.905 64.8753C190.868 64.8832 190.852 64.8859 190.853 64.8858L191.839 70.8042C192.572 70.682 193.719 70.3313 195.055 69.8861L193.157 64.1939ZM191.346 64.845C190.632 64.845 189.541 65.0233 188.378 65.2414L189.484 71.1386C190.074 71.0279 190.536 70.9501 190.879 70.9011C191.26 70.8466 191.38 70.845 191.346 70.845V64.845ZM188.272 65.2632C186.735 65.6092 185.554 65.8822 184.741 66.0804C184.339 66.1785 184.002 66.2644 183.747 66.3354C183.626 66.3694 183.483 66.4109 183.348 66.4569C183.285 66.4785 183.174 66.5175 183.048 66.5724C182.986 66.5996 182.88 66.648 182.755 66.7182C182.669 66.7664 182.386 66.9276 182.095 67.2187L186.337 71.4613C186.051 71.7476 185.775 71.9034 185.7 71.9457C185.586 72.0098 185.494 72.0517 185.448 72.0716C185.355 72.1122 185.289 72.1344 185.282 72.1368C185.259 72.1445 185.276 72.1381 185.36 72.1146C185.518 72.0705 185.779 72.0031 186.163 71.9096C186.922 71.7244 188.061 71.4608 189.59 71.1168L188.272 65.2632ZM185.88 66.8438C185.314 66.4662 184.763 66.3788 184.629 66.3569C184.407 66.3205 184.213 66.3114 184.088 66.3085C183.833 66.3025 183.574 66.3177 183.355 66.3354C182.903 66.3721 182.324 66.4456 181.652 66.5444C180.293 66.7442 178.353 67.0781 175.851 67.5398L176.941 73.4401C179.423 72.9819 181.277 72.6641 182.525 72.4806C183.156 72.3877 183.584 72.3366 183.84 72.3158C183.977 72.3048 183.998 72.308 183.949 72.3068C183.927 72.3063 183.817 72.3038 183.661 72.2782C183.593 72.267 183.09 72.1946 182.552 71.8361L185.88 66.8438ZM175.127 67.7715C174.891 67.8815 174.697 67.9638 174.54 68.0235C174.38 68.0841 174.28 68.1135 174.231 68.1258C174.174 68.1399 174.225 68.1213 174.355 68.117C174.425 68.1147 174.534 68.1158 174.674 68.1353C174.813 68.1549 174.999 68.1952 175.21 68.2796L172.982 73.8504C174.091 74.2942 175.167 74.0765 175.686 73.9467C176.332 73.7851 177.007 73.5156 177.665 73.2085L175.127 67.7715ZM175.438 68.3817C175.784 68.555 176.005 68.7671 176.123 68.9004C176.24 69.0335 176.295 69.1337 176.306 69.1539C176.322 69.1829 176.269 69.0876 176.185 68.7806L170.397 70.3594C170.543 70.8958 170.739 71.4713 171.023 71.9985C171.277 72.4706 171.793 73.2676 172.754 73.7483L175.438 68.3817ZM175.896 68.0816C175.293 67.0267 174.411 66.213 173.46 65.5788L170.132 70.5711C170.561 70.857 170.676 71.04 170.686 71.0584L175.896 68.0816ZM173.917 65.9537C173.502 65.5386 173.349 65.2256 173.289 65.028L167.542 66.752C167.943 68.0877 168.71 69.2314 169.675 70.1963L173.917 65.9537ZM172.94 64.2677C172.778 64.0159 172.742 63.861 172.88 63.4934L167.262 61.3866C166.48 63.4723 166.674 65.6174 167.892 67.5123L172.94 64.2677ZM172.863 63.537C173.287 62.4574 173.614 61.6079 173.836 61.0003C173.946 60.6999 174.041 60.4327 174.111 60.2153C174.145 60.1095 174.185 59.9831 174.218 59.8543C174.222 59.8406 174.336 59.4498 174.336 58.99H168.336C168.336 58.7166 168.376 58.5119 168.384 58.4714C168.397 58.398 168.411 58.3477 168.414 58.3341C168.421 58.306 168.421 58.3113 168.403 58.3684C168.367 58.4768 168.304 58.6601 168.203 58.9347C168.004 59.4771 167.698 60.276 167.279 61.343L172.863 63.537ZM174.336 58.99C174.336 59.1189 174.309 59.3779 174.152 59.6776C173.99 59.9865 173.765 60.195 173.579 60.3135C173.413 60.4191 173.318 60.4288 173.382 60.4153C173.442 60.4025 173.594 60.38 173.866 60.38V54.38C172.801 54.38 171.489 54.532 170.358 55.2515C168.997 56.1175 168.336 57.5183 168.336 58.99H174.336ZM174.815 60.226C176.406 59.6957 177.637 59.3106 178.527 59.0614C178.974 58.9364 179.304 58.8541 179.534 58.8053C179.819 58.7449 179.795 58.77 179.616 58.77V52.77C179.13 52.77 178.637 52.8622 178.289 52.9359C177.886 53.0213 177.421 53.1403 176.91 53.2836C175.883 53.571 174.546 53.991 172.917 54.534L174.815 60.226ZM179.616 58.77C180.871 58.77 182.058 58.4205 183.143 57.8783L180.459 52.5117C180.01 52.7362 179.741 52.77 179.616 52.77V58.77ZM181.801 58.195C183.004 58.195 184.225 57.977 185.443 57.6023L183.679 51.8677C182.903 52.1063 182.284 52.195 181.801 52.195V58.195ZM185.443 57.6023C185.919 57.4561 186.264 57.3585 186.496 57.3004C186.613 57.2712 186.674 57.2588 186.693 57.2554C186.702 57.2538 186.684 57.2573 186.647 57.2616C186.616 57.2653 186.527 57.275 186.401 57.275V51.275C185.863 51.275 185.309 51.4125 185.041 51.4796C184.66 51.5748 184.2 51.7073 183.679 51.8677L185.443 57.6023ZM186.401 57.275C186.998 57.275 187.858 57.1502 188.734 57.0042L187.748 51.0858C187.31 51.1588 186.97 51.2092 186.719 51.2407C186.438 51.2757 186.36 51.275 186.401 51.275V57.275ZM188.704 57.009C192.37 56.4363 195.274 56.0204 197.43 55.758C199.681 55.484 200.885 55.4086 201.308 55.4308L201.624 49.4391C200.59 49.3847 198.862 49.5394 196.705 49.802C194.452 50.0762 191.472 50.5037 187.778 51.081L188.704 57.009ZM201.308 55.4308C203.189 55.5298 205.001 55.2337 206.693 54.4935L204.289 48.9965C203.527 49.3296 202.656 49.4935 201.624 49.4391L201.308 55.4308ZM203.617 54.0876C204.966 55.1669 206.705 55.1647 207.791 55.0812L207.331 49.0988C207.163 49.1117 207.034 49.1145 206.939 49.1123C206.843 49.1101 206.796 49.1032 206.789 49.1021C206.781 49.1007 206.836 49.1088 206.933 49.1468C207.031 49.1855 207.189 49.2616 207.365 49.4024L203.617 54.0876ZM207.644 55.0888C208.842 55.0556 209.556 55.1764 209.928 55.3033C210.257 55.4156 210.08 55.4414 209.938 55.1566L215.304 52.4734C214.549 50.9619 213.221 50.0869 211.864 49.6242C210.549 49.1761 209.04 49.0477 207.478 49.0912L207.644 55.0888ZM209.938 55.1566C209.885 55.052 209.888 55.0286 209.929 55.1647C209.964 55.2808 210.011 55.4586 210.068 55.712C210.183 56.2192 210.315 56.9263 210.464 57.854L216.388 56.906C216.23 55.917 216.075 55.0716 215.921 54.3905C215.786 53.7933 215.598 53.0612 215.304 52.4734L209.938 55.1566ZM210.489 57.9919C210.86 59.7742 211.001 60.9515 211.001 61.635H217.001C217.001 60.3251 216.758 58.6658 216.363 56.7681L210.489 57.9919ZM211.001 61.635C211.001 62.8553 211.141 64.037 211.472 65.142L217.219 63.418C217.091 62.9896 217.001 62.408 217.001 61.635H211.001ZM211.5 65.2287C211.647 65.6694 211.843 66.1695 212.118 66.6285C212.327 66.9761 212.917 67.8858 214.087 68.276L215.985 62.584C216.493 62.7536 216.82 63.0292 216.985 63.1937C217.152 63.3606 217.238 63.4994 217.263 63.5415C217.309 63.6171 217.275 63.5806 217.192 63.3313L211.5 65.2287ZM215.036 68.43C214.455 68.43 214.023 68.2525 213.795 68.1354C213.56 68.0153 213.41 67.8918 213.348 67.8376C213.229 67.7347 213.211 67.6898 213.297 67.805C213.458 68.0194 213.733 68.4495 214.132 69.1758L219.39 66.2842C218.946 65.4772 218.511 64.7573 218.097 64.205C217.896 63.9368 217.623 63.6044 217.285 63.3099C217.059 63.114 216.254 62.43 215.036 62.43V68.43ZM214.225 69.332C214.628 69.9705 214.858 70.4271 214.975 70.7245C215.002 70.794 215.02 70.847 215.032 70.8844C215.043 70.9221 215.046 70.9389 215.046 70.9367C215.045 70.9347 215.04 70.9066 215.037 70.8559C215.034 70.8051 215.033 70.7239 215.044 70.6187L221.008 71.2813C221.124 70.2319 220.845 69.2564 220.559 68.5305C220.255 67.7546 219.814 66.9462 219.297 66.128L214.225 69.332ZM215.18 71.8987C215.168 71.8637 215.205 71.9849 215.309 72.4211C215.4 72.8023 215.52 73.3318 215.672 74.0158L221.53 72.7142C221.243 71.4265 221.011 70.4187 220.872 70.0013L215.18 71.8987ZM215.86 74.5834L216.32 75.6184L221.802 73.1816L221.342 72.1466L215.86 74.5834ZM216.53 76.0106C216.57 76.0736 216.507 75.9935 216.45 75.792C216.391 75.5856 216.3 75.1131 216.481 74.524C216.678 73.8852 217.089 73.4486 217.462 73.2044C217.786 72.9926 218.041 72.9477 218.064 72.9434L219.138 78.8466C219.905 78.707 221.632 78.1845 222.216 76.2885C222.708 74.6888 221.939 73.335 221.592 72.7894L216.53 76.0106ZM217.419 73.1376C216.246 73.6402 215.341 74.4889 214.731 75.5566L219.941 78.5334C219.951 78.5151 219.941 78.5378 219.9 78.5748C219.858 78.6132 219.813 78.6393 219.783 78.6524L217.419 73.1376ZM217.336 74.045C216.898 74.045 216.553 74.1404 216.433 74.1748C216.267 74.2223 216.123 74.2761 216.021 74.3171C215.814 74.3997 215.605 74.4987 215.419 74.5917L218.103 79.9583C218.223 79.898 218.264 79.8819 218.249 79.8879C218.242 79.8906 218.18 79.9156 218.081 79.9439C218.03 79.9586 217.946 79.9807 217.838 80.0002C217.739 80.0184 217.561 80.045 217.336 80.045V74.045ZM215.217 74.7025C214.476 75.1472 213.939 75.4471 213.579 75.6267L216.263 80.9933C216.823 80.7129 217.512 80.3228 218.304 79.8475L215.217 74.7025ZM212.841 76.1483C210.823 78.0904 209.232 79.5671 208.058 80.5948C207.469 81.1099 207.01 81.4902 206.669 81.7519C206.271 82.0573 206.193 82.0765 206.32 82.0189L208.802 87.4811C209.351 87.2318 209.896 86.839 210.322 86.5118C210.805 86.141 211.371 85.6684 212.009 85.1102C213.288 83.9913 214.956 82.4396 217.001 80.4717L212.841 76.1483ZM205.206 82.8911C202.947 85.7532 201.224 87.535 200.011 88.445L203.611 93.245C205.464 91.8549 207.575 89.5735 209.916 86.6089L205.206 82.8911ZM200.091 88.3873C199.329 88.9206 198.767 89.3074 198.393 89.5563C198.202 89.6837 198.087 89.7572 198.03 89.7918C197.996 89.8123 198.02 89.7964 198.078 89.7666C198.103 89.7536 198.187 89.7105 198.305 89.6633C198.364 89.6395 198.472 89.5988 198.611 89.5604C198.721 89.5302 199.013 89.455 199.396 89.455V95.455C200.035 95.455 200.521 95.239 200.533 95.2341C200.672 95.1785 200.782 95.1229 200.84 95.0931C200.962 95.0297 201.073 94.9635 201.15 94.917C201.313 94.8174 201.51 94.6896 201.721 94.5486C202.153 94.261 202.76 93.8428 203.531 93.3027L200.091 88.3873ZM196.396 92.455C196.396 91.9228 196.555 91.5642 196.584 91.4972C196.631 91.3902 196.661 91.3536 196.627 91.405C196.56 91.5071 196.396 91.7245 196.081 92.0819C195.462 92.7846 194.476 93.7848 193.079 95.1056L197.203 99.4644C198.643 98.1019 199.784 96.9553 200.583 96.0481C200.978 95.6004 201.346 95.147 201.633 94.7125C201.776 94.4956 201.939 94.2242 202.075 93.9159C202.193 93.6476 202.396 93.1214 202.396 92.455H196.396ZM193.111 95.0765C188.389 99.417 185.191 102.556 183.724 104.367L188.388 108.143C189.528 106.734 192.386 103.893 197.171 99.4935L193.111 95.0765ZM183.713 104.381C182.571 105.809 181.669 106.669 181.013 107.123L184.429 112.057C185.766 111.131 187.088 109.768 188.399 108.129L183.713 104.381ZM181.057 107.094C179.541 108.104 178.3 109.793 177.234 111.679L182.458 114.631C183.385 112.99 184.061 112.302 184.385 112.086L181.057 107.094ZM178.138 110.688C177.606 111.057 177.126 111.412 176.744 111.74C176.554 111.902 176.338 112.101 176.137 112.326C175.991 112.491 175.607 112.935 175.39 113.586L181.082 115.484C181.029 115.644 180.969 115.774 180.919 115.87C180.869 115.967 180.821 116.045 180.782 116.102C180.709 116.212 180.647 116.284 180.622 116.312C180.575 116.366 180.569 116.363 180.648 116.295C180.719 116.235 180.828 116.147 180.985 116.029C181.139 115.913 181.328 115.778 181.554 115.622L178.138 110.688ZM175.39 113.586C174.863 115.167 175.712 116.416 175.922 116.715C176.26 117.198 176.69 117.614 177.065 117.943L181.016 113.427C180.779 113.219 180.768 113.175 180.837 113.275C180.874 113.327 181.007 113.523 181.107 113.841C181.21 114.172 181.318 114.776 181.082 115.484L175.39 113.586ZM178.548 118.644C179.13 118.741 179.662 118.652 179.794 118.632C180.045 118.593 180.313 118.536 180.573 118.475C181.098 118.351 181.771 118.165 182.567 117.929C184.168 117.454 186.42 116.733 189.305 115.771L187.407 110.079C184.542 111.034 182.366 111.731 180.862 112.176C180.106 112.4 179.557 112.55 179.191 112.636C179.005 112.68 178.91 112.697 178.881 112.702C178.733 112.725 179.066 112.648 179.534 112.726L178.548 118.644ZM187.474 115.792C188.658 116.157 189.853 116.061 190.887 115.815C191.937 115.567 193.02 115.118 194.11 114.552L191.342 109.228C190.515 109.658 189.912 109.881 189.505 109.977C189.083 110.077 189.051 110 189.238 110.058L187.474 115.792ZM192.726 114.89C193.027 114.89 193.267 114.844 193.322 114.833C193.421 114.815 193.508 114.794 193.569 114.779C193.691 114.748 193.818 114.712 193.933 114.677C194.168 114.607 194.47 114.509 194.825 114.391L192.927 108.699C192.592 108.811 192.357 108.886 192.209 108.93C192.132 108.953 192.106 108.96 192.113 108.958C192.116 108.957 192.155 108.947 192.216 108.936C192.248 108.93 192.302 108.921 192.372 108.912C192.408 108.907 192.455 108.902 192.51 108.898C192.564 108.894 192.638 108.89 192.726 108.89V114.89ZM195.094 114.286C194.874 114.385 194.76 114.393 194.994 114.341C195.153 114.306 195.396 114.26 195.741 114.201C196.427 114.085 197.407 113.942 198.697 113.772C201.271 113.431 204.983 112.993 209.845 112.457L209.187 106.493C204.312 107.03 200.549 107.474 197.91 107.823C196.593 107.998 195.532 108.152 194.742 108.285C194.349 108.351 193.996 108.417 193.699 108.483C193.478 108.532 193.051 108.629 192.658 108.804L195.094 114.286ZM208.979 112.427C209.142 112.456 209.177 112.486 209.138 112.463C209.117 112.452 209.081 112.429 209.038 112.39C208.994 112.352 208.952 112.306 208.915 112.254L213.797 108.766C212.836 107.421 211.425 106.773 210.053 106.523L208.979 112.427ZM209.078 112.462C208.979 112.347 208.967 112.297 209.018 112.398C209.062 112.486 209.13 112.643 209.217 112.888C209.392 113.383 209.591 114.099 209.807 115.071L215.665 113.769C215.421 112.671 215.16 111.7 214.875 110.892C214.616 110.159 214.239 109.263 213.634 108.558L209.078 112.462ZM210.31 116.185C210.338 116.223 210.549 116.539 210.442 117.556L216.409 118.184C216.609 116.288 216.361 114.304 215.162 112.655L210.31 116.185ZM210.541 117.046C210.544 117.038 210.532 117.078 210.491 117.176C210.452 117.271 210.394 117.399 210.311 117.563C210.146 117.894 209.909 118.322 209.588 118.857L214.733 121.943C215.423 120.795 216.037 119.65 216.311 118.694L210.541 117.046ZM209.514 118.988C209.375 119.249 209.254 119.466 209.15 119.643C209.044 119.823 208.966 119.946 208.913 120.023C208.852 120.112 208.857 120.093 208.923 120.022C208.959 119.985 209.044 119.898 209.178 119.796C209.248 119.743 209.343 119.677 209.464 119.609C209.583 119.541 209.746 119.461 209.947 119.394L211.845 125.086C212.637 124.822 213.131 124.305 213.285 124.142C213.515 123.899 213.707 123.64 213.857 123.422C214.161 122.979 214.481 122.424 214.808 121.812L209.514 118.988ZM207.896 122.24C207.896 121.267 208.419 120.651 208.69 120.414C208.923 120.21 209.071 120.18 208.923 120.236L211.029 125.854C211.494 125.68 212.102 125.401 212.641 124.929C213.22 124.423 213.896 123.519 213.896 122.24H207.896ZM207.13 122.096C207.133 122.086 207.198 121.887 207.411 121.639C207.651 121.359 208.038 121.07 208.558 120.94L210.014 126.76C211.771 126.321 212.528 124.877 212.822 123.994L207.13 122.096ZM208.558 120.94C208.79 120.882 208.93 120.885 208.855 120.888C208.817 120.889 208.725 120.889 208.56 120.882C208.231 120.867 207.748 120.827 207.087 120.753L206.425 126.717C207.144 126.797 207.772 126.852 208.287 126.876C208.67 126.893 209.377 126.92 210.014 126.76L208.558 120.94ZM207.277 120.781C206.221 120.594 204.754 120.628 203.15 120.743C201.452 120.864 199.295 121.103 196.697 121.452L197.495 127.398C200.034 127.057 202.055 126.836 203.577 126.727C205.193 126.612 205.988 126.646 206.235 126.689L207.277 120.781ZM197.096 121.425C195.085 121.425 193.116 121.746 191.202 122.384L193.1 128.076C194.406 127.641 195.734 127.425 197.096 127.425V121.425ZM191.16 122.398C190.412 122.66 189.819 122.857 189.371 122.995C189.148 123.064 188.974 123.114 188.843 123.148C188.703 123.185 188.654 123.193 188.668 123.191L189.654 129.109C190.42 128.982 191.677 128.574 193.142 128.062L191.16 122.398ZM188.605 123.202C186.527 123.594 184.773 123.987 183.369 124.385C182.04 124.762 180.766 125.212 179.834 125.811L183.078 130.859C183.219 130.768 183.766 130.509 185.006 130.157C186.17 129.827 187.732 129.473 189.717 129.098L188.605 123.202ZM181.456 125.335C179.704 125.335 178.277 125.373 177.216 125.46C176.693 125.503 176.179 125.563 175.728 125.658C175.503 125.705 175.224 125.775 174.935 125.886C174.7 125.976 174.177 126.196 173.7 126.674L177.942 130.916C177.541 131.317 177.144 131.465 177.084 131.488C176.97 131.532 176.915 131.54 176.964 131.529C177.058 131.51 177.287 131.474 177.704 131.44C178.521 131.373 179.758 131.335 181.456 131.335V125.335ZM177.163 126.112C176.229 125.645 175.208 125.565 174.441 125.565V131.565C174.533 131.565 174.604 131.568 174.658 131.572C174.713 131.576 174.743 131.58 174.753 131.582C174.763 131.583 174.743 131.581 174.7 131.568C174.658 131.555 174.58 131.529 174.479 131.478L177.163 126.112ZM174.441 125.565C173.451 125.565 172.439 125.752 171.489 126.227L174.173 131.593C174.143 131.608 174.204 131.565 174.441 131.565V125.565ZM170.431 127.11C170.601 126.883 170.932 126.533 171.478 126.303C172.06 126.058 172.648 126.051 173.128 126.167C173.561 126.272 173.843 126.46 173.963 126.549C174.03 126.6 174.077 126.642 174.102 126.666C174.116 126.679 174.125 126.689 174.131 126.695C174.134 126.698 174.136 126.7 174.138 126.702C174.139 126.704 174.14 126.704 174.14 126.704C174.14 126.705 174.138 126.702 174.133 126.696C174.128 126.69 174.121 126.681 174.112 126.67C174.095 126.647 174.071 126.614 174.041 126.57C173.98 126.481 173.902 126.359 173.809 126.198C173.622 125.874 173.396 125.439 173.132 124.877L167.7 127.423C168.285 128.673 168.922 129.853 169.624 130.656C169.927 131.001 170.622 131.733 171.714 131.998C172.353 132.153 173.088 132.135 173.806 131.833C174.489 131.546 174.946 131.09 175.231 130.71L170.431 127.11ZM172.912 124.486C172.644 124.084 172.246 123.68 171.991 123.425C171.663 123.097 171.237 122.692 170.726 122.221L166.656 126.629C167.142 127.078 167.502 127.421 167.748 127.668C167.872 127.791 167.952 127.875 167.997 127.926C168.064 128 168.008 127.946 167.92 127.814L172.912 124.486ZM170.812 122.304C169.817 121.309 169.213 120.665 168.926 120.319L164.316 124.161C164.795 124.735 165.571 125.548 166.57 126.546L170.812 122.304ZM168.648 120.029C166.779 118.315 165.77 117.377 165.522 117.129L161.28 121.371C161.645 121.737 162.783 122.791 164.594 124.451L168.648 120.029ZM165.801 117.45C166.149 117.913 166.228 118.389 166.228 118.675C166.228 118.922 166.172 119.024 166.21 118.923L160.592 116.817C160.259 117.704 159.819 119.474 161.001 121.05L165.801 117.45ZM166.21 118.923C166.506 118.134 166.671 117.044 166.199 115.911C165.737 114.803 164.876 114.161 164.168 113.807L161.484 119.173C161.389 119.126 160.93 118.867 160.66 118.219C160.38 117.546 160.526 116.993 160.592 116.817L166.21 118.923ZM165.398 114.947C165.503 115.12 165.588 115.351 165.612 115.615C165.636 115.872 165.592 116.068 165.557 116.174L159.865 114.276C159.461 115.488 159.531 116.83 160.253 118.033L165.398 114.947ZM165.468 116.407C166.032 115.092 165.97 113.607 165.796 112.386L159.856 113.234C159.915 113.643 159.923 113.915 159.916 114.076C159.907 114.247 159.885 114.203 159.954 114.043L165.468 116.407ZM165.818 112.596C165.776 112.01 165.891 111.731 165.973 111.593L160.828 108.507C159.991 109.902 159.722 111.463 159.834 113.024L165.818 112.596ZM166.36 110.543C166.401 110.3 166.793 109.367 168.746 107.776L164.956 103.124C162.769 104.906 160.861 107.04 160.442 109.557L166.36 110.543ZM168.972 107.571C169.509 107.035 169.892 106.651 170.122 106.421L165.88 102.179C165.65 102.409 165.266 102.792 164.73 103.329L168.972 107.571ZM170.401 106.1C170.387 106.118 170.41 106.087 170.5 105.986C170.581 105.893 170.694 105.77 170.843 105.612C171.141 105.297 171.55 104.878 172.077 104.351L167.835 100.109C166.817 101.126 165.988 101.984 165.601 102.5L170.401 106.1ZM172.713 103.412C172.872 103.042 173.221 102.362 173.826 101.303L168.616 98.3266C167.994 99.4151 167.5 100.345 167.199 101.048L172.713 103.412ZM173.095 102.158C173.666 101.701 174.19 101.168 174.676 100.586L170.066 96.7444C169.785 97.0821 169.543 97.3155 169.347 97.4724L173.095 102.158ZM173.883 101.256C174.871 100.68 175.741 100.111 176.449 99.5492C177.107 99.0274 177.849 98.3401 178.328 97.4769L173.083 94.5631C173.18 94.3899 173.174 94.4884 172.721 94.8483C172.317 95.1685 171.711 95.577 170.859 96.0737L173.883 101.256ZM177.987 97.969C181.528 93.8249 183.55 91.4426 183.856 91.035L179.056 87.435C179.057 87.4332 178.956 87.5604 178.665 87.9076C178.404 88.2209 178.035 88.6582 177.557 89.2217C176.603 90.3478 175.226 91.9637 173.425 94.071L177.987 97.969ZM183.12 91.7311C183.531 91.4572 183.798 91.3029 183.948 91.2283L181.264 85.8617C180.8 86.0938 180.301 86.3994 179.792 86.7388L183.12 91.7311ZM183.948 91.2283C184.835 90.7847 185.536 90.0839 185.979 89.1966L180.613 86.5134C180.672 86.394 180.762 86.2613 180.887 86.1362C181.012 86.0111 181.145 85.9214 181.264 85.8617L183.948 91.2283ZM186.142 88.8037C186.239 88.5141 186.275 88.4636 186.235 88.5357C186.22 88.5627 186.107 88.7688 185.87 89.006C185.671 89.2048 184.989 89.82 183.871 89.82V83.82C182.676 83.82 181.912 84.4784 181.627 84.7634C181.304 85.0868 181.101 85.4223 180.99 85.6218C180.758 86.0389 180.583 86.5059 180.45 86.9063L186.142 88.8037ZM185.213 89.5033C186.655 88.7822 187.936 87.9172 188.982 86.8713L184.74 82.6287C184.252 83.1161 183.54 83.6312 182.529 84.1367L185.213 89.5033ZM189.544 86.0916C189.839 85.5024 190.037 85.1439 190.152 84.96C190.218 84.8557 190.2 84.8983 190.111 85.0005C190.069 85.0476 189.933 85.2009 189.707 85.365C189.589 85.4506 189.4 85.5742 189.144 85.6821C188.888 85.7896 188.499 85.91 188.011 85.91V79.91C187.05 79.91 186.394 80.3552 186.178 80.5125C185.9 80.715 185.703 80.9258 185.595 81.0495C185.371 81.305 185.191 81.5777 185.064 81.78C184.796 82.2094 184.496 82.7709 184.178 83.4084L189.544 86.0916ZM189.811 85.31C190.089 85.1016 190.31 84.9445 190.48 84.8311L187.152 79.8389C186.862 80.0321 186.546 80.2584 186.211 80.51L189.811 85.31ZM190.158 85.0183C190.55 84.8219 190.93 84.6075 191.285 84.3711L187.957 79.3789C187.851 79.4491 187.695 79.5414 187.474 79.6517L190.158 85.0183ZM191.899 83.8274C192.595 83.0154 193.795 81.9499 195.629 80.6296L192.123 75.7604C190.123 77.2001 188.487 78.5879 187.343 79.9226L191.899 83.8274ZM196.372 79.8591C196.358 79.8801 196.432 79.7754 196.693 79.4543C196.924 79.1698 197.245 78.7843 197.661 78.2928L193.081 74.4172C192.291 75.3504 191.652 76.1222 191.38 76.5309L196.372 79.8591ZM197.649 78.3074C198.506 77.3075 199.197 76.4843 199.477 76.0641L194.485 72.7359C194.507 72.7033 194.433 72.8071 194.148 73.1541C193.897 73.458 193.548 73.8724 193.093 74.4026L197.649 78.3074ZM198.095 77.1854C198.87 76.8754 199.563 76.4022 200.167 75.8997L196.325 71.2903C196.175 71.4155 196.058 71.4992 195.974 71.5528C195.889 71.607 195.854 71.6198 195.867 71.6146L198.095 77.1854ZM200.198 75.8728C200.451 75.6562 200.604 75.5337 200.678 75.4775C200.722 75.4449 200.69 75.472 200.609 75.5206C200.571 75.5435 200.463 75.6069 200.308 75.6732C200.229 75.7074 200.101 75.7575 199.938 75.802C199.787 75.8432 199.514 75.905 199.166 75.905V69.905C198.53 69.905 198.058 70.1096 197.945 70.1583C197.756 70.2391 197.608 70.324 197.522 70.3756C197.345 70.4818 197.188 70.5951 197.078 70.6775C196.847 70.8513 196.578 71.0737 196.294 71.3172L200.198 75.8728ZM201.849 74.2467C201.742 74.4619 201.63 74.6153 201.562 74.701C201.49 74.7918 201.43 74.8553 201.395 74.8898C201.33 74.9552 201.295 74.9792 201.324 74.9568C201.347 74.9392 201.395 74.903 201.478 74.8467C201.559 74.7915 201.663 74.7241 201.791 74.644L198.611 69.556C198.266 69.7718 197.929 69.9964 197.64 70.2207C197.497 70.3325 197.323 70.4763 197.152 70.6471C197.014 70.7855 196.715 71.0994 196.483 71.5633L201.849 74.2467ZM201.945 74.5412C202.848 73.8959 203.612 73.0338 204.269 72.0954L199.353 68.6546C198.937 69.2495 198.627 69.5375 198.457 69.6588L201.945 74.5412ZM204.226 72.1546C204.695 71.5182 205.091 71.0646 205.412 70.7567C205.57 70.6049 205.697 70.5015 205.79 70.4338C205.885 70.3655 205.93 70.3448 205.927 70.3461L203.445 64.8839C201.871 65.5991 200.535 67.05 199.396 68.5954L204.226 72.1546ZM206.028 70.2983C206.522 70.0509 207.039 69.7702 207.457 69.4662C207.641 69.3319 208.002 69.0557 208.315 68.6387C208.549 68.3261 209.446 66.9759 208.634 65.3534L203.268 68.0366C202.909 67.3189 202.906 66.5907 203.046 66.0321C203.171 65.5337 203.397 65.1964 203.515 65.0388C203.644 64.8664 203.761 64.7554 203.816 64.7059C203.877 64.651 203.919 64.6202 203.928 64.6138C203.942 64.6033 203.907 64.6294 203.794 64.694C203.687 64.755 203.54 64.834 203.344 64.9317L206.028 70.2983ZM208.951 66.695C208.951 65.8954 208.653 65.0676 208.015 64.4299C207.455 63.87 206.826 63.6489 206.449 63.5546C205.736 63.3765 205.05 63.4392 204.659 63.4882L205.403 69.4418C205.625 69.4141 205.399 69.4768 204.993 69.3754C204.769 69.3194 204.255 69.1558 203.772 68.6726C203.211 68.1115 202.951 67.3796 202.951 66.695H208.951ZM206.373 63.7817L205.223 63.2067L202.539 68.5733L203.689 69.1483L206.373 63.7817Z" fill="#274C77"/>
</g>
<defs>
<filter id="filter0_d_82_6" x="50.08" y="48.295" width="173.786" height="91.03" filterUnits="userSpaceOnUse" color-interpolation-filters="sRGB">
<feFlood flood-opacity="0" result="BackgroundImageFix"/>
<feColorMatrix in="SourceAlpha" type="matrix" values="0 0 0 0 0 0 0 0 0 0 0 0 0 0 0 0 0 0 127 0" result="hardAlpha"/>
<feOffset dy="4"/>
<feGaussianBlur stdDeviation="2"/>
<feComposite in2="hardAlpha" operator="out"/>
<feColorMatrix type="matrix" values="0 0 0 0 0 0 0 0 0 0 0 0 0 0 0 0 0 0 0.25 0"/>
<feBlend mode="normal" in2="BackgroundImageFix" result="effect1_dropShadow_82_6"/>
<feBlend mode="normal" in="SourceGraphic" in2="effect1_dropShadow_82_6" result="shape"/>
</filter>
</defs>
</svg>
