<?xml version="1.0" encoding="utf-8"?>
<!-- Generator: Adobe Illustrator 26.0.2, SVG Export Plug-In . SVG Version: 6.00 Build 0)  -->
<svg version="1.1" id="master-artboard" xmlns="http://www.w3.org/2000/svg" xmlns:xlink="http://www.w3.org/1999/xlink" x="0px"
	 y="0px" viewBox="0 0 2000 2000" style="enable-background:new 0 0 2000 2000;" xml:space="preserve">
<style type="text/css">
	.st0{fill:#C7D9FA;}
	.st1{fill:#9EBDF7;}
	.st2{fill:#FFFFFF;}
	.st3{fill:#CFF0EF;}
	.st4{fill:#AFE6E4;}
	.st5{fill:url(#SVGID_1_);}
	.st6{fill:url(#SVGID_00000132808287301847008690000014170352125987403409_);}
	.st7{fill:#A0BDE5;}
	.st8{fill:#94B2D6;}
	.st9{fill:url(#SVGID_00000011026926226524875650000014198209104973143444_);}
	.st10{fill:#F8F9FB;}
	.st11{fill:url(#SVGID_00000018927859828572939420000004366868279341909428_);}
	.st12{fill:url(#SVGID_00000019653324886428590760000016099450197464423587_);}
	.st13{fill:url(#SVGID_00000057852098482802198660000011387948775227676056_);}
	.st14{fill:none;}
	.st15{font-family:'MonofurboldForPowerline';}
	.st16{font-size:200px;}
</style>
<g transform="matrix(1, 0, 0, 1, 5.684341886080802e-14, -176.9385986328125)">
	<path class="st0" d="M365.4,990c-4.5,20.8-6.4,42.4-5.7,63.9c15.1-31.6,38.4-59.2,62.1-84.9c22.1-24.1,45.8-46.9,66.5-72.2
		c19.9-26.8,34.5-56.8,49.7-86.3c-21.2,4.5-41.8,11.9-61.5,23.3C422.4,865,379.7,924.2,365.4,990z"/>
	<path class="st0" d="M1117.1,702.5c14.6,5.7,29.5,10.2,45,13c5,0.5,9.9,0.6,14.9,0.6c5.1,0,10.2-0.2,15.3-0.7
		c0.4-0.1,0.8-0.2,1.2-0.2c-23.2-22.1-46.9-43.9-74-59.4c-24-13.8-48.9-21.9-75.9-24.5c-4.8-0.5-9.5-0.7-14.4-0.7
		c-15.4,0-30.8,2.2-45.9,5.9c25.1,10.3,49.3,22.4,73.2,35.3C1076.3,682.6,1096.3,693.3,1117.1,702.5z"/>
	<path class="st0" d="M1223.6,1464.2c-48.4-12.7-97.3-24.4-146.9-31.5c-23.9-2.9-47.9-4.5-72-4.5c-17.9,0-35.8,0.9-53.6,2.9
		c-26.8,4.1-53.1,10.8-79.2,18.2c-51,14.3-102.7,29.4-156.2,29.7c-0.5,0-1,0-1.5,0c-20.1,0-40.8-1.9-60.5-6.4
		c0.8,8.9,1.4,17.7,1.4,26.7c0.2,19.7,15.2,38.6,33.5,38.6c0.5,0,0.8,0,1.3,0c10.3-0.5,19.8-5.5,26.3-13.6
		c100.7,23.2,203.8,35.2,306.7,35.2c13.8,0,27.7-0.2,41.5-0.7c64.1-2,128-8.9,191.4-19.8c43.5-7.5,86.3-18.1,127.5-34.6
		c-3.5-0.6-7-1.3-10.5-2C1322.7,1492.2,1273.3,1477.2,1223.6,1464.2z"/>
	<path class="st0" d="M1574.7,824.8c2.9,7.7,5.5,15.5,7.8,23.2c14.1,47.1,18.1,97.5,17.3,146.5c-0.8,47.5-6,94.7-10.6,141.9
		c-5.3,54.1-10.5,108.1-15.8,162.1c-1.5,15.3-2.8,30.6-4.3,45.9c21.6-36.5,38.5-76,51.3-117.7c16.6-54.4,25.5-111.7,28.5-168.9
		c2.9-55.9-2.4-112.8-23.5-164.1C1614,865.9,1596.3,842.4,1574.7,824.8z"/>
	<path class="st0" d="M914.8,617.1c-21.5-3.4-43.2-5.8-65-5.8c-4.1,0-8.2,0.1-12.4,0.2c-51.8,2.2-101.7,14.6-148.2,37.4
		c-46.3,22.7-85,57.2-114.5,98.9c-14.1,19.8-25.5,41.2-36.6,62.7c14.2-3,28.8-4.9,43.5-5.8c33.8-2.1,67.7-0.1,101.4-4.3
		c12.8-2.3,25.5-5.6,37.8-10.2c3.5-1.3,7-2.7,10.5-4.2c1.1-0.5,2.2-1,3.3-1.4c6.1-3,12.1-6.1,18-9.6c24.5-13.9,47.4-30.9,70-48
		c44.1-33.2,88.2-66.2,139.6-84.1c6.8-2.4,13.8-4.5,20.8-6.2c-1.8-0.8-3.7-1.5-5.5-2.3C957.4,626.3,936.2,620.6,914.8,617.1z"/>
	<path class="st0" d="M1420.5,1487.6c-12.2,6.2-24.5,11.8-37.1,16.8c11.1,1.9,22.2,3.3,33.3,4.2c3.5,0.3,7.1,0.4,10.5,0.4
		c11,0,21.8-1.2,32.8-2.9c13.8-2,27-7,39.3-13.3c12.1-6.2,23.4-15.2,31.8-25.8c12.1-14.9,20.4-29.6,26.3-48
		c4.5-14.1,6.2-29,8.1-43.5c1.3-10.4,2.5-20.8,3.5-31.2c-7.3,12.3-15.1,24.3-23.5,35.8C1512.4,1426.2,1468.9,1463.1,1420.5,1487.6z"
		/>
	<path class="st0" d="M642.4,1422.8c-1.3-3.9-2.8-7.7-4.1-11.5c0.5,1.7,1,3,1.3,3.9c0.4,1.1,0.6,2,0.6,2s-0.2-0.5-0.6-2
		c-0.5-1.4-1.1-3.2-1.5-4.2c-0.8-1.9-1.6-3.7-2.4-5.6c-3.5-8-7.5-15.8-11.7-23.5s-9.2-14.7-13.7-22.1c2,3.3,2.8,4.5,2.7,4.5
		s-4-6-5.5-7.9c-2.8-3.6-5.7-7.2-8.7-10.7c-5.5-6.4-11.4-12.6-17.5-18.4c-1.7-1.6-3.4-3.1-5.1-4.6c-2.8-2.3-5.7-4.5-8.6-6.7
		c-26.9-19.9-57.1-33.5-85.4-50.7c-15.9-9.6-30.8-20.7-44.8-33.3c-12.8-11.4-23.5-24.9-33.4-39.3c-27.4-39.5-42.8-88.9-44.4-138.7
		c-1,2-1.9,4-2.8,6.1c-7.8,17.9-15,35.8-18.3,55c-3.7,21.5-5.1,41.5-2.2,63.1c2.8,20.7,8.7,40.1,19.3,58.4
		c9.2,15.7,21.6,30.1,36.1,41.3c16.1,12.6,32.8,23,50.8,32.8c12.4,6.7,24.8,13.4,36.4,21.4c3.7,3.1,7.2,6.4,10.4,9.9
		c3.5,5.3,6.5,10.8,9.1,16.6c4.2,10.4,8.4,20.8,13.1,30.9c5.8,12.5,14.1,24,23.6,34c18.7,19.6,44.4,31.5,71,32.1
		c10.5,5.2,21.4,9.6,33,13c4.8,1.4,9.7,2.7,14.6,3.9c0-0.2,0-0.3-0.1-0.4C651.5,1455.3,647.6,1438.8,642.4,1422.8z"/>
	<path class="st0" d="M1447.9,1379.9c-0.4,0.4-0.8,0.7-1.2,1.1C1447.3,1380.5,1447.8,1380,1447.9,1379.9z"/>
	<path class="st0" d="M1504.1,717.1c-21.8-19.3-46.6-34.4-74.8-42.7c-15.6-4.5-31.2-6.4-46.9-6.4c-13.7,0-27.5,1.4-41.3,3.6
		c-43.6,6.7-83.4,27.3-125.7,38.7c-7.3,2-14.6,3.6-22.1,5c9.5,9.1,19,18.2,28.5,27.1c3.2,3,6.5,5.9,9.8,8.9
		c-0.2-0.2-0.2-0.2-0.2-0.2s0.9,0.8,3.4,3c1.8,1.4,3.5,3,5.4,4.4c8.2,6.5,16.6,12.7,25.4,18c3.5,2.2,7.1,4.2,10.7,6.1
		c-0.2-0.1-0.2-0.2-0.2-0.2c0.2,0,1.4,0.6,4.6,2.4c1.8,0.8,3.6,1.5,5.4,2.2c9,3.4,18.3,5.8,27.7,7.5c9.6,1.1,19.2,1.7,28.8,1.7
		c1,0,2.1,0,3.1,0c25.4-0.3,50.7-3.5,76-5.7c12.1-1.1,24.1-1.7,36.1-1.7c15.2,0,30.4,1.1,45.6,3.6c26.1,4.3,50.5,15.8,71.3,32.6
		c-6.4-17-14.2-33.5-23.4-49C1538.7,754.3,1522.9,733.6,1504.1,717.1z"/>
	<path class="st0" d="M1282,785.4c-0.5-0.2-0.8-0.5-1.3-0.7c-0.3-0.2-0.5-0.2-0.8-0.4C1280.6,784.7,1281.3,785,1282,785.4z"/>
	<path class="st0" d="M1276.3,782.5c0.5,0.3,1.7,1,2.8,1.4c0.2,0.2,0.5,0.2,0.8,0.4c-0.3-0.2-0.6-0.3-0.9-0.5
		C1278.1,783.4,1277.2,782.9,1276.3,782.5z"/>
	<path class="st0" d="M1234,753.2c0.8,0.7,1.6,1.4,2.5,2.1c-0.6-0.5-1.1-1-1.6-1.4C1234.6,753.7,1234.3,753.5,1234,753.2L1234,753.2
		z"/>
	<path class="st0" d="M1231.6,751.1c0.5,0.4,1.5,1.4,2.4,2.1c-0.1-0.1-0.2-0.2-0.2-0.2C1233.1,752.4,1232.4,751.8,1231.6,751.1z"/>
	<path class="st1" d="M1231.6,751.1c0.7,0.6,1.4,1.3,2.2,1.9c0.1,0.1,0.2,0.2,0.2,0.2l0.1,0.1c0.2,0.2,0.5,0.4,0.8,0.6
		c-2.5-2.2-3.4-3-3.4-3C1231.5,750.9,1231.5,751,1231.6,751.1z"/>
	<path class="st1" d="M1276.3,782.5c0.8,0.5,1.8,0.9,2.6,1.4c0.3,0.2,0.6,0.3,0.9,0.5c0.3,0.2,0.5,0.2,0.8,0.4
		c-3.2-1.7-4.5-2.4-4.6-2.4C1276.1,782.3,1276.1,782.4,1276.3,782.5z"/>
	<path class="st1" d="M640.3,1417.1c0,0-0.3-0.8-0.6-2C640.1,1416.5,640.3,1417.1,640.3,1417.1z"/>
	<path class="st1" d="M1574.7,824.8c-20.8-16.9-45.2-28.3-71.3-32.6c-15.3-2.5-30.4-3.6-45.6-3.6c-12,0-24,0.6-36.1,1.7
		c-25.3,2.2-50.6,5.5-76,5.7c-1,0-2.1,0-3.1,0c-9.6,0-19.2-0.5-28.8-1.7c-9.4-1.7-18.7-4.1-27.7-7.5c-1.8-0.7-3.6-1.4-5.4-2.2
		c0.4,0.2,0.8,0.5,1.3,0.7c-0.7-0.4-1.4-0.8-2.2-1.1c-0.2-0.2-0.5-0.2-0.8-0.4c-1-0.5-2.2-1.1-2.8-1.4c-3.6-1.9-7.2-3.9-10.7-6.1
		c-8.8-5.4-17.2-11.5-25.4-18c-1.8-1.4-3.6-2.9-5.4-4.4c0.5,0.5,1,0.9,1.6,1.4c-0.8-0.7-1.6-1.4-2.5-2.1c-0.8-0.7-1.9-1.7-2.4-2.1
		c-3.3-2.9-6.5-5.8-9.8-8.9c-9.5-8.8-19-18-28.5-27.1c-0.4,0.1-0.8,0.2-1.2,0.2c-5.1,0.5-10.2,0.7-15.3,0.7c-5,0-9.9-0.2-14.9-0.6
		c-15.5-2.7-30.4-7.4-45-13c-20.8-9.2-40.7-19.9-60.7-30.6c-24-12.9-48.1-24.9-73.2-35.3c-7.1,1.7-14.1,3.9-20.8,6.2
		c-51.4,18-95.6,50.9-139.6,84.1c-22.7,17.1-45.6,34-70,48c-5.9,3.4-11.9,6.4-18,9.6c-1.1,0.5-2.2,1-3.3,1.4
		c-3.5,1.5-7,2.9-10.5,4.2c-12.4,4.6-25,8-37.8,10.2c-33.7,4.2-67.6,2.1-101.4,4.3c-14.8,0.9-29.3,2.7-43.5,5.8
		c-15.2,29.6-29.8,59.4-49.7,86.3C467.6,922,444,944.9,421.9,969c-23.7,25.7-47,53.3-62.1,84.9c1.6,49.8,16.9,99.2,44.4,138.7
		c10,14.4,20.6,27.9,33.4,39.3c14.1,12.6,28.9,23.7,44.8,33.3c28.3,17.1,58.5,30.7,85.4,50.7c2.9,2.2,5.8,4.5,8.6,6.7
		c1.7,1.5,3.4,3,5.1,4.6c6.2,5.8,12,11.9,17.5,18.4c3,3.5,5.9,7.1,8.7,10.7c1.5,1.8,5.3,7.9,5.5,7.9c0.1,0-0.7-1.2-2.7-4.5
		c4.5,7.4,9.5,14.4,13.7,22.1c4.2,7.6,8.2,15.5,11.7,23.5c0.8,1.8,1.6,3.7,2.4,5.6c0.4,0.9,1,2.7,1.5,4.2c-0.3-0.9-0.7-2.2-1.3-3.9
		c1.2,3.9,2.8,7.7,4.1,11.5c5.2,16,9,32.6,11.4,49.4c0,0.2,0,0.3,0.1,0.4c19.8,4.5,40.4,6.4,60.5,6.4c0.5,0,1,0,1.5,0
		c53.5-0.2,105.2-15.4,156.2-29.7c26.1-7.4,52.4-14.1,79.2-18.2c17.8-2,35.7-2.9,53.6-2.9c24.1,0,48.1,1.7,72,4.5
		c49.6,7.1,98.4,18.8,146.9,31.5c49.7,13,99,28,149.4,38.2c3.5,0.7,6.9,1.4,10.5,2c12.5-5,24.9-10.5,37.1-16.8
		c48.4-24.5,91.9-61.4,125.1-107.4c8.4-11.6,16.1-23.5,23.5-35.8c1.5-15.3,2.8-30.6,4.3-45.9c5.3-54.1,10.5-108.1,15.8-162.1
		c4.6-47.2,9.8-94.5,10.6-141.9c0.8-49-3.2-99.3-17.3-146.5C1580.3,840.2,1577.6,832.4,1574.7,824.8z M1375.6,1425.5
		c0,0,0.8-0.4,3.1-1.3C1377.3,1424.9,1375.6,1425.5,1375.6,1425.5z M1446.8,1380.9c0.4-0.3,0.8-0.7,1.2-1.1
		C1447.8,1380,1447.3,1380.5,1446.8,1380.9z M1513.8,874.6c0.1,0,1.5,0.5,3,1.2C1514.5,874.9,1513.7,874.6,1513.8,874.6z
		 M1534.3,886.9c0.1,0.1,0.2,0.2,0.3,0.2c0.8,0.7,1.5,1.4,2.3,2.1c0.5,0.5,0.8,0.8,0.7,0.8C1537.7,890.1,1536.7,889.3,1534.3,886.9z
		"/>
	<path class="st1" d="M1447.9,1379.9c-0.4,0.4-0.8,0.7-1.2,1.1C1447.3,1380.5,1447.8,1380,1447.9,1379.9z"/>
	<path class="st1" d="M1516.8,875.8c-1.4-0.6-2.9-1.2-3-1.2C1513.7,874.6,1514.5,874.9,1516.8,875.8z"/>
	<path class="st1" d="M1534.7,887.2c-0.1-0.1-0.2-0.2-0.3-0.2c2.4,2.4,3.3,3.2,3.4,3.2s-0.2-0.3-0.7-0.8
		C1536.3,888.6,1535.4,887.9,1534.7,887.2z"/>
	<path class="st1" d="M1378.7,1424.2c-2.2,1-3.1,1.3-3.1,1.3S1377.3,1424.9,1378.7,1424.2z"/>
</g>
<path class="st2" d="M1599.7,953.1c-1.2,0-2,0.9-2,2v9.6c0,1.1,0.9,2,2,2c1.2,0,2-0.9,2-2v-9.6
	C1601.6,953.9,1600.8,953.1,1599.7,953.1z"/>
<path class="st2" d="M1591.6,964.3h-9.8c-1.2,0-2,0.9-2,2c0,1.1,0.9,2,2,2h9.8c1.2,0,2-0.9,2-2
	C1593.7,965.2,1592.7,964.3,1591.6,964.3z"/>
<path class="st2" d="M1599.7,933.8c-1.2,0-2,0.9-2,2v9.6c0,1.1,0.9,2,2,2c1.2,0,2-0.9,2-2v-9.6
	C1601.6,934.7,1600.8,933.8,1599.7,933.8z"/>
<path class="st2" d="M1572.1,964.3h-9.8c-1.2,0-2,0.9-2,2c0,1.1,0.9,2,2,2h9.8c1.2,0,2-0.9,2-2
	C1574.2,965.2,1573.3,964.3,1572.1,964.3z"/>
<path class="st3" d="M456.1,1269.2c-13.8,13.8-21.6,32-21.5,51c0.2,23.7,11.3,44.1,27.9,60.3c-6.8-36.8,3.6-77.2,26-107
	c9.7-12.9,21.1-24.2,33.8-33.9c-7.8,1.9-15.8,3.9-23.5,6.4C483.3,1250.9,467.6,1257.8,456.1,1269.2z"/>
<path class="st3" d="M865.4,1221c33.3,8.8,67.3,15.1,101.5,19.6c5.5,0.7,11,1.3,16.5,1.9c-33.2-6.6-65.8-15.4-97.5-26.9
	c-3.9-16.5-18.7-29.6-37.8-29.6c-0.1,0-0.2,0-0.3,0c-28.7,0.2-57.4,2.1-85.9,5.3c22.5,1.1,45.1,2.4,67.7,2.4
	C847.6,1193.8,861.5,1205.6,865.4,1221z"/>
<path class="st3" d="M873.9,1423c-7.3-0.8-14.7-1.1-22-1.1c-6.4,0-12.8,0.3-19.2,0.9c-11.5,1.7-22.8,4.4-33.8,7.6
	c13.7,2.3,27.1,5.5,40.1,10.2c28.9,12.5,54.4,32,86,38.6c10.1,2.1,20.1,3.1,30.1,3.1c11.2,0,22.5-1.2,33.8-3.5
	c13.1-2.7,25.9-7.1,38.4-12.1c-8.7-2.1-17.2-4.5-25.7-7.1C959.3,1446.5,918,1429.5,873.9,1423z"/>
<path class="st3" d="M1518.5,1250.4c-12.1-0.3-24.1-0.4-36.1-0.4c-22.3,0-44.6,0.5-66.9,1.1c12.3,0.7,24.6,1.4,36.9,2.4
	c37.8,3.1,74.6,8.1,109.3,23c32.1,13.8,56.4,37.7,69.8,67.8c12-19.6,9.3-45-5.4-62.8C1600.8,1250.9,1556,1251.3,1518.5,1250.4z"/>
<path class="st3" d="M750.5,1427.4c-37.1,0-74.4,3.6-111.5,4c-2.2,0-4.4,0.1-6.6,0.1c-49.7,0-102.3-6.5-144.8-32
	c-9.1-5.5-17.5-11.8-24.9-19c2.8,15.5,8.8,30.4,18.1,43.6c17.8,25.1,43.9,42,74.3,51.4c17,5.2,34.6,7.4,52.2,7.4
	c13.4,0,26.8-1.2,40.1-3.3c53.2-8.3,100.5-34.7,151.6-49.4c-1.5-0.2-3-0.5-4.5-0.7C779.8,1428,765.1,1427.4,750.5,1427.4z"/>
<path class="st3" d="M580.8,1225.2c27.8-6.7,55.8-13.1,84-18.6c32.1-6.3,64.5-11.6,97.1-15.2c-9.9-0.5-19.8-1-29.8-1.4
	c-8.1-0.3-16.1-0.5-24.1-0.5c-24.1,0-48,1.4-71.9,4.9c-41.2,6-81.6,20.7-113.6,45.2c5.2-1.3,10.5-2.5,15.6-3.9
	C552.3,1232.1,566.5,1228.6,580.8,1225.2z"/>
<path class="st3" d="M1057.4,1253.4c40.4,3.9,81.1,5.3,121.7,5.3c33.7,0,67.4-1,101.1-2.3c45.1-1.7,90.1-4,135.2-5.4
	c-35.4-1.9-71-2.4-106.5-2.4c-30.8,0-61.4,0.4-92.2,0.8c-20.9,0.2-41.9,0.5-62.8,0.5c-54.6,0-109.1-1.3-163.5-6.6
	c-2.3-0.2-4.7-0.5-7-0.7c17.1,3.4,34.4,6.2,51.7,8.5C1042.6,1251.9,1050,1252.7,1057.4,1253.4z"/>
<path class="st3" d="M1631.6,1344.3c-1.1,1.7-2.2,3.4-3.5,5c-12.8,16.4-30.5,27.6-49.6,36.9c-61.1,30-130.8,37.8-199.1,37.8
	c-3.5,0-7,0-10.5-0.1c-47.1-0.5-94.3-4.2-141.4-4.2c-22.9,0-45.9,0.9-68.7,3.4c-24.9,3.5-49.4,9.2-72.7,17.9
	c-15.1,6.2-29.8,13.3-45,19.6c-4.6,1.9-9.2,3.9-13.8,5.7c23.2,5.8,47.1,9.6,71,9.6c16.7,0,33.3-1.8,49.7-6.1
	c28.9-7.6,54.7-22.4,82-33.7c10.8-3.9,21.7-7,33.1-8.8c6.2-0.6,12.5-0.8,18.7-0.8c8.2,0,16.3,0.5,24.5,1.3
	c72.2,10.6,137.2,48.2,210.8,52.6c3.3,0.2,6.7,0.3,10.1,0.3c32.6,0,67.7-9.4,89.3-33.1c24.5-27,30.9-64.3,17.9-97.6
	C1633.2,1348.1,1632.4,1346.2,1631.6,1344.3z"/>
<path class="st4" d="M1561.7,1276.6c-34.8-14.9-71.5-19.9-109.3-23c-12.3-1-24.6-1.8-36.9-2.4c-45.1,1.4-90.1,3.6-135.2,5.4
	c-33.7,1.3-67.4,2.3-101.1,2.3c-40.7,0-81.3-1.4-121.7-5.3c-7.4-0.7-14.8-1.5-22.1-2.4c-17.4-2.3-34.7-5.1-51.7-8.5
	c-5.5-0.6-11-1.2-16.5-1.9c-34.3-4.5-68.3-10.8-101.5-19.6c-3.9-15.4-17.8-27.3-35.8-27.3c-22.6-0.1-45.1-1.3-67.7-2.4
	c-32.6,3.6-65.1,8.9-97.1,15.2c-28.1,5.5-56.1,11.9-84,18.6c-14.3,3.5-28.5,7.1-42.8,10.6c-5.2,1.3-10.4,2.6-15.6,3.9
	c-12.8,9.7-24.2,21-33.8,33.9c-22.4,29.8-32.8,70.2-26,107c7.4,7.2,15.8,13.6,24.9,19c42.5,25.5,95.1,32,144.8,32
	c2.2,0,4.5,0,6.6-0.1c37.1-0.5,74.4-4,111.5-4c14.7,0,29.4,0.5,44,2.1c1.5,0.2,3,0.5,4.5,0.7c11.1-3.2,22.3-5.8,33.8-7.6
	c6.4-0.6,12.8-0.9,19.2-0.9c7.3,0,14.7,0.4,22,1.1c44.1,6.5,85.4,23.5,127.6,36.5c8.5,2.6,17,5,25.7,7.1c4.7-1.9,9.3-3.8,13.8-5.7
	c15.1-6.4,29.8-13.4,45-19.6c23.5-8.7,47.9-14.4,72.7-17.9c22.9-2.6,45.8-3.4,68.7-3.4c47.1,0,94.3,3.7,141.4,4.2
	c3.5,0.1,7,0.1,10.5,0.1c68.3,0,137.9-7.8,199.1-37.8c19.1-9.3,36.8-20.5,49.6-36.9c1.3-1.6,2.5-3.3,3.5-5
	C1618.1,1314.2,1593.9,1290.4,1561.7,1276.6z"/>
<linearGradient id="SVGID_1_" gradientUnits="userSpaceOnUse" x1="1382.5964" y1="495.2958" x2="1395.3557" y2="152.4173" gradientTransform="matrix(1 0 0 -1 0 1598.5009)">
	<stop  offset="0" style="stop-color:#F8F9FB"/>
	<stop  offset="1" style="stop-color:#A0BDE5"/>
</linearGradient>
<path class="st5" d="M1613.3,930.2l-360.2-0.4c-15.5,0-29.1,10.1-33.5,24.7l-82.2,276.8h397.9l90.8-283.8
	C1628.8,938.9,1622.4,930.2,1613.3,930.2z"/>
<linearGradient id="SVGID_00000021095193178082346650000015271466783793207737_" gradientUnits="userSpaceOnUse" x1="1235.6818" y1="328.8974" x2="1235.6818" y2="424.7138" gradientTransform="matrix(1 0 0 -1 0 1598.5009)">
	<stop  offset="0" style="stop-color:#F8F9FB"/>
	<stop  offset="1" style="stop-color:#A0BDE5"/>
</linearGradient>
<path style="fill:url(#SVGID_00000021095193178082346650000015271466783793207737_);" d="M939.4,1265.4h571.8
	c11.5,0,20.8-9.2,20.8-20.5v-12.7H939.4V1265.4z"/>
<path class="st7" d="M1400.8,1063.1c7.1,7.5,4.5,21.4-5.9,31c-10.4,9.6-24.6,11.3-31.8,3.8c-7.1-7.5-4.5-21.4,5.9-31
	C1379.5,1057.3,1393.7,1055.6,1400.8,1063.1z"/>
<path class="st8" d="M1400.9,1075.7c-4.2,12.2-17.2,21.8-29.1,21.5c-5.2-0.2-9.4-2.3-12.1-5.5c1.7,6.4,7,10.8,14.8,11
	c11.9,0.4,25-9.2,29.1-21.5c2.3-6.8,1.4-13-2-17.2C1402.5,1067.3,1402.3,1071.3,1400.9,1075.7z"/>
<g transform="matrix(1, 0, 0, 1, 1.1368683094535245e-13, -176.93859863281247)">
	
		<linearGradient id="SVGID_00000129919905039155813400000005843115214391807404_" gradientUnits="userSpaceOnUse" x1="628.7833" y1="806.5695" x2="615.4284" y2="714.6078" gradientTransform="matrix(1 0 0 -1 0 1952.3781)">
		<stop  offset="0" style="stop-color:#3576EE"/>
		<stop  offset="1" style="stop-color:#F77FA4"/>
	</linearGradient>
	<path style="fill:url(#SVGID_00000129919905039155813400000005843115214391807404_);" d="M655.6,1227.2c-2.4-4.5-5-8.7-7.2-13.3
		c-2.2-4.7-3.6-9.6-4.1-14.8c-0.9-9.9-0.4-19.6-3-29.3c-2.2-8-5.8-15.8-10.5-22.6c-10.8-15.5-27.1-27.1-45.8-31.2
		c-2.5-0.5-4.4,2.4-2.5,4.2c19.3,19.9,19.1,50,14.2,75.2c-3,15.5-7.5,30.6-10.5,46c-2.9,15.2-3.9,30.7-2.8,46.2
		c1.2,16.3,4.6,32.4,10.2,47.8c-0.4,1,0.2,2.3,1.2,3c1.2,2.7,5.4,1.7,5.1-0.8c16.5-7.7,32.1-17.8,43.9-31.6
		c12.3-14.4,20.1-32.9,19.4-51.9C662.6,1244.6,660,1235.6,655.6,1227.2z"/>
	<path class="st10" d="M644,1245.5c-2.6,3.9-5.5,7.7-8.7,11.1c0.5-6.7,0.3-13.6-0.7-20.3c-1.2-8.3-4.1-16-7-23.7
		c5.2-9.3,8.4-19.5,9.4-30.2c0.4-4-5.9-3.9-6.3,0c-0.7,7.7-2.8,15.2-6,22.1c-2.6-8.3-3.3-16.5-3.8-25.2c-0.5-10.2-1.5-20.5-7.1-29.3
		c-2.2-3.4-7.6-0.2-5.5,3.1c4.8,7.6,5.7,16.4,6.2,25.2c0,0.4,0.1,0.8,0.1,1.1c-1.6-1-3.3-2-4.9-2.9c-3.5-2-6.7,3.3-3.2,5.4
		c2.8,1.7,5.6,3.3,8.4,5c0.1,0,0.1,0.1,0.2,0.1c0.5,6.1,1.2,12.1,3,17.8c2.8,8.9,7.2,17.4,9.3,26.6c0.1,0.3,0.2,0.6,0.2,1
		c-3.9-2-7.3-4.8-9.8-8.3c-2.4-3.3-7.8-0.2-5.5,3.1c4.2,5.8,9.7,9.9,16.5,12.4h0.1c0.8,6.4,0.8,12.8,0.2,19.3
		c-1.1,10.5-4.2,20.7-9.1,30.1c-1.8,3.6,3.6,6.7,5.5,3.1c4.2-8,7.2-16.7,8.8-25.5c0.4-0.2,0.8-0.4,1.2-0.8
		c5.4-5.1,10.1-10.8,14.2-17C651.7,1245.2,646.3,1242.1,644,1245.5z"/>
</g>
<linearGradient id="SVGID_00000057870093241708812810000002558801849196766893_" gradientUnits="userSpaceOnUse" x1="532.6422" y1="708.0477" x2="532.6422" y2="399.7278" gradientTransform="matrix(1 0 0 -1 0 1598.5009)">
	<stop  offset="0" style="stop-color:#3576EE"/>
	<stop  offset="1" style="stop-color:#F77FA4"/>
</linearGradient>
<path style="fill:url(#SVGID_00000057870093241708812810000002558801849196766893_);" d="M611,1059.4c-5.2-9.3-12.5-16.8-21.3-22.9
	c-9.5-6.7-20.1-11.9-27.9-20.6c-7.6-8.4-12.5-19.3-13.8-30.5c-1.5-13,0.8-25.9,1.7-38.8c1.5-20.2-2.2-46.7-23.7-55.8
	c-2.6-1.1-4.9,0.7-4.5,3.4c2.2,14.3-5.1,28.4-14.3,38.8c-9.9,11.2-22.4,19.7-33.8,29.3c-10.5,8.8-20.5,19-26.1,31.6
	c-5.7,13-5.7,27.4-0.8,40.6c4.8,13,13.7,24.2,24.7,32.7c5.6,4.3,11.5,8.1,17.8,11.3c5.9,3,12.1,5.5,18.3,8.2
	c5.8,2.6,11.8,5.5,16.6,9.8c5.2,4.5,8.5,10.3,10.4,16.9c3.7,12.7,2.5,26.2,5.2,39.1c2.5,12.1,8.6,24,20.7,29.1
	c13.8,5.8,28.8,1.9,41.8-3.9c1.2-0.5,2.4-1.1,3.5-1.7c-1.3,6.6-2.4,13.2-3.2,19.9c-0.5,3.9,5.7,3.8,6.2,0c0.9-7.7,2.3-15.4,3.8-23.2
	c0.1-0.1,0.2-0.1,0.2-0.2c2-1,1.8-3.2,0.7-4.5C620.7,1131.5,630.3,1093.6,611,1059.4z"/>
<path class="st10" d="M591.8,1083.2c-1.6,7.7-3.7,15.3-6.3,22.7c-0.1-0.4-0.2-0.8-0.2-1.1c-1.6-9.9-3.5-19.9-7.2-29.2
	c-3.5-8.8-8.5-16.8-16.1-22.7c-0.7-0.5-1.4-1.1-2.2-1.6c2.2-6.9,2.7-14,1.7-21.2c-0.7-4.8-8-2.7-7.3,2c0.7,5.1,0.3,10.1-1,14.9
	c-5.2-3-10.5-5.6-15.8-8.3c-7.3-3.7-14.8-7.9-20.3-13.9c9.5-7.1,15.3-18.3,15.3-30.2c0-4.8-7.6-4.8-7.6,0c0,9.5-4.5,18.5-12.1,24.2
	c-3.7-7-4.1-14.9-2.1-22.7c5.5-21.8,23.9-38.1,25.7-61.2c0.4-4.8-7.2-4.8-7.6,0c-1.3,17.4-13.5,31.5-20.9,47.1
	c-3-5.3-4.3-11.4-3.4-17.4c0.8-4.7-6.5-6.7-7.3-2c-1.5,9,0.4,18.1,5.7,25.7c0.5,0.7,1.2,1.1,1.8,1.4c-3,8.9-4.2,18.7-0.9,27.6
	c1.3,3.7,3.3,7,5.7,10c-9.7,2.7-19.3-1.6-23.6-10.8c-2-4.4-8.5-0.6-6.5,3.8c5.8,12.7,21.1,18.7,34.2,13.6c0.5-0.2,1-0.5,1.3-0.8
	c1.7,1.5,3.5,3,5.3,4.3c12.3,8.9,28.3,13.3,39.4,23.6c-10.6,8.1-25.1,8.5-36.5,1.4c-4.2-2.6-7.9,3.9-3.8,6.4
	c14.3,8.9,32.2,7.7,45.4-2.4c0.5,0.8,1.1,1.5,1.6,2.3c5.1,7.9,7.6,17.1,9.5,26.1c1.5,7.4,2.8,14.8,3.7,22.3
	c-8.2-0.6-15.5-4.3-20.9-10.2c-3.3-3.6-8.6,1.7-5.4,5.3c6.9,7.5,16.4,11.8,26.5,12.4c0.2,0,0.4,0,0.5,0c0.1,1.1,0.2,2.1,0.2,3.2
	c1.8,24.9,0.1,49.9-5.3,74.2c-1,4.7,6.3,6.7,7.3,2c4.8-21.7,6.9-43.9,6.1-66.1c-0.2-5.5-0.5-11.1-1.2-16.6
	c5.2-11.6,9.1-23.6,11.7-36C600.1,1080.5,592.8,1078.5,591.8,1083.2z"/>
<linearGradient id="SVGID_00000147183760921012646590000016886639596406139520_" gradientUnits="userSpaceOnUse" x1="687.8574" y1="683.9544" x2="665.3952" y2="536.3889" gradientTransform="matrix(1 0 0 -1 0 1598.5009)">
	<stop  offset="0" style="stop-color:#3576EE"/>
	<stop  offset="1" style="stop-color:#F77FA4"/>
</linearGradient>
<path style="fill:url(#SVGID_00000147183760921012646590000016886639596406139520_);" d="M728.4,1043.7c-1.8-7.7-2.2-15.5-1.2-23.3
	c2.1-15.4,7.9-30,9.8-45.5c1.6-13.7-0.6-26.8-7.5-38.9c-10.1-17.5-26.8-30.2-39.7-45.7c-2.4-7.1-6.5-13.7-12.7-19
	c-3-2.6-6.8,0.8-5.2,4.1c3.2,6.6,7.3,12.4,11.8,18c3.8,12,2.3,25.9-1.8,37.6c-8.4,24-25.8,43.7-34,67.8c-3.7,10.9-5.4,22.6-3.3,34
	c2,10.8,8.3,20.2,11.1,30.7c6.9,26.3-23.1,40.5-40,54.1c-20.8,16.8-37.3,38.4-48,62.7c-0.3,0.8-0.4,1.5-0.2,2.2
	c-1.1,1.1-2.1,2.1-3.1,3.3c-2.6,3.3,2.2,8,4.8,4.6c9.9-12.5,26.9-13.6,41.8-14.7c3.2-0.2,6.3-0.5,9.5-0.8c8.2,1.8,16.6,2.3,25.1-0.1
	c7.3-2,13.3-6.1,18.3-11.8c4.8-5.5,8.8-12,14.9-16.3c10-7.2,23.1-8.3,34.6-11.9c12.8-4,23-11.8,26.8-24.9
	c4.4-14.7,0.3-30.1-4.6-44.1C733,1058.6,730.2,1051.3,728.4,1043.7z"/>
<path class="st10" d="M708.6,984.4c-2.2,7.2-6.5,13.6-12.3,18.3c1.2-4.1,2.6-8.1,4-12.1c6.4-18.6,13.1-39,5.8-58.3
	c-1.7-4.5-9-2.5-7.3,2c3.2,8.6,3.5,17.5,2.1,26.3c-1.5-2.9-2.3-6.1-2.2-9.6c0.1-4.8-7.5-4.8-7.6,0c-0.2,7.2,2.6,14.2,7.8,19.3
	c-1.5,5.8-3.5,11.6-5.4,17.2c-2.9,8.6-5.9,17.2-7.5,26.2c-1.1,6.4-1.3,13-1.1,19.5c-6.3-5-10.5-12.2-11.3-20.3
	c-0.5-4.8-8.1-4.8-7.6,0c1.2,12.4,8.4,23.7,19.5,29.7c1.2,12.5,3.2,25.8,1.2,38.4c-0.6,0.8-0.8,1.8-0.5,2.8
	c-0.7,3.3-1.7,6.7-3.2,9.9c-4.5,10.1-12.8,15.9-22,20.8c0.5-5.1,1.4-10.1,2.6-15.1c1.2-4.7-6.2-6.7-7.3-2c-1.7,7-2.8,14.1-3.2,21.2
	c-2.8,1.4-5.5,2.9-8.1,4.4c-7.7,4.5-15.1,10.5-19,18.6c-3.7,7.9-4.2,17.3,0.6,24.9c2.6,4,9.2,0.3,6.5-3.8
	c-4.1-6.4-2.8-14.2,1.1-20.3c11.1,1.1,22.3-0.6,32.6-4.9c1.9-0.8,3.2-2.4,2.6-4.6c-0.5-1.7-2.8-3.4-4.7-2.6
	c-7.8,3.3-16,4.9-24.3,4.9c4-3.4,8.8-6.1,13.3-8.5c7.5-3.9,15.2-7.4,22-12.6c6.5-4.9,11.3-11.1,14.5-18.5c1.5-3.4,2.5-6.9,3.2-10.4
	c9.9-6.5,16.1-17.4,16.7-29.2c0.2-4.8-7.4-4.8-7.6,0c-0.3,6.9-3.2,13.3-7.8,18.3c0.5-9.6-0.5-19.3-1.5-28.8
	c-0.9-9.5-1.7-19.2-0.2-28.7c0.2-1.4,0.5-2.8,0.8-4.2c0.8,0.2,1.6,0,2.5-0.5c9.5-5.9,16.4-14.9,19.7-25.5
	C717.4,981.8,710.1,979.8,708.6,984.4z"/>
<linearGradient id="SVGID_00000117659877051757903640000015252893877370554267_" gradientUnits="userSpaceOnUse" x1="611.7672" y1="398.496" x2="611.7672" y2="216.3255" gradientTransform="matrix(1 0 0 -1 0 1598.5009)">
	<stop  offset="0" style="stop-color:#6ED1CE"/>
	<stop  offset="1" style="stop-color:#45A1D0"/>
</linearGradient>
<path style="fill:url(#SVGID_00000117659877051757903640000015252893877370554267_);" d="M684.9,1160.7h-73.1h-73.1
	c-9.5,0-16.4,10.5-14.1,21.3l27.1,132.3c3.5,16.8,16.1,28.6,30.7,28.6h29.5h29.6c14.6,0,27.3-11.8,30.7-28.6l27.1-132.3
	C701.2,1171.1,694.3,1160.7,684.9,1160.7z"/>
<rect x="513.7" y="704" class="st14" width="1528.1" height="179.6"/>
<text transform="matrix(1 0 0 1 513.6903 834.0344)" class="st15 st16">Spring 2022</text>
<rect x="792.4" y="499.2" class="st14" width="429.5" height="179.6"/>
<text transform="matrix(1 0 0 1 792.3958 629.1728)" class="st15 st16">WDII</text>
</svg>
